<svg xmlns="http://www.w3.org/2000/svg" xmlns:xlink="http://www.w3.org/1999/xlink" viewBox="0 0 500 500" xmlns:v="https://vecta.io/nano"><style><![CDATA[.P{fill:#263238}.Q{fill:#e8505b}.R{fill:#fff}.S{fill:#e0e0e0}.T{fill:#455a64}.U{opacity:.3}.V{fill:#ffbe9d}]]></style><path d="M68.73 116.42h125.22v83.84H68.73z" class="R"/><g class="S"><path d="M193.95 200.26l-.02-1.53-.02-4.42-.05-16.86-.09-61.03.18.18-125.21.05h-.01l.22-.22-.02 83.84-.21-.21 90.21.1 25.77.06 6.86.02 1.77.01a14.62 14.62 0 0 1 .62.01s-.19.01-.58.01l-1.75.01-6.81.02-25.73.06-90.34.1h-.21v-.21l-.02-83.84v-.22h.22.01l125.21.04h.18v.18l-.09 61.14-.05 16.82-.02 4.39-.02 1.5z"/><path d="M68.73 123.9c0-.12 28.01-.22 62.55-.22l62.56.22c0 .12-28 .22-62.56.22-34.54 0-62.55-.1-62.55-.22z"/><path d="M73.67 120.12c0 .55-.45 1-1 1s-1-.45-1-1 .45-1 1-1 1 .45 1 1z" class="U"/><circle cx="76.11" cy="120.12" r="1" class="U"/><path d="M80.5 120.12c0 .55-.45 1-1 1s-1-.45-1-1 .45-1 1-1 1 .45 1 1z" class="U"/><path d="M79.5 132.64h33.4v33.4H79.5z"/><use xlink:href="#B"/><use xlink:href="#B" y="6.21"/><use xlink:href="#B" y="12.42"/><path d="M152.98 160.7c0 .03-.48.06-1.35.09l-3.69.07-12.16.07c-4.75 0-9.05-.03-12.16-.07l-3.68-.07c-.87-.03-1.35-.06-1.35-.09s.48-.06 1.35-.09l3.68-.07 12.16-.07 12.16.07 3.69.07c.87.03 1.35.06 1.35.09zm-71.39 16.6h15.7V193h-15.7zm28.47 0h15.7V193h-15.7zm28.46 0h15.7V193h-15.7zm28.47 0h15.7V193h-15.7zm255.12-39.67s-.12.56-.68 1.42c-.55.84-1.65 1.97-3.43 2.51-.88.26-1.91.37-2.98.17-1.06-.2-2.18-.66-3.1-1.48-.47-.39-.88-.88-1.23-1.42a6.14 6.14 0 0 1-.79-1.79c-.37-1.28-.3-2.73.2-4.06.52-1.32 1.44-2.44 2.58-3.14.56-.36 1.17-.63 1.79-.79.62-.17 1.25-.25 1.86-.23 1.23.01 2.36.42 3.29.98.93.57 1.62 1.35 2.09 2.13.96 1.59 1.01 3.18.86 4.17-.17 1.04-.46 1.53-.46 1.53-.04-.01.19-.53.3-1.53.11-.98.01-2.5-.94-4.02-.47-.74-1.14-1.48-2.03-2.01-.89-.52-1.97-.9-3.13-.9a5.61 5.61 0 0 0-1.76.23 5.82 5.82 0 0 0-1.69.76c-1.07.67-1.94 1.73-2.43 2.97-.47 1.25-.54 2.62-.19 3.83a5.83 5.83 0 0 0 .74 1.69 6 6 0 0 0 1.15 1.35c.87.78 1.92 1.23 2.93 1.43 1.02.2 2.01.11 2.86-.13a6.33 6.33 0 0 0 3.39-2.35c.59-.79.76-1.33.8-1.32zm5.98 6.04s.07 0 .22.02l.67.08 2.65.36-.06.04 2.1-5.53.03.11-2.98-1.98-.05-.04.01-.06c.13-1.2.11-2.49-.11-3.83l-.01-.07.06-.04 2.86-2.15-.04.16-2.41-5.4.16.08-3.51.7-.09.02-.06-.07a13.96 13.96 0 0 0-2.77-2.63l-.08-.06.01-.09.51-3.54.1.17-5.52-2.12.2-.06-1.99 2.97-.06.09-.1-.01c-1.19-.13-2.5-.11-3.81.1l-.11.02-.06-.09-2.14-2.87.22.06-5.41 2.4.1-.2.69 3.51.02.11-.09.07a14.38 14.38 0 0 0-2.62 2.76h0 0c-.08.03.17-.07-.17.07h0-.01-.01-.03l-.06-.01-.11-.02-.22-.03-.44-.06-.89-.13-1.76-.26.2-.11-2.13 5.52-.07-.21 2.97 1.99.09.06-.01.11c-.14 1.28-.1 2.57.09 3.81l.02.11-.09.06-2.87 2.14.05-.21 2.39 5.41-.19-.1 3.51-.69.1-.02.06.08a14.34 14.34 0 0 0 2.76 2.64l.08.06-.01.09-.52 3.54-.1-.16 5.52 2.14-.17.05 2-2.97.04-.07.08.01a14.2 14.2 0 0 0 3.82-.09l.07-.01.04.06 2.13 2.88-.13-.03 5.42-2.38-.05.09-.67-3.51-.01-.04.03-.02c1.02-.81 1.67-1.53 2.09-2.01l.46-.55.17-.22s-.04.07-.13.2l-.43.57c-.4.5-1.05 1.23-2.06 2.07l.02-.06.71 3.5.01.06-.06.03-5.4 2.42-.08.04-.05-.07-2.15-2.86.11.05c-1.21.2-2.51.25-3.89.11l.12-.06-1.98 2.97-.06.09-.1-.04-5.53-2.12-.11-.04.02-.12.51-3.54.06.15a14.96 14.96 0 0 1-2.83-2.69l.16.06-3.51.7-.13.03-.05-.12-2.4-5.41-.06-.13.11-.08 2.87-2.14-.07.17c-.2-1.27-.24-2.59-.1-3.9l.08.17-2.97-1.99-.12-.08.05-.13 2.13-5.52.05-.14.14.02 1.76.26.89.13.44.07.22.03.11.02.06.01h.03.01.01 0l-.17.07h0 0a14.83 14.83 0 0 1 2.69-2.83l-.06.18-.69-3.51-.03-.14.13-.06 5.41-2.4.13-.06.09.11 2.14 2.87-.17-.07c1.34-.21 2.69-.23 3.9-.1l-.16.08 1.99-2.97.08-.11.13.05 5.52 2.13.12.05-.02.13-.52 3.54-.06-.15c1.11.8 2.06 1.75 2.82 2.69l-.15-.05 3.51-.69.11-.02.05.1 2.39 5.41.04.1-.08.06-2.87 2.13.05-.11a15.04 15.04 0 0 1 .09 3.89l-.05-.1 2.96 2 .06.04-.03.07-2.16 5.51-.02.04-.05-.01-2.62-.41-.68-.11-.23-.04z"/><path d="M459.56 126.83a12.17 12.17 0 0 1-2.21 2.32l.57 2.91-4.49 1.99-1.77-2.38c-1.05.17-2.12.2-3.2.08l-1.65 2.46-4.58-1.77.43-2.94a12.17 12.17 0 0 1-2.32-2.21l-2.91.57-1.99-4.49 2.38-1.77c-.17-1.05-.2-2.12-.08-3.2l-2.46-1.65 1.77-4.58 2.94.43a12.17 12.17 0 0 1 2.21-2.32l-.57-2.91 4.49-1.99 1.77 2.38c1.05-.17 2.12-.2 3.2-.08l1.65-2.46 4.58 1.77-.43 2.94a12.17 12.17 0 0 1 2.32 2.21l2.91-.57 1.99 4.49-2.38 1.77c.17 1.05.2 2.12.08 3.2l2.46 1.65-1.77 4.58-2.94-.43h0zm-4.96-5c1.05-2.71-.31-5.76-3.02-6.81s-5.76.31-6.81 3.02.31 5.76 3.02 6.81c2.72 1.04 5.76-.31 6.81-3.02zm-14.38-22.35a18.94 18.94 0 0 1-3.46 3.63l.9 4.57-7.04 3.12-2.78-3.73c-1.64.26-3.33.31-5.02.13l-2.59 3.86-7.18-2.77.67-4.6a18.94 18.94 0 0 1-3.63-3.46l-4.57.9-3.12-7.04 3.73-2.78c-.26-1.64-.31-3.33-.13-5.02l-3.86-2.59 2.77-7.19 4.6.67a18.94 18.94 0 0 1 3.46-3.63l-.9-4.57 7.04-3.12 2.78 3.73c1.64-.26 3.33-.31 5.02-.13l2.59-3.86 7.18 2.77-.67 4.6a19 19 0 0 1 3.64 3.46l4.57-.9 3.12 7.04-3.73 2.78c.26 1.64.31 3.33.13 5.02l3.86 2.59-2.77 7.18-4.61-.66h0zm-7.78-7.85a8.262 8.262 0 1 0-15.42-5.94 8.262 8.262 0 1 0 15.42 5.94z" fill-rule="evenodd"/><path d="M369.62 61.36c-.02-.02.17-.23.52-.59l1.52-1.53 5.1-4.94.05-.04v.26l-5.14-4.84-1.53-1.5-.53-.58c.02-.02.24.15.62.48l1.6 1.41 5.21 4.77.14.13-.14.13-.05.04-5.17 4.86-1.6 1.44c-.36.34-.58.52-.6.5zm-15.6-13.77c.02.02-.17.23-.52.59l-1.52 1.53-5.1 4.94-.05.04v-.26l5.14 4.84 1.53 1.5.53.58c-.02.02-.24-.15-.62-.48l-1.6-1.41-5.21-4.77-.14-.13.14-.13.05-.04 5.17-4.86 1.6-1.44c.36-.34.58-.52.6-.5zm4 17.01c-.09-.03 1.55-4.64 3.66-10.28 2.11-5.65 3.9-10.2 3.99-10.16.09.03-1.55 4.64-3.66 10.29-2.11 5.64-3.9 10.19-3.99 10.15zm29.34 9.86l-.02-.77-.02-2.22-.04-8.39-.08-29.99.15.15-50.76.03h0l.18-.18-.02 41.37-.16-.16 36.66.08 10.39.04 2.76.02.71.01.25.01s-.07.01-.23.01l-.7.01-2.73.02-10.36.04-36.76.08h-.16v-.16l-.02-41.37v-.18h.18 0l50.76.03h.15v.15l-.08 30.08-.04 8.36-.02 2.19.01.74z"/><path d="M387.76 39.23c0 .1-11.46.18-25.59.18-14.14 0-25.6-.08-25.6-.18s11.46-.18 25.6-.18l25.59.18z"/><use xlink:href="#C"/><ellipse cx="342.54" cy="36.21" rx=".68" ry=".69"/><use xlink:href="#C" x="4.98"/></g><path d="M171.84 53.04h117.38v47.68H171.84z" class="R"/><g class="S"><path d="M289.22 100.72l-.01-.85-.01-2.47-.03-9.49-.07-34.87.13.13-117.38.06h-.01l.19-.19-.01 47.68-.18-.18 84.16.08 24.41.05 6.53.02 1.69.01.59.02s-.19.01-.56.01l-1.67.01-6.5.02-24.37.05-84.28.08h-.18v-.18l-.01-47.68v-.19h.19.01l117.38.06h.13v.13l-.07 34.94-.03 9.46-.01 2.45-.03.84z"/><path d="M171.95 59.47c0-.1 26.24-.19 58.6-.19l58.6.19c0 .1-26.23.19-58.6.19-32.36 0-58.6-.08-58.6-.19z"/></g><g fill="#ebebeb"><path d="M176.87 56.6a.85.85 0 1 1-1.7 0 .85.85 0 0 1 1.7 0zm2.92 0a.85.85 0 0 1-1.7 0 .85.85 0 0 1 1.7 0z" class="U"/><circle cx="181.81" cy="56.6" r=".85" class="U"/></g><g class="S"><path d="M181.81 67.22h28.35v28.35h-28.35z"/><use xlink:href="#D"/><use xlink:href="#D" y="5.78"/><path d="M257.88 86.37c0 .01-.15.03-.43.04l-1.22.03-4.5.06-14.83.05-14.83-.05-4.5-.06-1.22-.03c-.28-.01-.43-.02-.43-.04 0-.01.15-.03.43-.04l1.22-.03 4.5-.06 14.83-.05 14.83.05 4.5.06 1.22.03.43.04z"/></g><path d="M472.86 445.09c0 .14-99.79.26-222.85.26-123.11 0-222.87-.12-222.87-.26s99.77-.26 222.87-.26l222.85.26z" class="P"/><path d="M295.03 135.41h140.13v114.16H295.03z" class="S"/><path d="M285.07 142.66H425.2v114.16H285.07z" fill="#ebebeb"/><path d="M271.34 150.61h143.87v117.21H271.34z" class="R"/><g class="P"><path d="M415.21 267.82l-.02-2.16-.02-6.26-.06-23.75-.11-85.04.22.22-143.86.04h-.01l.26-.26-.03 117.21-.23-.23 103.96.12 29.42.06 7.79.03 2.01.01a18.22 18.22 0 0 1 .68.01s-.22.01-.66.01l-1.98.01-7.75.03-29.37.06-104.11.12h-.23v-.23l-.03-117.21v-.26h.26.01l143.86.04h.22v.22l-.11 85.17-.06 23.7-.02 6.22-.03 2.12z"/><path d="M415.21 160.36c0 .14-32.09.26-71.67.26-39.59 0-71.68-.12-71.68-.26s32.09-.26 71.68-.26l71.67.26zm-139.06-5.12a.92.92 0 1 1-.92-.92c.51 0 .92.42.92.92z"/><circle cx="278.77" cy="155.24" r=".92"/><path d="M283.24 155.24a.92.92 0 1 1-1.84 0 .92.92 0 0 1 .92-.92c.51 0 .92.42.92.92z"/></g><path d="M280.96 268.78c-.14 0-.26-24.33-.26-54.34l.26-54.34c.14 0 .26 24.33.26 54.34l-.26 54.34z" class="S"/><path d="M80.21 54.78h59.25v42.24H80.21z" class="Q"/><g class="R"><path d="M139.93 61.05c0 .14-13.38.26-29.87.26-16.5 0-29.87-.12-29.87-.26s13.37-.26 29.87-.26l29.87.26zm-54.88-3.09c0 .39-.36.7-.8.7s-.8-.31-.8-.7.36-.7.8-.7.8.32.8.7zm2.9 0c0 .39-.36.7-.8.7s-.8-.31-.8-.7.36-.7.8-.7c.45 0 .8.32.8.7z"/><ellipse cx="90.06" cy="57.96" rx=".8" ry=".7"/></g><path d="M402.39 216.3h53.56v38.18h-53.56z" class="Q"/><path d="M456.37 221.97c0 .09-12.09.17-27 .17-14.92 0-27.01-.08-27.01-.17s12.09-.17 27.01-.17l27 .17zm-49.61-2.79c0 .35-.32.63-.72.63s-.72-.28-.72-.63.32-.63.72-.63.72.28.72.63zm2.63 0c0 .35-.32.63-.72.63s-.72-.28-.72-.63.32-.63.72-.63.72.28.72.63zm2.63 0c0 .35-.32.63-.72.63s-.72-.28-.72-.63.32-.63.72-.63c.39 0 .72.28.72.63z" class="R"/><path d="M51.78 215.76h39.49v28.15H51.78z" class="Q"/><g class="R"><path d="M91.57 219.93c0 .07-8.91.12-19.91.12s-19.91-.06-19.91-.12 8.91-.12 19.91-.12l19.91.12z"/><use xlink:href="#E"/><use xlink:href="#E" x="1.94"/><use xlink:href="#E" x="3.88"/></g><g class="Q"><path d="M338.19 126.52l-.02-.78-.02-2.25-.05-8.56-.11-30.96.21.21-65.89.05h-.01l.26-.26-.02 42.56-.24-.24 47.4.12 13.59.06 3.63.03.94.01.33.01c0 0-.1.01-.3.01l-.91.01-3.58.03-13.54.06-47.56.12h-.24v-.24l-.02-42.56v-.26h.26.01l65.89.05h.21v.21l-.11 31.09-.05 8.51-.02 2.21-.04.76z"/><path d="M338.19 90.28c0 .14-14.76.26-32.96.26-18.21 0-32.96-.12-32.96-.26s14.75-.26 32.96-.26l32.96.26z"/><use xlink:href="#F"/><use xlink:href="#F" x="2.93"/><use xlink:href="#F" x="5.86"/></g><path d="M147.88 271.95l26.13 88.18c1.16 3.92 4.76 6.6 8.84 6.6l106 .29c5.63.02 10.11-4.7 9.81-10.32h0a9.81 9.81 0 0 0-9.79-9.28h-40.54l-32.46-90.45h-56.82c-7.78.01-13.38 7.51-11.17 14.98z" class="T"/><path d="M237.56 354.67c0 .21-10.81.37-24.14.37s-24.14-.17-24.14-.37c0-.21 10.81-.37 24.14-.37s24.14.16 24.14.37zm-81.88-94.89c.2-.07 7.41 21.05 16.12 47.15l15.41 47.39c-.2.07-7.41-21.04-16.12-47.16l-15.41-47.38z" class="P"/><g class="T"><path d="M233.15 445.09l-6.46-.15v-78.21h6.46z"/><path d="M199.86 444.73h60.13l-27.24-9.47h-6.46z"/></g><g class="Q"><path d="M184.65 236.76l9.95 49.71-1.78 37.25 66.88-11.12-2.62-32.62-.05-26.99 16.4 31.78 12.77-24.66-23.38-42.35h0c-4.28-4.44-9.3-7.73-15.3-9.9-2.91-1.05-6.01-1.68-9.59-1.84h0c-7.72 2.39-15.43 2.39-23.15.01l-3.89.44c-.1.01-.2.02-.3.04-14.19 1.73-25.03 13.53-25.81 27.81l-.13 2.44z"/><path d="M210.89 206.47s-27.48.21-30.88 29.23l-.46 21.28 23.67-.2 7.67-50.31z"/></g><g fill="#fafafa"><use xlink:href="#G"/><use xlink:href="#G" y="4.61"/><path d="M274.99 239.99c0 .21-21.28.37-47.52.37-26.25 0-47.52-.17-47.52-.37 0-.21 21.27-.37 47.52-.37l47.52.37z"/></g><path d="M256.67 284.77c-.21 0-.11-11.77.2-26.27l.95-26.25c.21 0 .11 11.76-.2 26.27l-.95 26.25z" class="P"/><path d="M247.27 265.69s13 .93 15.34 4.37 5.91 13.24 4.55 13.31c-1.35.07-2.33-.74-2.33-.74l-3.56-6.31s.57 6.1-1.56 6.22-12.68 2.23-12.68 2.23l.24-19.08z" class="V"/><path d="M179.56 251.32l-.05 33.51c.42 7.83 7.76 13.42 15.42 11.75l52.41-10.8-.11-21.49-45.22 8.68-.6-22.75-21.85 1.1z" class="Q"/><path d="M209.46 293.89c0-.02.23-.08.69-.19l2.03-.46 7.7-1.63 27.28-5.58-.27.33-.04-22.07.44.36-9.21 1.77-36.02 6.85-.39.07.01-.39.83-24.17.28-6.75.1-1.77.07-.61a4.81 4.81 0 0 0 .03.61v1.78l-.11 6.75-.56 24.16-.38-.32 35.99-6.96 9.21-1.76.44-.08v.45l-.04 22.07v.28l-.27.05-27.33 5.31-7.74 1.45-2.05.36-.69.09zm30.06-87.42c.02-.01.1.16.22.49.13.33.27.83.41 1.48.26 1.3.41 3.3-.25 5.64-.63 2.33-2.16 4.91-4.55 7.02-2.35 2.16-5.83 3.64-9.54 3.6-3.71.04-7.22-1.48-9.43-3.83-2.24-2.34-3.23-5.21-3.51-7.59-.26-2.41.17-4.37.66-5.61.25-.62.48-1.09.67-1.38.18-.3.29-.45.31-.44.08.04-.32.67-.71 1.92-.4 1.24-.73 3.14-.41 5.45.34 2.27 1.34 4.99 3.48 7.17 2.11 2.18 5.41 3.59 8.94 3.56 3.53.03 6.82-1.34 9.08-3.37 2.33-2.01 3.83-4.44 4.5-6.65a12.68 12.68 0 0 0 .46-5.44c-.17-1.3-.41-2-.33-2.02z" class="P"/><path d="M242.05 287.56c-.11-.01-.07-1.27.01-3.31l.2-7.94-.1-7.95.03-3.31c.1-.01.31 1.24.5 3.28a83.2 83.2 0 0 1 .32 7.98l-.42 7.98c-.22 2.03-.44 3.28-.54 3.27zm-2.71.55c-.11-.01-.12-1.26-.09-3.28l.08-7.89-.01-7.9.13-3.28c.1-.01.26 1.24.4 3.26l.23 7.92-.3 7.91c-.16 2.02-.34 3.26-.44 3.26z" fill="#fafafa"/><path d="M291.83 421.25l9.91 27.28 14.06 19.32a2.98 2.98 0 0 1-.82 4.27h0c-.82.51-1.82.6-2.71.23-5.67-2.35-26.47-11.11-27.09-13.14-.71-2.36-14.14-31.69-14.14-31.69l20.79-6.27z" class="Q"/><path d="M314.96 472.11l-30.51-14.74.45 1.15a4.5 4.5 0 0 0 2.04 2.32c2.5 1.35 9.49 4.93 25.23 11.54a2.98 2.98 0 0 0 2.79-.27h0zm-28.35-25.62c.86.2 1.48 1.14 1.31 2.01s-1.12 1.51-1.98 1.32-1.64-1.29-1.38-2.14c.27-.84 1.42-1.53 2.21-1.14" opacity=".6" class="R"/><path d="M304.18 462.7c.18.02.24-1.64 1.55-3.03 1.27-1.43 2.91-1.63 2.88-1.81 0-.08-.43-.15-1.09 0s-1.54.6-2.26 1.37c-.71.78-1.08 1.69-1.17 2.37-.1.69.02 1.1.09 1.1zm3.34 2.87c.17.07.7-1.15 1.94-2.1 1.22-.97 2.53-1.18 2.51-1.37.02-.17-1.5-.24-2.9.87-1.41 1.09-1.72 2.58-1.55 2.6zm-8.73-6.12c.18.08.98-1.8 2.78-3.44 1.78-1.67 3.71-2.31 3.65-2.5-.01-.16-2.17.24-4.08 2.03-1.93 1.77-2.51 3.89-2.35 3.91zm-3.7-8.04c.14.13 1.39-1.07 3.3-1.9 1.91-.85 3.64-.96 3.63-1.15.02-.16-1.84-.35-3.89.57-2.05.89-3.18 2.39-3.04 2.48zm-3.11-7.93c.14.12 1.3-1.36 3.39-2.07 2.07-.75 3.9-.31 3.94-.5.02-.07-.41-.3-1.17-.42s-1.86-.08-2.98.31-2 1.05-2.52 1.62c-.53.57-.73 1.01-.66 1.06zm2.75-3.56c.03-.01-.05-.4-.36-1.04-.31-.63-.88-1.52-1.86-2.36-.49-.39-1.04-.92-1.94-.98-.45-.03-.98.25-1.16.74-.18.47-.11.96.05 1.39.7 1.71 2.82 2.79 4.84 2.29 2.02-.54 3.35-2.33 3.54-4.11.02-.45-.05-.97-.44-1.34-.39-.38-1.01-.35-1.37-.13-.76.43-1.08 1.09-1.42 1.62-.64 1.11-.91 2.12-1.03 2.82s-.09 1.09-.05 1.1c.12.03.17-1.59 1.46-3.68.34-.5.72-1.1 1.27-1.38.27-.14.56-.12.75.07.19.18.26.54.24.9-.18 1.47-1.39 3.1-3.11 3.53-1.7.44-3.57-.52-4.14-1.88-.13-.33-.17-.7-.07-.97.1-.26.35-.42.63-.42.61.01 1.18.44 1.66.8 1.92 1.52 2.4 3.1 2.51 3.03z" class="P"/><path d="M333.64 414.11l-.86 22.17s22.25 8.32 22.49 12.43l-43.04-.12-.08-34.6 21.49.12z" class="Q"/><path d="M319.48 434.38c-.83.23-1.41 1.16-1.22 2s1.14 1.44 1.97 1.23c.84-.21 1.57-1.31 1.28-2.13-.28-.82-1.43-1.45-2.2-1.05m-7.08 14.16l-.01-3.45 41.36 1.38s1.91.84 1.69 2.19l-43.04-.12z" opacity=".6" class="R"/><path d="M333.48 436.06c-.01.21-1.06.3-2.09.98-1.05.65-1.59 1.55-1.78 1.47-.19-.04.12-1.3 1.39-2.09 1.26-.8 2.53-.55 2.48-.36zm4.51 1.88c.05.2-.86.56-1.58 1.45-.74.87-.92 1.83-1.13 1.82-.2.03-.34-1.2.57-2.28.9-1.1 2.14-1.19 2.14-.99zm2.55 5.41c-.19.04-.48-1.01.06-2.16.53-1.15 1.53-1.61 1.62-1.43.12.17-.52.79-.95 1.74-.46.95-.52 1.83-.73 1.85zm-7.42-12.36c-.09.19-1.05-.1-2.24-.02-1.19.05-2.12.45-2.22.27-.12-.15.78-.93 2.18-1 1.4-.09 2.38.59 2.28.75z" class="P"/><path d="M333.47 418.5l-.15 3.95-21.15-.25-.02-3.56z" class="U"/><g class="P"><path d="M333.21 426.52c0 .09-.83.21-2.16-.02-.66-.12-1.44-.33-2.25-.7-.41-.18-.82-.4-1.24-.66-.2-.13-.43-.26-.65-.51-.23-.22-.36-.78-.09-1.12.22-.33.61-.47.92-.48.32-.01.57.06.81.11a8.43 8.43 0 0 1 1.34.46c.82.38 1.49.85 1.98 1.31 1 .93 1.33 1.71 1.26 1.75-.1.07-.58-.59-1.59-1.36-.51-.38-1.15-.78-1.92-1.09a8.58 8.58 0 0 0-1.24-.39c-.46-.12-.84-.13-.96.08-.04.08-.05.11.05.24.1.12.28.24.48.37.38.25.76.47 1.14.65.75.37 1.47.63 2.08.8 1.23.38 2.04.44 2.04.56z"/><path d="M332.93 426.82c-.07.03-.49-.72-.56-2.08-.03-.68.04-1.49.3-2.36a6.91 6.91 0 0 1 .55-1.31c.25-.42.56-.99 1.38-1.08.43-.01.78.32.9.6.14.29.17.54.22.79.08.5.07 1 0 1.45-.14.92-.52 1.68-.93 2.22-.84 1.11-1.72 1.36-1.74 1.29-.07-.11.66-.51 1.31-1.58a5.02 5.02 0 0 0 .69-2.02c.04-.4.04-.82-.04-1.25-.07-.46-.24-.83-.41-.78-.21 0-.58.34-.76.7a7.63 7.63 0 0 0-.54 1.17 7.74 7.74 0 0 0-.42 2.15c-.05 1.27.17 2.05.05 2.09z"/><path d="M312.19 307.84l-59.14 6.08 4.6 41.39s49.53-13.09 49.17-12.03c-.35 1.06 2.29 88.06 2.29 88.06h29.82l.56-98.53c.21-14.81-12.56-26.49-27.3-24.97z"/><path d="M192.21 324.54v12.83c0 8.74 9.95 18 18.69 18h6.76c5.32 0 13.66-3.88 17.96-7.02l2.58-1.89 31.05 96.21s35.54-6.37 35.54-7.49-24.07-78.8-35.17-114.85c-4.54-14.72-20.31-23.28-34.88-18.28a29.88 29.88 0 0 0-1.49.55c-15.93 6.37-41.04 21.94-41.04 21.94z"/></g><path d="M304.78 435.19c-.01 0-.07-.11-.16-.34l-.39-1.03-1.41-3.99-4.81-14.81-15.06-49.11-8.11-27.09-3.52-11.83-1.6-5.36-1.62-4.87c-1.22-3.03-3.13-5.34-5.02-7.1-1.91-1.75-3.73-3.08-5.25-4.09a88.49 88.49 0 0 0-3.56-2.28l-.93-.58-.31-.22c.01-.01.12.04.34.15l.97.52 3.65 2.16c1.56.98 3.42 2.28 5.38 4.03 1.94 1.76 3.94 4.12 5.22 7.21.66 1.53 1.16 3.19 1.68 4.9l1.64 5.35 3.58 11.81 8.16 27.08 14.85 49.17 4.58 14.88 1.28 4.04.32 1.05c.09.22.12.35.1.35zm7.5-104.31c.18.13-1.51 2.67-2.92 6.11-1.44 3.44-2.04 6.43-2.26 6.39-.19-.02.1-3.14 1.57-6.67 1.45-3.55 3.46-5.95 3.61-5.83zm5.7 4c.09.21-2.48 1.33-5.15 3.45-2.69 2.09-4.39 4.32-4.57 4.19-.16-.09 1.32-2.6 4.11-4.77 2.77-2.21 5.56-3.05 5.61-2.87zm-48.4 107.8c-.2.06-8.59-25.68-18.74-57.5l-18.03-57.73c.2-.06 8.58 25.68 18.74 57.5l18.03 57.73zm-38.11-150.09l101.65.98 18.96-53.58-73.94.5-17.16 48.18-29.51.44z" class="T"/><path d="M308.54 271.4c-2.25-.32-3.82-2.4-3.5-4.65s2.4-3.82 4.65-3.5 3.82 2.4 3.5 4.65-2.4 3.82-4.65 3.5z" class="R"/><path d="M223.18 147.57c.96-3.56 3.64-5.32 7.14-6.51 3.49-1.19 7.56-.53 10.5 1.7 1.96 1.5 3.5 3.67 5.84 4.48 3.84 1.33 8.34-1.54 12.02.18 2.18 1.02 3.45 3.68 2.87 6.01-.58 2.34-2.95 4.09-5.35 3.97 2.51.92 3.29 4.49 1.82 6.72-1.46 2.23-4.47 3.07-7.09 2.58s-4.91-2.08-6.89-3.86-3.76-3.8-5.88-5.42-4.69-2.85-7.36-2.7c-3.61.19-6.7 2.91-8.31 6.15s-1.98 6.93-2.18 10.54-.26 7.27-1.33 10.72c-.13.4-.32.86-.72.98-.59.18-1.08-.44-1.37-.98a53.22 53.22 0 0 1-6.06-19.71c-.41-4-.3-7.78 1.89-11.14 2.18-3.36 7.73-5.84 10.46-3.71" class="P"/><path d="M216.2 164.3l-1.84 40.46c-.31 6.88.63 17.05 11.53 17.05h0c9.46-.71 12.25-9.55 12.54-15.97l.29-5.9s10.34-.5 11.55-10.66c.58-4.91.96-15.12 1.2-24.36.25-9.93-7.17-18.38-17.04-19.43l-.98-.1c-10.65-.51-17.04 8.25-17.25 18.91z" class="V"/><path d="M238.75 199.8s-6.49-.16-12.86-5.18c0 0 2.36 7.66 12.61 7.82l.25-2.64z" fill="#eb996e"/><path d="M247.78 171.42c-.05.77-.75 1.36-1.56 1.32-.8-.04-1.41-.7-1.36-1.47s.75-1.36 1.56-1.32 1.42.7 1.36 1.47zm.97-1.74c-.2.17-1.21-.76-2.78-.92-1.56-.18-2.79.5-2.94.29-.07-.09.15-.42.68-.73s1.41-.57 2.38-.46 1.75.55 2.19.97.57.78.47.85zm-16.36.64c-.05.77-.75 1.36-1.56 1.32-.8-.04-1.41-.7-1.36-1.47s.75-1.36 1.56-1.32 1.41.7 1.36 1.47zm.96-1.98c-.2.17-1.22-.76-2.78-.92-1.56-.18-2.79.5-2.94.29-.07-.09.14-.42.68-.73.53-.31 1.41-.57 2.38-.47.97.11 1.75.55 2.19.97s.57.78.47.86zm4.44 12.2c0-.09.99-.15 2.59-.19.4 0 .79-.04.89-.3.12-.28 0-.73-.14-1.21l-.86-3.17-1.81-8.23c.18-.05 1.29 3.57 2.46 8.07l.81 3.18c.1.47.31 1.01.04 1.59-.14.29-.46.47-.72.51-.26.05-.49.03-.69.02l-2.57-.27zm-4.71.59c.26.01.08 1.71 1.4 3.07s3.15 1.36 3.14 1.6c.01.11-.44.29-1.2.23-.75-.05-1.82-.41-2.63-1.24s-1.08-1.86-1.07-2.56c.01-.72.24-1.12.36-1.1zm1.33-18.88c-.2.41-1.74.04-3.6.07-1.86-.01-3.39.37-3.6-.04-.09-.19.21-.57.85-.91.64-.35 1.62-.64 2.74-.64 1.11 0 2.1.28 2.74.62.65.34.96.71.87.9zm14.25 2.85c-.31.33-1.35-.16-2.64-.31-1.29-.2-2.42-.02-2.63-.41-.09-.19.12-.53.63-.81s1.33-.47 2.21-.35c.89.12 1.62.53 2.04.94.42.39.53.78.39.94z" class="P"/><path d="M216.23 171.92c-.17-.09-6.77-2.81-7.29 4.17s6.6 6.06 6.62 5.86c.03-.2.67-10.03.67-10.03z" class="V"/><path d="M213.63 179.15c-.03-.02-.13.08-.34.16a1.22 1.22 0 0 1-.91-.05c-.72-.33-1.25-1.54-1.19-2.8a4.1 4.1 0 0 1 .47-1.72c.25-.49.61-.83.98-.87.38-.06.62.18.69.39.08.2.02.34.06.35.02.02.16-.11.12-.4-.02-.14-.09-.31-.24-.46-.16-.15-.4-.24-.66-.23-.54 0-1.06.46-1.35.99-.32.53-.53 1.2-.57 1.91-.06 1.41.56 2.78 1.55 3.15.48.16.9.05 1.13-.1s.28-.31.26-.32z" fill="#eb996e"/><path d="M253.85 163.04c-4.61.72-9.52-.95-12.74-4.33-2.25-2.36-3.84-5.58-6.84-6.87-2.02-.86-4.39-.66-6.41.19s-3.75 2.3-5.26 3.89c1.42 5.38-.52 11.01-2.43 16.24-.21.58-.46 1.2-.98 1.52-.89.55-2.07-.08-2.71-.91-1.02-1.32-1.29-3.07-1.4-4.74-.27-3.8.05-7.67 1.27-11.28s3.38-6.94 6.4-9.26c3.77-2.9 8.74-4.09 13.47-3.51 4.72.58 9.17 2.85 12.64 6.1 1.61 1.51 3.05 3.28 3.75 5.38" class="P"/><path d="M58.32 378.08c3.56-1.84 7.76-2.08 11.72-1.42 2.13.35 4.34.99 5.79 2.58 1.45 1.6 1.72 4.41.06 5.78-.99.82-2.37.94-3.65.93-3.1-.04-6.54-.58-9.01 1.28-1.41 1.06-2.35 2.83-4.04 3.35-1.65.51-3.52-.46-4.39-1.95-.88-1.49-.91-3.35-.5-5.03 0-.01.43-3.67 4.02-5.52zm-8.17-15.77c2.18 3.11 6.42 2.08 8.38.18s2.79-4.65 3.55-7.28c1.73-6 3.47-12.3 2.18-18.41-.38-1.83-1.07-3.65-2.35-5-1.28-1.36-3.26-2.16-5.06-1.68-2.14.56-3.46 2.66-4.42 4.65a44.02 44.02 0 0 0-4.34 18.83c-.01 3.03.35 6.21 2.06 8.71m-5.99 4.47c2.37-2.81 2.82-6.91 1.76-10.42-1.05-3.52-3.43-6.51-6.17-8.96-3.22-2.87-6.99-5.1-11.06-6.52-1.6-.56-3.29-1.01-4.97-.84-1.69.16-3.39 1.02-4.17 2.52-1.16 2.22-.05 4.91 1.16 7.11 2.13 3.87 4.56 7.57 7.26 11.06 2.18 2.81 4.67 5.57 7.99 6.84s6.76 1.12 8.52-1.18" class="Q"/><g class="P"><path d="M50 409.27c.04 0 .11-.5.2-1.41l.38-3.86.87-5.66c.45-2.1 1.15-4.38 2.06-6.68.94-2.29 2.08-4.38 3.41-6.05 1.33-1.68 2.87-2.89 4.31-3.59 1.44-.71 2.74-1 3.63-1.13l1.41-.2c0-.04-.51-.05-1.43-.02-.92.06-2.27.29-3.79.99-1.53.68-3.16 1.91-4.55 3.62-1.4 1.7-2.58 3.83-3.54 6.17-.92 2.35-1.61 4.65-2.04 6.79s-.62 4.1-.75 5.73l-.19 3.88.02 1.42z"/><path d="M50.27 406.3c.02 0 .03-.23.04-.66l-.01-1.88.08-6.9c.14-5.82.65-12.09 1.61-20.92.92-8.31 2.15-17.97 3.45-24.26a113.37 113.37 0 0 1 .82-3.84l.67-2.89.44-1.82c.09-.42.13-.64.11-.65s-.1.21-.23.62l-.54 1.8c-.24.78-.49 1.75-.77 2.87a103.22 103.22 0 0 0-.91 3.83c-1.29 5.7-2.65 13.66-3.62 22.51s-1.41 16.91-1.45 22.75c-.03 2.92.03 5.28.1 6.91l.11 1.88c.05.43.08.66.1.65z"/><path d="M50.31 390.76c.04 0 .03-.7-.01-1.96-.07-1.26-.25-3.08-.6-5.31-.38-2.23-.9-4.87-1.73-7.74-.36-1.31-1.2-4.46-3.24-9.16-2.68-6.37-6.33-11.58-9.51-14.8-.74-.86-1.57-1.47-2.24-2.08-.34-.29-.65-.58-.96-.81l-.87-.6c-1.04-.71-1.63-1.09-1.65-1.06-.09.13 2.34 1.56 5.41 4.83 3.06 3.26 6.61 8.43 9.27 14.75 1.48 3.43 2.52 6.48 3.26 9.07.85 2.84 1.41 5.46 1.84 7.66.4 2.21.64 4.01.78 5.26.12 1.26.21 1.95.25 1.95zm-15.03 27.42l1.56 21.34h27.42l1.55-21.34z"/><path d="M32.63 409.77h36.45v8.41H32.63z"/></g><g class="T"><path d="M32.63 438.71v2.33h1.72 34.13v-2.33z"/><path d="M36.02 445.14l-1.67-4.1h32.83l-1.96 4.1z"/></g><path d="M65.31 425.16c.01.01-.04.07-.13.2l-.41.54-1.6 2.04-.07.09-.07-.1-3.92-5.43h.23l-3.86 5.47-.12.17-.14-.16-4.58-5.45h.26l-.25.32-4.1 5.14-.14.17-.13-.18-3.87-5.47.22.01-4.76 5.42-.08.1-.06-.11-1.49-2.5-.38-.67-.12-.24c.01 0 .06.07.16.21l.42.64 1.56 2.46-.15-.01 4.68-5.49.12-.14.11.15 3.9 5.44-.26-.01 4.09-5.14.25-.32.13-.16.13.16 4.57 5.46-.26.01 3.9-5.44.11-.16.11.16 3.84 5.49h-.14l1.66-1.99.44-.52c.13-.11.19-.17.2-.16z" class="S"/><path d="M66.2 418.04c0 .09-6.87.17-15.34.17-8.48 0-15.34-.08-15.34-.17s6.87-.17 15.34-.17l15.34.17z" class="T"/><g class="P"><path d="M67.58 441.27c0 .09-7.47.17-16.67.17-9.21 0-16.68-.08-16.68-.17s7.46-.17 16.68-.17l16.67.17zm324.13-245.71l-19.05 79.67h5.33l18.76-79.67z"/><path d="M384.39 248.03c-.34 1.46 8.63 44.88 8.63 44.88h-4.32l-6.77-34.41 2.46-10.47z"/></g><path d="M358.6 350.33h89.23v94.59H358.6z" class="Q"/><g class="P"><path d="M447.82 364.15h4.38v4.38h-4.38zm0 13.91h4.38v4.38h-4.38zm0 13.91h4.38v4.38h-4.38zm0 13.91h4.38v4.38h-4.38z"/><path d="M452.37 393.25c0-.03.47-.14 1.35-.3.87-.14 2.15-.35 3.75-.36 1.59 0 3.58.27 5.42 1.43.91.58 1.76 1.39 2.32 2.45.56 1.05.79 2.31.69 3.55-.1 1.25-.51 2.44-1.14 3.43-.63 1-1.44 1.81-2.31 2.44-1.74 1.27-3.64 1.83-5.22 2.06-1.59.24-2.89.19-3.77.13-.89-.07-1.37-.16-1.37-.19 0-.04.49-.02 1.38-.01.88 0 2.16-.01 3.7-.29 1.53-.27 3.35-.86 4.99-2.08 1.63-1.2 3.05-3.17 3.21-5.52.09-1.16-.12-2.31-.63-3.28-.5-.97-1.28-1.73-2.13-2.28-1.72-1.11-3.62-1.42-5.17-1.46-1.57-.04-2.84.11-3.72.19l-1.35.09z"/><path d="M451.28 379.42c-.01-.01.13-.11.42-.25.28-.15.72-.34 1.3-.52 1.15-.37 2.95-.71 5.13-.29.54.12 1.11.3 1.63.65.52.34.96.9 1.15 1.56.38 1.33-.06 2.84-1 3.99-.47.57-1.09 1.08-1.85 1.36-.74.29-1.67.29-2.42-.13-.73-.39-1.39-1.15-1.39-2.1 0-.94.62-1.75 1.42-2.17.81-.42 1.73-.43 2.55-.27.83.17 1.59.56 2.23 1.06 1.27 1.02 2.06 2.49 2.22 3.97.18 1.5-.36 2.92-1.14 3.96-.78 1.06-1.77 1.8-2.74 2.32-1.98 1-3.78 1.18-4.97 1.3l-1.39.07c-.32 0-.49-.01-.49-.02 0-.04.67-.09 1.86-.24 1.18-.17 2.94-.42 4.82-1.42.92-.51 1.85-1.25 2.57-2.25.72-.99 1.19-2.29 1.01-3.65-.16-1.35-.9-2.71-2.06-3.63a4.79 4.79 0 0 0-2.01-.95c-.74-.15-1.54-.12-2.21.22-.65.34-1.15 1.01-1.14 1.71-.01.69.5 1.33 1.11 1.65.62.35 1.35.35 2 .11s1.21-.68 1.65-1.2c.87-1.03 1.27-2.42.96-3.56-.31-1.17-1.45-1.75-2.45-1.97-2.08-.46-3.84-.18-4.99.12-1.17.3-1.76.62-1.78.57z"/><path d="M451.32 365.85c0-.02.33-.14.97-.18s1.58.01 2.68.38c1.08.37 2.33 1.07 3.33 2.25 1.01 1.16 1.67 2.83 1.73 4.6.05 1.78-.5 3.48-1.45 4.7-.93 1.24-2.13 2.01-3.19 2.45-1.07.43-2.01.54-2.65.54s-.98-.1-.98-.12c-.01-.12 1.45.15 3.49-.76.99-.46 2.1-1.22 2.95-2.39.86-1.15 1.36-2.74 1.31-4.4-.06-1.66-.65-3.21-1.58-4.31-.92-1.11-2.07-1.81-3.09-2.21-2.08-.79-3.53-.44-3.52-.55z"/><path d="M385.09 300.07s.35.57.75 1.77.83 3.01 1.18 5.37l.99 8.65c.32 3.38.6 7.23 1.14 11.45a55.14 55.14 0 0 0 .52 3.22c.22 1.08.48 2.2.96 3.22.51.97 1.35 1.87 2.19 2.7a16.83 16.83 0 0 0 2.89 2.23c2.11 1.3 4.58 2.19 7.2 2.45 2.61.27 5.41-.1 7.88-1.36 2.47-1.22 4.48-3.57 5.09-6.39.3-1.4.24-2.9-.3-4.25s-1.54-2.51-2.77-3.35c-1.24-.82-2.71-1.34-4.22-1.41-1.5-.06-3.05.34-4.27 1.26-.6.45-1.13 1.03-1.45 1.71s-.43 1.44-.28 2.18c.29 1.49 1.39 2.79 2.77 3.52 1.39.75 2.98 1.06 4.56 1.26 1.58.21 3.17.3 4.75.33 3.16.06 6.27-.2 9.31-.53 6.09-.68 11.96-1.66 17.64-1.72 5.65-.09 11.13.73 15.7 2.97 2.27 1.11 4.3 2.58 5.84 4.37 1.57 1.77 2.57 3.89 3.03 6 .92 4.25-.07 8.3-1.73 11.25-1.69 2.99-3.96 4.99-5.93 6.33-1.99 1.34-3.72 2.07-4.9 2.5-1.19.42-1.84.55-1.84.55s.15-.07.46-.17a30.07 30.07 0 0 0 1.34-.48c1.16-.46 2.87-1.21 4.82-2.57 1.93-1.35 4.15-3.35 5.79-6.31 1.61-2.92 2.55-6.89 1.63-11.03-.47-2.05-1.44-4.1-2.98-5.81-1.51-1.73-3.5-3.16-5.73-4.24-4.49-2.18-9.91-2.98-15.51-2.87-5.63.07-11.48 1.06-17.59 1.75-3.06.33-6.19.59-9.38.54-1.59-.03-3.2-.12-4.81-.33-1.6-.2-3.25-.51-4.74-1.32-1.48-.79-2.7-2.19-3.03-3.88-.17-.84-.04-1.74.32-2.5.37-.77.95-1.4 1.61-1.9 1.32-1 3-1.42 4.6-1.36 1.62.07 3.17.62 4.48 1.5 1.3.89 2.37 2.13 2.95 3.58.58 1.46.64 3.06.32 4.54-.65 2.99-2.78 5.45-5.36 6.71-2.58 1.31-5.46 1.68-8.15 1.39-2.7-.28-5.23-1.2-7.38-2.54-1.08-.67-2.07-1.44-2.95-2.29-.87-.87-1.69-1.74-2.26-2.83-.51-1.09-.76-2.22-.98-3.32a49.54 49.54 0 0 1-.51-3.25c-.52-4.24-.77-8.1-1.06-11.47-.28-3.38-.56-6.28-.9-8.64-.33-2.36-.72-4.17-1.08-5.37-.18-.6-.34-1.05-.47-1.34l-.15-.47zm57.66 140.89l-.01-.42-.01-1.21-.03-4.69-.06-17.72-.12-62.88.23.23-80.65.03h-.01l.26-.26-.04 86.92-.22-.22 58.45.11 16.39.06 4.33.03 1.49.02s-.49.02-1.45.02l-4.29.03-16.34.06-58.59.11h-.22v-.22l-.04-86.92v-.26h.26.01l80.65.03h.23v.23l-.12 63.03-.06 17.67-.03 4.64-.01 1.18v.4zm-22.72-76.23c0 .23-.19.41-.41.41a.42.42 0 0 1-.42-.41c0-.23.19-.41.42-.41s.41.19.41.41zm2.28 0c0 .23-.19.41-.41.41-.23 0-.41-.19-.41-.41 0-.23.19-.41.41-.41.23 0 .41.19.41.41zm2.28 0c0 .23-.19.41-.41.41a.42.42 0 0 1-.42-.41c0-.23.19-.41.42-.41s.41.19.41.41z"/><use xlink:href="#H"/><use xlink:href="#I"/><use xlink:href="#H" x="4.56"/><use xlink:href="#I" x="4.56"/><circle cx="432.24" cy="366.27" r=".41"/><circle cx="429.91" cy="366.27" r=".41"/><path d="M427.99 366.27c0 .23-.19.41-.41.41-.23 0-.41-.19-.41-.41 0-.23.19-.41.41-.41.23-.01.41.18.41.41z"/><circle cx="425.25" cy="366.27" r=".41"/><circle cx="422.91" cy="366.27" r=".41"/><path d="M421 366.27c0 .23-.19.41-.41.41-.23 0-.41-.19-.41-.41 0-.23.19-.41.41-.41.22-.01.41.18.41.41zm-.97 1.73c0 .23-.19.41-.41.41a.42.42 0 0 1-.42-.41c0-.23.19-.42.42-.42s.41.19.41.42zm2.28 0c0 .23-.19.41-.41.41-.23 0-.41-.19-.41-.41a.42.42 0 0 1 .41-.42c.23 0 .41.19.41.42zm2.28 0c0 .23-.19.41-.41.41a.42.42 0 0 1-.42-.41c0-.23.19-.42.42-.42s.41.19.41.42zm2.28 0c0 .23-.19.41-.42.41s-.41-.19-.41-.41a.42.42 0 0 1 .41-.42c.23 0 .42.19.42.42z"/><use xlink:href="#J"/><path d="M431.43 368c0 .23-.19.41-.42.41s-.41-.19-.41-.41a.42.42 0 0 1 .41-.42c.23 0 .42.19.42.42z"/><use xlink:href="#J" x="4.56"/><use xlink:href="#K"/><use xlink:href="#L"/><use xlink:href="#L" x="-2.33"/><use xlink:href="#L" x="-4.66"/><use xlink:href="#K" x="-9.33"/><use xlink:href="#K" x="-11.66"/><path d="M420.03 371.26a.42.42 0 0 1-.41.42c-.23 0-.42-.19-.42-.42s.19-.41.42-.41.41.18.41.41z"/><use xlink:href="#L" x="-8.01" y="1.73"/><path d="M424.59 371.26a.42.42 0 0 1-.41.42c-.23 0-.42-.19-.42-.42s.19-.41.42-.41.41.18.41.41zm2.28 0c0 .23-.19.42-.42.42s-.41-.19-.41-.42.19-.41.41-.41c.23 0 .42.18.42.41z"/><use xlink:href="#M"/><path d="M431.43 371.26c0 .23-.19.42-.42.42s-.41-.19-.41-.42.19-.41.41-.41c.23 0 .42.18.42.41z"/><use xlink:href="#M" x="4.56"/><circle cx="432.24" cy="372.8" r=".41"/><circle cx="429.91" cy="372.8" r=".41"/><path d="M427.99 372.8c0 .23-.19.41-.41.41-.23 0-.41-.19-.41-.41a.42.42 0 0 1 .41-.41c.23-.01.41.18.41.41z"/><circle cx="425.25" cy="372.8" r=".41"/><circle cx="422.91" cy="372.8" r=".41"/><path d="M421 372.8c0 .23-.19.41-.41.41-.23 0-.41-.19-.41-.41a.42.42 0 0 1 .41-.41c.22-.01.41.18.41.41z"/></g><g class="S"><path d="M388.5 271.29s.58-.04 1.62.28c1.03.31 2.53 1.05 3.94 2.58 1.43 1.51 2.62 3.81 3.48 6.6s1.66 6.03 2.19 9.66c1.11 7.27 1.27 16.06.64 25.75-.24 2.41-.76 4.98-2.24 7.14-.73 1.07-1.67 2.04-2.82 2.73-1.14.69-2.53 1.08-3.9.93-1.36-.14-2.71-.71-3.71-1.72-.49-.51-.88-1.13-1.09-1.82-.22-.7-.22-1.45-.03-2.15.38-1.39 1.38-2.63 2.79-3.14a3.29 3.29 0 0 1 2.21.01c.71.26 1.31.75 1.76 1.33.92 1.18 1.19 2.74.97 4.15-.2 1.42-.77 2.73-1.44 3.93-1.37 2.41-3.37 4.4-5.7 5.74-4.67 2.74-10.5 2.58-14.81.21-2.17-1.17-3.97-2.83-5.4-4.65-1.43-1.83-2.5-3.84-3.28-5.87-1.55-4.08-2-8.15-2.19-11.8-.2-3.67.01-7-.36-9.87-.18-1.43-.48-2.76-.93-3.91-.44-1.15-1.04-2.12-1.67-2.92-1.27-1.6-2.71-2.4-3.71-2.75-1.02-.35-1.6-.34-1.59-.38 0 0 .58-.04 1.62.28 1.03.31 2.51 1.11 3.83 2.72a11.35 11.35 0 0 1 1.75 2.96c.47 1.17.79 2.51.99 3.96.4 2.91.21 6.24.44 9.89.21 3.64.68 7.67 2.23 11.67.77 1.99 1.83 3.96 3.24 5.74 1.4 1.78 3.16 3.39 5.27 4.51 4.17 2.28 9.83 2.42 14.32-.23a15.05 15.05 0 0 0 5.5-5.56c.65-1.17 1.19-2.43 1.38-3.75.2-1.31-.05-2.71-.87-3.76-.4-.52-.93-.94-1.53-1.16-.6-.21-1.26-.22-1.86 0-1.21.43-2.14 1.56-2.46 2.79-.36 1.24.1 2.57.99 3.48s2.13 1.45 3.39 1.57c1.26.14 2.52-.21 3.59-.85 1.08-.64 1.97-1.55 2.66-2.57 1.41-2.06 1.93-4.54 2.17-6.91.66-9.64.54-18.41-.52-25.65-.51-3.62-1.28-6.85-2.11-9.63-.83-2.77-1.98-5.05-3.36-6.55-1.37-1.52-2.82-2.27-3.82-2.61-1-.36-1.58-.36-1.57-.4z"/><path d="M347.43 285.76h33.22v6.33h-33.22z"/></g><path d="M97.52 351.2h43.33v93.27H97.52z" class="P"/><path d="M137.13 434.65l-.02-.4-.02-1.16-.03-4.46-.07-16.66-.12-57.53.25.25-36.25.01h-.01l.26-.26-.07 80.22-.19-.19 26.47.1 7.23.05 1.89.02a7 7 0 0 1 .68.01l-.62.02-1.86.02-7.19.05-26.58.1h-.19v-.19l-.07-80.22v-.26h.26.01l36.25.01h.25v.25l-.12 57.7-.07 16.61-.03 4.41-.02 1.13-.02.37zm-2.24-73.43c-.01-.01-.03-.35-.05-.97l-.06-2.7.11.11-31.52.15h0c.12-.12-.26.26.26-.26h0 0v.01.01.03.06.12.24.47.93 1.81l-.26-.26 22.32.11 6.71.08 1.83.04c.42-.01.65 0 .66.02.01.01-.19.02-.59.04l-1.77.04-6.65.08-22.51.11h-.26v-.26-1.81-.93-.47-.24-.12-.06-.03-.01-.01h0 0l.26-.26h0l31.52.15h.12v.11l-.06 2.77-.06.9zm-28.35 2.64c0 .14-.65.26-1.45.26s-1.45-.12-1.45-.26.65-.26 1.45-.26 1.45.11 1.45.26zm27.51 4.81c0 .14-6.71.26-14.99.26s-14.99-.12-14.99-.26 6.71-.26 14.99-.26 14.99.12 14.99.26zm.13 5.81c0 .14-6.59.26-14.73.26s-14.73-.12-14.73-.26 6.59-.26 14.73-.26c8.13 0 14.73.12 14.73.26z" class="T"/><circle cx="119.06" cy="388.07" r="2.38" class="Q"/><path d="M112.34 387.96c0 .14-1.43.26-3.19.26s-3.19-.12-3.19-.26 1.43-.26 3.19-.26 3.19.11 3.19.26zm19.36-.62c0 .14-1.36.26-3.03.26-1.68 0-3.03-.12-3.03-.26s1.36-.26 3.03-.26 3.03.12 3.03.26z" class="T"/><g class="P"><path d="M99.01 398.01s-.57-.03-1.62-.3c-1.04-.28-2.58-.83-4.29-1.99-1.71-1.14-3.59-2.92-5.17-5.39-1.59-2.47-2.87-5.6-3.77-9.16-.91-3.56-1.51-7.61-1.2-11.95.29-4.31 1.62-8.97 4.55-12.93a20.42 20.42 0 0 1 5.43-5.16 18.01 18.01 0 0 1 3.49-1.73c1.24-.44 2.54-.74 3.86-.92 2.64-.37 5.35-.32 8.05-.48 2.69-.15 5.45-.58 7.91-1.82 2.46-1.2 4.39-3.41 4.91-6.04.6-2.59-.08-5.38-1.78-7.31-1.66-1.94-4.19-3.13-6.64-2.99-1.22.09-2.42.49-3.34 1.24-.92.73-1.48 1.88-1.4 3.02.16 2.3 2.27 4.22 4.46 4.31 2.23.15 4.32-1.04 5.72-2.57 1.41-1.58 2.22-3.53 2.77-5.43.54-1.91.87-3.81 1.15-5.61 1.02-7.25.67-13.22.53-17.31l-.24-4.72-.06-1.23c-.01-.28-.01-.42 0-.42s.03.14.05.42l.11 1.22.34 4.71c.21 4.09.61 10.06-.37 17.37-.27 1.82-.59 3.72-1.13 5.67-.55 1.93-1.36 3.94-2.83 5.61-1.46 1.61-3.65 2.89-6.07 2.74-2.41-.11-4.7-2.14-4.91-4.74-.1-1.3.54-2.61 1.57-3.42 1.02-.83 2.31-1.26 3.61-1.36 2.65-.16 5.29 1.1 7.06 3.15 1.81 2.04 2.53 5.03 1.9 7.76-.3 1.37-.91 2.69-1.84 3.78-.9 1.1-2.08 1.97-3.35 2.61-2.56 1.29-5.39 1.72-8.12 1.88s-5.42.11-8.01.46c-1.3.17-2.56.46-3.76.89-1.2.44-2.33 1.01-3.39 1.68a19.77 19.77 0 0 0-5.31 5.03c-2.88 3.87-4.2 8.43-4.51 12.68-.32 4.28.24 8.29 1.12 11.83.87 3.55 2.11 6.65 3.66 9.1 1.54 2.46 3.37 4.23 5.04 5.38 1.68 1.17 3.18 1.74 4.2 2.05.52.15.92.25 1.19.3.29.04.43.08.43.09zm-14.76-191.5h102.6v70.46H84.25z"/><path d="M127.62 267.36h13.97v26.58h-13.97z"/><path d="M94.46 292.92v9.56h52.94v142.46h4.87V302.48l221.09 1.09v141.37h4.78V303.31l34.12.27v-11.49z"/><path d="M128.34 300.62l20.87 15.03-1.81 1.74-21.05-15.85zm269.47 1.4l-24.22 17.25 1.82 1.74 24.39-18.07zm-226.37-12.63h54.72v4.03h-54.72z"/></g><defs ><path id="B" d="M176.78 142.08c0 .12-13.03.22-29.09.22-16.07 0-29.1-.1-29.1-.22s13.02-.22 29.1-.22l29.09.22z"/><path id="C" d="M340.74 36.21a.69.69 0 0 1-.68.69c-.38 0-.68-.31-.68-.69a.69.69 0 0 1 .68-.69.69.69 0 0 1 .68.69z"/><path id="D" d="M281.1 74.82c0 .1-14.59.19-32.58.19-18 0-32.59-.08-32.59-.19 0-.1 14.59-.19 32.59-.19l32.58.19z"/><path id="E" d="M55 217.88c0 .26-.24.47-.53.47s-.53-.21-.53-.47.24-.47.53-.47.53.21.53.47z"/><path id="F" d="M277.17 87.17c0 .39-.36.71-.8.71s-.8-.32-.8-.71.36-.71.8-.71c.44.01.8.32.8.71z"/><path id="G" d="M276.54 243.8c0 .21-21.62.37-48.29.37-26.68 0-48.3-.17-48.3-.37 0-.21 21.62-.37 48.3-.37l48.29.37z"/><path id="H" d="M426.87 364.73c0 .23-.19.41-.42.41s-.41-.19-.41-.41c0-.23.19-.41.41-.41a.42.42 0 0 1 .42.41z"/><path id="I" d="M429.15 364.73c0 .23-.19.41-.41.41a.42.42 0 0 1-.42-.41c0-.23.19-.41.42-.41a.42.42 0 0 1 .41.41z"/><path id="J" d="M429.15 368c0 .23-.19.41-.41.41a.42.42 0 0 1-.42-.41c0-.23.19-.42.42-.42a.42.42 0 0 1 .41.42z"/><path id="K" d="M432.66 369.53a.42.42 0 0 1-.41.42c-.23 0-.41-.19-.41-.42s.19-.41.41-.41.41.18.41.41z"/><path id="L" d="M430.32 369.53a.42.42 0 0 1-.41.42c-.23 0-.41-.19-.41-.42s.19-.41.41-.41c.23 0 .41.18.41.41z"/><path id="M" d="M429.15 371.26a.42.42 0 0 1-.41.42c-.23 0-.42-.19-.42-.42s.19-.41.42-.41c.22 0 .41.18.41.41z"/></defs></svg>