<svg xmlns="http://www.w3.org/2000/svg" xmlns:xlink="http://www.w3.org/1999/xlink" viewBox="0 0 750 500" xmlns:v="https://vecta.io/nano"><style><![CDATA[.N{fill:#263238}.O{fill:#ff725e}.P{fill:#e0e0e0}.Q{fill:#455a64}.R{fill:#fafafa}.S{opacity:.3}.T{fill:#ebebeb}]]></style><path d="M24.1 79.59h152.3v101.97H24.1z" fill="#fff"/><g class="P"><path d="M176.39 181.57l-.02-1.85-.02-5.38-.06-20.51-.11-74.23.22.22-152.28.05h-.02l.27-.27-.02 101.97-.25-.25 109.72.12 31.35.07 8.34.03 2.15.01.73.02s-.23.01-.71.01l-2.12.01-8.29.03-31.29.07-109.88.12h-.25v-.25l-.02-101.97v-.27h.27.01l152.28.05h.22v.22l-.11 74.36-.06 20.46-.02 5.34-.03 1.82z"/><path d="M24.1 88.69c0-.15 34.07-.27 76.08-.27l76.09.27c0 .15-34.06.27-76.09.27-42.02.01-76.08-.11-76.08-.27z"/><path d="M30.1 84.1c0 .67-.55 1.22-1.22 1.22s-1.22-.55-1.22-1.22.55-1.22 1.22-1.22a1.22 1.22 0 0 1 1.22 1.22zm4.19 0c0 .67-.55 1.22-1.22 1.22s-1.22-.55-1.22-1.22.55-1.22 1.22-1.22 1.22.55 1.22 1.22zm4.12 0c0 .67-.55 1.22-1.22 1.22s-1.22-.55-1.22-1.22.55-1.22 1.22-1.22 1.22.55 1.22 1.22z" class="S"/><path d="M37.19 99.33h40.62v40.62H37.19z"/><use xlink:href="#B"/><use xlink:href="#B" y="7.55"/><use xlink:href="#B" y="15.1"/><path d="M126.56 133.46c0 .04-.59.07-1.64.11l-4.48.09-14.79.08c-5.78 0-11.01-.03-14.79-.08l-4.48-.09c-1.06-.03-1.64-.07-1.64-.11s.59-.07 1.64-.11l4.48-.09 14.79-.08 14.79.08 4.48.09c1.06.04 1.64.07 1.64.11zm-86.83 20.19h19.09v19.09H39.73zm34.62 0h19.09v19.09H74.35zm34.63 0h19.09v19.09h-19.09zm34.62 0h19.09v19.09H143.6z"/></g><path d="M198.87 30.04h131.19v53.29H198.87z" fill="#fff"/><g class="P"><path d="M330.06 83.33l-.02-.95-.02-2.76-.04-10.6-.08-38.97.15.15-131.18.06h-.01l.21-.21-.01 53.29-.2-.2 94.06.09 27.29.06 7.3.03 1.89.01h.66s-.21.01-.62.01l-1.87.01-7.26.03-27.24.06-94.19.09h-.2v-.2l-.01-53.29v-.21h.21.01l131.18.06h.15v.15l-.08 39.05-.04 10.57-.02 2.74-.02.93z"/><path d="M199 37.23c0-.11 29.32-.21 65.49-.21l65.49.21c0 .11-29.32.21-65.49.21s-65.49-.1-65.49-.21z"/></g><g class="T"><path d="M204.49 34.01a.95.95 0 1 1-.95-.95c.52 0 .95.43.95.95zm3.26 0a.95.95 0 0 1-1.9 0 .95.95 0 0 1 1.9 0z" class="S"/><circle cx="210.02" cy="34.01" r=".95" class="S"/></g><g class="P"><path d="M210.02 45.89h31.69v31.69h-31.69zm110.96 8.49c0 .11-16.31.21-36.42.21-20.12 0-36.42-.09-36.42-.21s16.3-.21 36.42-.21l36.42.21zm0 6.46c0 .11-16.31.21-36.42.21-20.12 0-36.42-.09-36.42-.21 0-.11 16.3-.21 36.42-.21l36.42.21zm-25.95 6.45c0 .01-.16.03-.48.04l-1.37.04-5.02.07-16.58.06-16.58-.06-5.02-.07-1.37-.04c-.31-.01-.48-.03-.48-.04s.16-.03.48-.04l1.37-.04 5.02-.07 16.58-.06 16.58.06 5.02.07 1.37.04c.32.01.48.03.48.04zm388.99 33.87c-.02-.03.24-.32.74-.84l2.16-2.17 7.24-7.01.06-.06v.37l-7.29-6.87-2.17-2.12-.75-.83s.34.22.88.69l2.28 2.01 7.39 6.76.2.18-.19.18-.06.06-7.34 6.9-2.27 2.05-.88.7zm-22.15-19.54c.02.03-.24.32-.74.84l-2.16 2.17-7.24 7.01-.06.06v-.37l7.29 6.87 2.17 2.12.75.83s-.34-.22-.88-.68l-2.28-2.01-7.39-6.76-.2-.18.19-.18.06-.06 7.34-6.9 2.27-2.05.88-.71zm5.69 24.14c-.13-.05 2.2-6.58 5.19-14.6l5.66-14.42c.13.05-2.2 6.58-5.19 14.6-3 8.01-5.54 14.47-5.66 14.42zm41.63 13.98l-.02-1.09-.02-3.14-.05-11.91-.11-42.56.21.21-72.04.04h-.01l.25-.25-.03 58.71-.22-.22 52.03.11 14.75.06 3.91.03 1.01.01h.34s-.11.01-.33.01l-.99.01-3.87.03-14.7.06-52.17.11h-.22v-.22l-.03-58.71v-.25h.25.01l72.04.04h.21v.21l-.11 42.69-.05 11.86-.02 3.1-.02 1.06z"/><path d="M709.76 69.75c0 .14-16.26.25-36.32.25s-36.32-.11-36.32-.25 16.26-.25 36.32-.25l36.32.25z"/><use xlink:href="#C"/><path d="M646.56 65.46c0 .54-.43.97-.97.97a.97.97 0 0 1-.97-.97c0-.54.43-.97.97-.97a.98.98 0 0 1 .97.97z"/><use xlink:href="#C" x="7.07"/></g><path d="M692.59 377.9c4.16-2.15 9.07-2.43 13.69-1.66 2.48.41 5.07 1.15 6.76 3.02s2.01 5.15.07 6.75c-1.16.95-2.77 1.1-4.26 1.08-3.62-.04-7.63-.68-10.52 1.5-1.65 1.24-2.75 3.31-4.72 3.92-1.93.6-4.11-.54-5.13-2.28s-1.06-3.92-.58-5.88c-.01-.01.5-4.29 4.69-6.45zm-9.54-18.41c2.55 3.64 7.49 2.43 9.79.21 2.29-2.22 3.26-5.44 4.15-8.5 2.02-7.01 4.05-14.36 2.55-21.5-.45-2.13-1.25-4.26-2.75-5.84s-3.8-2.52-5.91-1.97c-2.49.66-4.05 3.1-5.17 5.43a51.22 51.22 0 0 0-5.06 21.99c-.01 3.54.4 7.25 2.4 10.18m-6.99 5.21c2.76-3.28 3.29-8.07 2.06-12.17-1.23-4.11-4.01-7.61-7.21-10.46-3.75-3.35-8.17-5.95-12.91-7.62-1.87-.66-3.84-1.17-5.81-.99-1.97.19-3.95 1.2-4.87 2.95-1.36 2.59-.06 5.74 1.35 8.3a98.45 98.45 0 0 0 8.48 12.92c2.54 3.28 5.45 6.51 9.33 7.99 3.87 1.48 7.9 1.31 9.95-1.38" class="T"/><g class="P"><path d="M682.88 414.34c.05 0 .12-.59.23-1.65l.44-4.51 1.01-6.61c.53-2.45 1.35-5.11 2.4-7.81 1.09-2.68 2.43-5.12 3.99-7.06 1.55-1.96 3.35-3.37 5.04-4.19 1.69-.83 3.2-1.17 4.24-1.32l1.64-.24c0-.05-.59-.05-1.67-.03-1.07.07-2.65.34-4.43 1.15-1.78.79-3.69 2.23-5.32 4.23-1.64 1.99-3.02 4.48-4.13 7.21-1.07 2.74-1.88 5.43-2.39 7.93-.5 2.5-.73 4.78-.88 6.7l-.22 4.54.05 1.66z"/><path d="M683.19 410.87c.02 0 .04-.27.04-.77l-.01-2.19.1-8.06c.17-6.8.75-14.12 1.88-24.44 1.07-9.7 2.51-20.99 4.02-28.33.33-1.67.65-3.17.96-4.49l.79-3.38.51-2.13c.11-.49.16-.75.13-.76-.02-.01-.11.24-.27.72l-.64 2.1c-.28.91-.57 2.04-.9 3.35a96.26 96.26 0 0 0-1.06 4.48c-1.5 6.65-3.09 15.95-4.23 26.29-1.13 10.34-1.64 19.75-1.69 26.57-.04 3.41.03 6.17.12 8.07l.13 2.19c.07.52.1.78.12.78z"/><path d="M683.24 392.71c.05 0 .04-.82-.02-2.29-.08-1.47-.29-3.6-.7-6.2-.44-2.6-1.05-5.69-2.02-9.04-.42-1.53-1.4-5.21-3.78-10.7-3.14-7.44-7.4-13.52-11.1-17.29-.87-1-1.84-1.72-2.61-2.43-.4-.34-.75-.68-1.12-.94l-1.01-.7c-1.22-.83-1.9-1.27-1.93-1.23-.11.15 2.73 1.82 6.32 5.64 3.57 3.81 7.71 9.85 10.82 17.22 1.73 4 2.94 7.57 3.8 10.6.99 3.32 1.65 6.38 2.15 8.95a89.32 89.32 0 0 1 .91 6.14c.14 1.46.24 2.27.29 2.27zm-17.55 32.03l1.82 24.92h32.02l1.82-24.92z"/><path d="M662.59 414.91h42.57v9.82h-42.57z"/></g><path d="M662.59 448.71v2.72h2 39.87v-2.72z" class="T"/><path d="M666.55 456.23l-1.96-4.8h38.35l-2.29 4.8z" class="P"/><path d="M700.75 432.88c.01.01-.04.08-.15.23l-.48.63-1.87 2.39-.08.11-.08-.11-4.58-6.34h.26l-4.51 6.39-.14.2-.16-.19-5.35-6.37h.31l-.29.37-4.78 6-.16.2-.15-.21-4.51-6.39.26.01-5.56 6.33-.1.11-.08-.13-1.74-2.92-.45-.78-.14-.28c.01-.01.07.08.19.25l.49.75 1.83 2.87-.17-.01 5.47-6.41.14-.16.12.17 4.55 6.36-.31-.01 4.77-6.01.29-.37.15-.19.16.19 5.34 6.38-.3.01 4.56-6.36.13-.19.13.19 4.49 6.41h-.16l1.94-2.33.52-.6.2-.19zm1.04-8.31c0 .11-8.02.2-17.92.2s-17.92-.09-17.92-.2 8.02-.2 17.92-.2l17.92.2zm1.62 27.13c0 .11-8.72.2-19.47.2-10.76 0-19.48-.09-19.48-.2s8.72-.2 19.48-.2l19.47.2z" fill="#f5f5f5"/><g class="Q"><path d="M612.2 451.52H115.96a14.57 14.57 0 0 1-14.57-14.57v-325.1a7.75 7.75 0 0 1 7.75-7.75h510.89c3.72 0 6.74 3.02 6.74 6.74v326.12c0 8.04-6.52 14.56-14.57 14.56z"/><path d="M634.91 456.23H93.14a13.72 13.72 0 0 1-13.72-13.72v-16.68h569.21v16.68c0 7.57-6.15 13.72-13.72 13.72z"/></g><path d="M115.49 117.9h495.7v293.4h-495.7z" class="P"/><path d="M312.29 425.83l7.06 11.23h99.39l6.56-11.23zM130.2 134.9h467.48v276.4H130.2z" class="N"/><g class="P"><path d="M166.07 403.18c-.24 0-.44-58.87-.44-131.47l.44-131.48c.24 0 .44 58.86.44 131.48l-.44 131.47z"/><use xlink:href="#D"/><use xlink:href="#D" x="0.58" y="-14.92"/><use xlink:href="#D" y="16.08"/><use xlink:href="#E"/><use xlink:href="#F"/><use xlink:href="#D" y="64.33"/><use xlink:href="#D" y="80.41"/><use xlink:href="#E" y="64.33"/><use xlink:href="#F" y="64.33"/><use xlink:href="#D" y="128.66"/><use xlink:href="#D" y="144.74"/><use xlink:href="#E" y="128.66"/><use xlink:href="#F" y="128.66"/><use xlink:href="#D" y="192.99"/><use xlink:href="#D" y="209.07"/><use xlink:href="#D" y="225.15"/></g><g class="O"><use xlink:href="#G"/><use xlink:href="#G" y="226.1"/><use xlink:href="#H"/></g><g class="P"><use xlink:href="#H" x="85.28"/><use xlink:href="#I"/><use xlink:href="#I" y="16.08"/><use xlink:href="#I" x="74.81" y="64.33"/><use xlink:href="#I" x="42.52" y="32.16"/><use xlink:href="#I" x="175.33" y="32.16"/></g><g class="R"><use xlink:href="#I" x="129.15"/><use xlink:href="#I" x="204.22" y="64.33"/></g><use xlink:href="#J" class="Q"/><g class="R"><use xlink:href="#G" y="17.03"/><use xlink:href="#G" y="210.02"/><use xlink:href="#G" x="19.53" y="81.36"/></g><g class="O"><use xlink:href="#G" x="335.42" y="81.36"/><use xlink:href="#H" y="112.49"/></g><g class="P"><use xlink:href="#H" x="85.28" y="112.49"/><use xlink:href="#I" y="112.48"/><use xlink:href="#I" y="128.56"/><use xlink:href="#I" x="42.52" y="144.64"/><use xlink:href="#I" x="175.33" y="144.64"/></g><use xlink:href="#I" x="129.15" y="112.48" class="R"/><use xlink:href="#J" y="112.48" class="Q"/><use xlink:href="#K" class="R"/><use xlink:href="#K" x="315.89" class="O"/><path d="M563.44 435.98c0 .14-100.64.26-224.76.26-124.16 0-224.78-.12-224.78-.26s100.62-.26 224.78-.26l224.76.26z" class="N"/><g class="O"><path d="M97.07 347.83c-13.79-14.11-35.39-20.04-54.45-14.94 16.56 11.1 35.16 17.05 55.09 17.21M78.6 282.43c2.27-16.04-3.97-34.1-15.98-45.76-.39 15.9 6.32 33.79 15.98 45.76"/><path d="M88.21 312.74c-8.56-16.36-22.61-29.79-39.35-37.6 5.02 18.47 20.82 33.59 39.5 37.78m1.84 5.66c-9.69.27-19.5-.07-28.87-2.55s-18.35-7.25-24.59-14.67c18.85.02 37.66 5.76 53.31 16.27m-4.77-18.31c4.92-18.44 13.04-31.19 27.53-41.52 1.1 8.97-1.11 18.31-6.1 25.84-5 7.53-12.74 13.2-21.43 15.68m36.58 31.8c.25-10.71-6.65-21.24-16.58-25.28.81 9.52 8.29 20.53 16.58 25.28m4.63-15.55c1.1-15.4 12.04-29.65 26.64-34.69-3.35 15.41-12.25 28.24-26.64 34.69m-6.98 27.59c3.42-4.89 8.99-7.93 14.77-9.44s11.8-1.64 17.76-1.77c-8.05 8.85-20.13 13.88-32.08 13.36m-7.37 37.14c10.75-3.32 22.73-2.46 32.9 2.36s18.42 13.54 22.66 23.97c-20.18-3.83-40.1-12.8-55.56-26.33M90.44 368.8c3.35 9.91 2.71 21.89-4.74 30.43-3.04-10.17-1.25-21.67 4.74-30.43m-13.1-5.51c-.93 12.74-9.08 24.71-20.59 30.26-.57.28-1.23.54-1.82.3-.91-.37-.99-1.61-.88-2.58 1.46-12.7 10.87-24.99 23.29-27.98M68.79 362c-5.67 6.13-13.94 9.77-22.29 9.81s-16.65-3.51-22.38-9.58c14.2-1.55 30.58-2.59 44.67-.23"/></g><g class="N"><path d="M66.66 248.49c-.01 0 .04.14.13.42l.43 1.2 1.71 4.6L71.6 262l1.64 4.56 1.77 5.14c2.52 7.19 5.31 15.82 8.32 25.43a1037.6 1037.6 0 0 1 9.13 31.46c3.02 11.23 5.69 21.97 7.97 31.78 2.21 9.82 4.12 18.69 5.49 26.19l1.01 5.34.81 4.78 1.25 7.66.74 4.85.21 1.26c.05.28.08.43.09.43s0-.15-.03-.43l-.15-1.27-.64-4.86c-.26-2.12-.67-4.69-1.16-7.68l-.77-4.79-.97-5.35c-1.33-7.51-3.19-16.39-5.38-26.23-2.25-9.82-4.91-20.58-7.93-31.82a939.42 939.42 0 0 0-9.18-31.47l-8.44-25.41-1.81-5.13-1.68-4.55-2.75-7.26-1.81-4.56-.48-1.18c-.12-.27-.18-.4-.19-.4z"/><path d="M144.66 289.11c-.01-.01-.09.07-.24.23l-.68.71-2.52 2.82c-2.14 2.49-5.17 6.19-8.36 11.15-3.19 4.94-6.46 11.23-8.74 18.7-2.34 7.44-3.8 15.91-5.24 24.75-2.89 17.7-6.43 33.56-8.99 45.03l-3.08 13.58-.82 3.7-.2.96c-.04.22-.06.33-.05.33s.04-.11.1-.32l.25-.95.92-3.67 3.24-13.54c2.66-11.45 6.27-27.31 9.16-45.03 1.45-8.85 2.88-17.28 5.19-24.69 2.24-7.43 5.45-13.69 8.59-18.64 3.14-4.96 6.11-8.69 8.2-11.22l2.44-2.89.64-.75c.12-.16.19-.25.19-.26zM64.55 361.4c0 .02.18.05.51.09l1.47.16 1.06.1 1.26.19 3.05.51 1.76.35 1.89.48c1.31.3 2.67.78 4.12 1.21 2.85 1 5.93 2.29 8.99 3.96 3.05 1.7 5.75 3.65 8.06 5.6l3.09 2.97c.96.95 1.73 1.93 2.45 2.82.75.86 1.28 1.76 1.81 2.5.54.73.93 1.42 1.24 1.97l.75 1.27c.18.29.28.44.3.43s-.05-.17-.2-.48l-.67-1.33c-.29-.58-.65-1.28-1.17-2.04-.51-.76-1.02-1.68-1.76-2.57l-2.42-2.9c-.89-1.03-1.97-2-3.09-3.04-2.31-1.99-5.04-3.98-8.13-5.7-3.1-1.69-6.21-2.98-9.09-3.96l-4.17-1.18-1.91-.45-1.78-.32c-1.13-.23-2.17-.33-3.08-.44l-1.27-.14-1.07-.06-1.48-.06-.52.06zm-4.05-71.95c-.02.03.34.38 1.02.99l2.92 2.53 9.77 8.21 9.88 8.09 3.03 2.4 1.16.82c.02-.03-.34-.38-1.03-.99l-2.92-2.54-9.77-8.21-9.87-8.08-3.03-2.4-1.16-.82zm-3.49 18.78c-.04.14 7.41 2.47 16.65 5.2l16.81 4.68c.04-.14-7.41-2.47-16.65-5.2s-16.76-4.82-16.81-4.68z"/><path d="M84.54 300.75c.03.02.3-.36.77-1.07l1.97-2.99c1.67-2.52 4.03-5.96 6.83-9.63a184.83 184.83 0 0 1 7.49-9.13l2.36-2.69c.56-.64.85-1 .82-1.03s-.37.29-.98.88-1.46 1.47-2.49 2.58c-2.07 2.22-4.82 5.38-7.63 9.06s-5.14 7.17-6.72 9.75c-.79 1.29-1.42 2.35-1.82 3.09-.42.75-.63 1.16-.6 1.18zm25.89 10.43c-.07.05.64 1.13 1.75 2.88l4.19 6.93 3.82 7.15 1.58 2.97c.06-.03-.38-1.24-1.23-3.14s-2.12-4.49-3.69-7.25l-4.34-6.88-2.08-2.66zm8.86 32.49c.04.07 1.46-.62 3.79-1.67l9.25-3.71 9.54-2.87 4-1.06c-.01-.04-.4.01-1.11.12l-2.98.57c-2.51.54-5.94 1.44-9.63 2.73-3.69 1.3-6.94 2.73-9.24 3.87-1.15.57-2.06 1.06-2.69 1.41-.61.36-.95.58-.93.61zm-6.97 38.84c0 .02.15.07.46.16l1.34.34 4.96 1.14c4.18.97 10 2.19 16.2 4.27 6.19 2.11 11.51 4.79 15.11 7.1 1.81 1.15 3.21 2.17 4.16 2.9s1.47 1.14 1.5 1.11c.01-.01-.1-.14-.33-.35s-.57-.54-1.04-.92c-.91-.79-2.29-1.86-4.09-3.06-3.58-2.41-8.91-5.17-15.14-7.29-6.24-2.1-12.09-3.26-16.29-4.14l-5-.98c-1.18-.21-1.83-.31-1.84-.28zm-25.22 9.58c.15.02 1.04-5.21 1.98-11.68.95-6.47 1.59-11.74 1.45-11.76-.15-.02-1.04 5.21-1.98 11.68-.95 6.47-1.6 11.74-1.45 11.76zm-26.26-9.53c.06.05.95-1.04 2.37-2.81l5.61-6.85 5.78-6.7 2.36-2.81c-.03-.03-.29.2-.75.64l-1.89 1.91-5.91 6.61-5.5 6.96-1.56 2.19-.51.86z"/></g><path d="M130.33 406.91v12.97h-3.25l-11.53 36.4H89.98l-11.17-36.04-4.33-.36v-12.97z" class="O"/><path d="M130.33 406.91v12.97h-3.25l-11.53 36.4H89.98l-11.17-36.04-4.33-.36v-12.97z" class="S"/><path d="M76.64 420.24c0 .15 11.29.27 25.22.27l25.22-.27c0-.15-11.29-.27-25.22-.27l-25.22.27zm-18.39-83.45c-.01.04.58.19 1.64.44l4.49 1.08a193.25 193.25 0 0 1 14.61 4.25A190.89 190.89 0 0 1 93.2 348l4.23 1.85 1.57.64c.02-.03-.51-.33-1.48-.83l-4.17-2.01c-3.55-1.63-8.54-3.7-14.2-5.61-5.65-1.9-10.88-3.27-14.7-4.11-1.91-.42-3.46-.73-4.53-.92-1.06-.17-1.66-.26-1.67-.22z" class="N"/><path d="M85.13 440.45c0 .15 7.92.27 17.69.27s17.69-.12 17.69-.27-7.92-.27-17.69-.27c-9.76 0-17.69.12-17.69.27zm-.99-3.01c0 .15 8.4.27 18.75.27l18.75-.27c0-.15-8.39-.27-18.75-.27-10.35 0-18.75.12-18.75.27z" class="R"/><path d="M709.46 456.48c0 .14-152.44.26-340.44.26-188.07 0-340.47-.12-340.47-.26s152.41-.26 340.47-.26l340.44.26z" class="N"/><path d="M616.04 76.12H348.05v165.97h225.6l13.97 32.13L600 242.09h16.04z" class="R"/><g class="N"><path d="M616.04 76.12l.2 165.97v.2h-.2l-16.04.01.19-.13-12.37 32.14-.19.5-.22-.5-13.98-32.13.21.14-204.02.03h-21.58-.26v-.26l.02-165.97v-.24h.24l268 .24-267.99.24.24-.24.02 165.97-.26-.26h21.58l204.02.03h.15l.06.14 13.96 32.14-.41.01 12.39-32.13.05-.13h.14l16.04.01-.2.2.21-165.98zm-.14 16.2c0 .2-59.87.37-133.71.37-73.87 0-133.73-.16-133.73-.37 0-.2 59.86-.37 133.73-.37l133.71.37zm-253.61-7.33a2.2 2.2 0 1 1-4.4 0 2.2 2.2 0 0 1 4.4 0zm7.95 0a2.2 2.2 0 1 1-4.4 0 2.2 2.2 0 0 1 4.4 0zm7.95 0a2.2 2.2 0 1 1-4.4 0 2.2 2.2 0 0 1 4.4 0zm-.91 37.02l-6.36 2.46 6.36 2.46v1.49l-8.03-3.17v-1.54l8.03-3.17v1.47zm6.62-6.36h1.56l-5.92 16.89h-1.56l5.92-16.89zm10.13 8.05v1.54l-8.03 3.17v-1.49l6.38-2.46L386 122v-1.49l8.03 3.19zm2.03 5.91c0-.72.56-1.22 1.22-1.22.65 0 1.18.5 1.18 1.22s-.54 1.24-1.18 1.24c-.66 0-1.22-.52-1.22-1.24z"/><use xlink:href="#L"/><use xlink:href="#L" x="4.07"/></g><path d="M546.5 145.71c0 .2-39.62.37-88.47.37-48.87 0-88.48-.16-88.48-.37s39.61-.37 88.48-.37l88.47.37z" class="Q"/><path d="M575.4 146.23c0 .2-3.81.37-8.5.37-4.7 0-8.5-.16-8.5-.37 0-.2 3.81-.37 8.5-.37l8.5.37zm24.85 0c0 .2-4.16.37-9.29.37s-9.29-.16-9.29-.37c0-.2 4.16-.37 9.29-.37l9.29.37z" class="N"/><path d="M482.23 160.62c0 .2-25.18.37-56.23.37-31.06 0-56.24-.16-56.24-.37 0-.2 25.17-.37 56.24-.37l56.23.37zm-.81 55.63c0 .2-25.18.37-56.23.37-31.06 0-56.24-.16-56.24-.37 0-.2 25.17-.37 56.24-.37l56.23.37z" class="Q"/><path d="M523.09 160.62c0 .2-6.85.37-15.3.37s-15.3-.16-15.3-.37c0-.2 6.85-.37 15.3-.37s15.3.16 15.3.37zm-.32 55.63c0 .2-6.85.37-15.3.37s-15.3-.16-15.3-.37c0-.2 6.85-.37 15.3-.37s15.3.17 15.3.37z" class="N"/><path d="M377.14 168.2c0 .2-1.7.37-3.79.37s-3.79-.16-3.79-.37c0-.2 1.7-.37 3.79-.37 2.09.01 3.79.17 3.79.37z" class="O"/><path d="M403.29 168.36c0 .2-3.69.37-8.24.37s-8.24-.16-8.24-.37 3.69-.37 8.24-.37l8.24.37zm16.74 0c0 .2-3.16.37-7.06.37s-7.06-.16-7.06-.37 3.16-.37 7.06-.37 7.06.17 7.06.37zm21.19 0c0 .2-3.22.37-7.19.37s-7.19-.16-7.19-.37 3.22-.37 7.19-.37 7.19.17 7.19.37zm18.57 0c0 .2-2.93.37-6.54.37s-6.54-.16-6.54-.37 2.93-.37 6.54-.37 6.54.17 6.54.37zm61.47 0c0 .2-12.88.37-28.77.37s-28.77-.16-28.77-.37 12.88-.37 28.77-.37l28.77.37z" class="N"/><path d="M376.09 177.88c0 .2-1.46.37-3.27.37s-3.27-.16-3.27-.37 1.46-.37 3.27-.37 3.27.17 3.27.37zm.26 9.94c0 .2-1.52.37-3.4.37s-3.4-.16-3.4-.37c0-.2 1.52-.37 3.4-.37s3.4.17 3.4.37zm0 11.25c0 .2-1.52.37-3.4.37s-3.4-.16-3.4-.37c0-.2 1.52-.37 3.4-.37s3.4.16 3.4.37z" class="O"/><path d="M438.34 198.54c0 .2-11.36.37-25.37.37-14.02 0-25.37-.16-25.37-.37s11.36-.37 25.37-.37l25.37.37zm-4.44-10.72c0 .2-10.83.37-24.19.37-13.37 0-24.2-.16-24.2-.37 0-.2 10.83-.37 24.2-.37 13.35 0 24.19.17 24.19.37zm116.92-10.46c0 .2-36.89.37-82.39.37-45.51 0-82.4-.16-82.4-.37s36.88-.37 82.4-.37l82.39.37z" class="N"/><path d="M632.5 144v141.04l-21.93 18.29h21.93 2.16 90.6V144z" class="R"/><g class="N"><path d="M632.5 144l1.62-.02 4.8-.02 18.47-.05 67.87-.1h.2v.2l.06 159.34v.26h-.26-16.08l-98.6-.02h-.67l.51-.43 21.94-18.29-.08.18.12-102.2.06-28.7.03-7.56.01-1.93V144s.01.23.01.67l.01 1.96.03 7.6.06 28.75.12 102.05v.11l-.08.07-21.92 18.31-.16-.43 98.6-.02h16.08l-.26.26.06-159.34.2.2-67.75-.1-18.51-.05-4.83-.02-1.66-.02z"/><use xlink:href="#M"/><use xlink:href="#M" x="6.8"/><use xlink:href="#M" x="13.6"/></g><path d="M699.76 194.47c0 .17-11.76.3-26.26.3-14.51 0-26.26-.13-26.26-.3s11.76-.3 26.26-.3l26.26.3zm10.96 12.76c0 .17-14.31.3-31.96.3-17.66 0-31.96-.13-31.96-.3s14.31-.3 31.96-.3l31.96.3zm2.6 47.6c0 .17-15.26.3-34.08.3-18.83 0-34.08-.13-34.08-.3s15.26-.3 34.08-.3l34.08.3zm-61.16-41.11c0 .17-1.45.3-3.25.3-1.79 0-3.25-.13-3.25-.3s1.45-.3 3.25-.3 3.25.13 3.25.3zm22.39.13c0 .17-3.16.3-7.05.3s-7.05-.13-7.05-.3 3.16-.3 7.05-.3l7.05.3zm14.32 0c0 .17-2.71.3-6.04.3-3.34 0-6.04-.13-6.04-.3s2.71-.3 6.04-.3c3.34 0 6.04.14 6.04.3zm-37.6 8.15c0 .17-1.25.3-2.8.3s-2.8-.13-2.8-.3 1.25-.3 2.8-.3 2.8.13 2.8.3zm.22 8.51c0 .17-1.3.3-2.91.3s-2.91-.13-2.91-.3 1.3-.3 2.91-.3c1.61-.01 2.91.13 2.91.3zm0 9.62c0 .17-1.3.3-2.91.3s-2.91-.13-2.91-.3 1.3-.3 2.91-.3 2.91.13 2.91.3zm53.05-.45c0 .17-9.72.3-21.71.3s-21.71-.13-21.71-.3 9.72-.3 21.71-.3l21.71.3zm-3.81-9.17c0 .17-9.27.3-20.7.3-11.44 0-20.7-.13-20.7-.3s9.27-.3 20.7-.3c11.43-.01 20.7.13 20.7.3zm-45 37.03c0 .17-1.3.3-2.91.3s-2.91-.13-2.91-.3 1.3-.3 2.91-.3 2.91.13 2.91.3zm0 9.63c0 .17-1.3.3-2.91.3s-2.91-.13-2.91-.3 1.3-.3 2.91-.3c1.61-.01 2.91.13 2.91.3zm53.05-.45c0 .17-9.72.3-21.71.3s-21.71-.13-21.71-.3 9.72-.3 21.71-.3l21.71.3zm-3.81-9.18c0 .17-9.27.3-20.7.3-11.44 0-20.7-.13-20.7-.3s9.27-.3 20.7-.3l20.7.3zm11.16-45.99c0 .17-12.62.3-28.18.3s-28.18-.13-28.18-.3 12.61-.3 28.18-.3l28.18.3z" class="O"/><path d="M724.39 158.38c0 .17-20.37.3-45.49.3-25.13 0-45.49-.13-45.49-.3s20.36-.3 45.49-.3l45.49.3z" class="N"/><path d="M666.43 186.78c0 .17-4.3.3-9.61.3s-9.61-.13-9.61-.3 4.3-.3 9.61-.3l9.61.3zm-10.88-17.41c0 .17-2.03.3-4.53.3s-4.53-.13-4.53-.3 2.03-.3 4.53-.3 4.53.14 4.53.3zm-80.28 205.39l20.14-19.91-35.92-61.51a34.62 34.62 0 0 0-13.79-9.59l-12.65-4.81-31.45-5.77-22.33 8.79c-5.64 2.22-9.08 7.97-8.36 14l5.84 49.16 3.44 64.01 81.13-14.07-8.16-23.68.27-36.91 21.84 40.29z" class="O"/><path d="M553.91 369.82c.19 0 .24-12.79.11-28.56l-.58-28.56c-.19 0-.24 12.79-.11 28.56l.58 28.56z" class="N"/><path d="M550.94 379.2l-49.02-19.73a11.22 11.22 0 0 1-6.99-9.54l-3.59-47s.42-19.99-12.06-20.96l-7.1 2.8c-9.18 4.88-11.45 18.24-10.2 28.56 1.78 14.66 2.52 35.41 4.5 48.14 1.63 10.41 7.88 18.64 17.78 22.25l60.38 13.07 6.3-17.59z" class="O"/><g class="N"><path d="M492.05 310.1c.02 0 .08.37.15 1.08l.31 3.1 1.04 11.4 1.45 16.91.41 4.89c.15 1.67.25 3.37.63 5.03.36 1.66 1.16 3.22 2.44 4.4 1.27 1.19 2.86 2.06 4.52 2.81 13.52 5.85 25.98 10.68 35.02 14.07l10.74 3.96 2.92 1.08c.67.25 1.01.39 1 .42-.01.02-.37-.08-1.05-.29l-2.96-.96c-2.57-.85-6.26-2.12-10.81-3.76-9.1-3.28-21.57-8.04-35.13-13.9-1.69-.77-3.34-1.66-4.7-2.94-1.37-1.26-2.25-3-2.61-4.73-.39-1.74-.48-3.46-.62-5.12l-.39-4.89-1.31-16.93-.83-11.42-.19-3.11c-.04-.73-.05-1.1-.03-1.1zm-28.09 25.55c.02 0 .05.22.1.63l.16 1.81.58 6.67 1.1 9.86c.5 3.69 1.1 7.77 2.21 11.91.53 2.09 1.27 4.02 2.39 5.68 1.12 1.67 2.37 3.17 3.66 4.5 2.59 2.65 5.36 4.59 7.84 5.89 5.02 2.61 8.66 2.64 8.61 2.82 0 .02-.22.02-.64-.01s-1.03-.08-1.81-.23c-1.56-.28-3.81-.89-6.37-2.16-2.55-1.26-5.4-3.2-8.06-5.87-1.33-1.34-2.61-2.86-3.76-4.56-1.17-1.71-1.97-3.77-2.49-5.86-1.13-4.2-1.71-8.29-2.18-12-.46-3.72-.75-7.08-.96-9.9s-.32-5.11-.37-6.69l-.04-1.82c0-.45.01-.67.03-.67z"/><path d="M484.93 368.54c-.07-.02.14-1.07.89-2.61.74-1.54 2.12-3.54 4.12-5.25 2.01-1.71 4.19-2.75 5.83-3.24 1.64-.5 2.71-.54 2.72-.47.02.11-1.01.31-2.57.91-1.56.59-3.62 1.66-5.56 3.3-1.93 1.65-3.31 3.52-4.13 4.97l-1.3 2.39z"/></g><path d="M536.85 373.6c-5.24-2.96-10.37-5.24-15.85-7.73s-10.85-5.69-14.44-10.52c-6.77-9.12-5.99-22.28-12.92-31.28l1.36 18.15c.41 5.55-.44 11.03 3.14 14.8 3.01 3.17 8.88 5.61 13.03 6.98 8.35 2.75 17.34 6.84 25.68 9.6m16.6-57.44l4.24 26.16-4.01-7.41z" class="S"/><path d="M490.57 300.02c0 .04-.41.07-1.14.09l-3.09.08c-2.61.07-6.21.2-10.18.48-3.97.29-7.56.67-10.15.98l-3.07.36c-.73.08-1.13.11-1.14.08-.01-.04.39-.13 1.11-.28s1.76-.33 3.05-.53c2.59-.4 6.18-.84 10.16-1.13 3.98-.28 7.6-.36 10.22-.33 1.31.01 2.37.04 3.1.09.73.04 1.13.08 1.13.11zm1.4 25.04c.01.14-6.41.79-14.35 1.45s-14.38 1.07-14.39.93 6.41-.79 14.35-1.45c7.93-.66 14.37-1.08 14.39-.93zm2.36 26.31c.02.03-.35.24-1.02.58-.67.35-1.66.81-2.9 1.33-2.48 1.05-6.01 2.28-10.03 3.19-4.02.9-7.74 1.29-10.43 1.39a39.43 39.43 0 0 1-3.19.03c-.75-.03-1.17-.06-1.17-.09 0-.04.42-.07 1.17-.11.75-.03 1.83-.09 3.17-.2a73.76 73.76 0 0 0 10.34-1.53c3.98-.9 7.5-2.06 10-3.02l2.95-1.17c.7-.29 1.09-.43 1.11-.4zm17.43 13.5c.08.15-2.55 1.32-4.86 3.9-2.34 2.56-3.23 5.3-3.39 5.23-.06-.02.08-.72.54-1.79.45-1.06 1.27-2.47 2.46-3.79s2.51-2.27 3.52-2.83c1.02-.57 1.7-.78 1.73-.72zm17.73 17.32c-.13-.03.44-2.47 1.92-5.16 1.47-2.7 3.22-4.49 3.31-4.4.12.1-1.42 2.01-2.86 4.65-1.44 2.63-2.22 4.96-2.37 4.91zm-27.94-96.89c.03.14-3.08.82-6.93 1.52l-7.03 1.01c-.03-.14 3.08-.82 6.93-1.52l7.03-1.01zm46.93 2.14c-.02.14-4.32-.25-9.61-.88l-9.55-1.4c.02-.14 4.32.25 9.61.88l9.55 1.4zm4 21.82c0 .02-.21.03-.61.04l-1.76.01c-1.6 0-3.79 0-6.47-.01l-21.33.25-21.32.84-6.46.34-1.76.08c-.4.01-.61.01-.62-.01 0-.02.21-.05.61-.1l1.75-.17 6.45-.51a509.72 509.72 0 0 1 21.33-1c8.33-.21 15.88-.2 21.35-.1l6.47.17 1.76.08c.4.05.61.08.61.09zm.58 27.65c.01.14-12.85 1.11-28.72 2.15l-28.76 1.63c-.01-.14 12.85-1.11 28.72-2.15l28.76-1.63zm-1.37 24.35c.01.03-.37.2-1.08.46l-3.02 1.05c-2.57.84-6.15 1.89-10.16 2.86-4.01.96-7.68 1.66-10.35 2.07-1.33.21-2.42.36-3.17.44-.75.09-1.17.12-1.17.08-.01-.04.4-.13 1.14-.28l3.14-.61a235.66 235.66 0 0 0 10.3-2.22c4-.96 7.59-1.96 10.18-2.7l3.07-.89c.7-.2 1.11-.3 1.12-.26zm20.57-44.14c.04.14-4.15 1.34-9.34 2.68l-9.47 2.18c-.04-.14 4.14-1.34 9.34-2.68l9.47-2.18zm-9.81-18.69c.03.14-1.83.59-4.14 1.01s-4.21.64-4.23.5c-.03-.14 1.83-.59 4.14-1.01s4.21-.64 4.23-.5z" class="Q"/><path d="M492.2 304.23c-.1.02-.25-1.66-1.17-4.17-.89-2.5-2.71-5.83-5.74-8.55-3.03-2.73-6.54-4.18-9.12-4.8-2.6-.64-4.28-.62-4.28-.72 0-.03.42-.06 1.18-.04s1.85.12 3.18.4c2.65.54 6.27 1.97 9.38 4.77s4.92 6.25 5.74 8.82c.42 1.29.64 2.37.74 3.12.11.75.12 1.17.09 1.17zm58.4-13.33c.14-.02.92 4.07 1.73 9.14l1.21 9.23c-.14.02-.91-4.07-1.73-9.14l-1.21-9.23z" class="N"/><path d="M605.24 438.29l39.19 10.96c2.27.8 1.89 9.12-1.64 8.99-1.67-.06-28.94 1.02-32.39.8s-13.84-4.31-13.84-4.31l8.68-16.44z" class="O"/><g class="N"><path d="M620.94 452.66c.19.03.44-1.97 1.66-4.05 1.19-2.1 2.78-3.32 2.66-3.47-.07-.15-1.94.92-3.21 3.15-1.29 2.24-1.27 4.39-1.11 4.37zm-3.93-1.78c.18.03.57-1.75 1.57-3.72.98-1.98 2.19-3.35 2.05-3.48-.1-.12-1.58 1.11-2.62 3.19-1.05 2.09-1.16 4-1 4.01zm-3.69-.98c.19-.01.04-1.89.88-3.98.8-2.1 2.18-3.39 2.05-3.52-.08-.14-1.76 1.02-2.64 3.29-.89 2.26-.44 4.26-.29 4.21z"/><path d="M613.99 445.03c.07.02.4-1.04.4-2.8a12.95 12.95 0 0 0-.38-3.07c-.14-.57-.32-1.16-.56-1.75-.12-.3-.26-.64-.6-.92-.35-.32-.99-.25-1.29.06-.35.3-.45.73-.5 1.07-.04.35-.06.67-.05 1a8.27 8.27 0 0 0 .23 1.84c.28 1.15.73 2.12 1.16 2.88.88 1.53 1.64 2.31 1.69 2.27.09-.06-.55-.94-1.3-2.47-.37-.77-.76-1.71-.99-2.8-.12-.54-.18-1.12-.18-1.72.02-.58.01-1.3.35-1.58.18-.15.34-.16.5-.04.17.13.31.39.41.66.23.56.42 1.12.57 1.66a14.94 14.94 0 0 1 .5 2.94c.11 1.69-.06 2.75.04 2.77z"/><path d="M613.95 444.65c.02-.07-.89-.38-2.43-.39a10.9 10.9 0 0 0-2.67.33c-.49.13-1.01.26-1.54.57-.52.26-1.06.98-.85 1.72.16.7.76 1.19 1.36 1.35.6.17 1.18.11 1.69 0 1.03-.24 1.84-.75 2.45-1.2 1.21-.95 1.8-1.67 1.75-1.72-.07-.08-.78.54-2.01 1.36-.62.39-1.39.82-2.31 1-.46.09-.95.11-1.4-.02-.44-.12-.81-.46-.92-.9-.11-.42.15-.81.56-1.05.4-.25.9-.39 1.37-.53a12 12 0 0 1 2.54-.44c1.47-.13 2.39.02 2.41-.08zm12.78 8.42c.19-.02 0-1.63.74-3.4.71-1.78 1.96-2.8 1.84-2.95-.06-.15-1.64.74-2.43 2.71-.81 1.96-.31 3.7-.15 3.64zm-26.29 1.74c-.02.04.5.28 1.46.69.97.37 2.38.88 4.19 1.3 3.6.91 8.74 1.42 14.39 1.36s10.73-.32 14.42-.47l4.37-.23c1.03-.07 1.6-.13 1.6-.17s-.57-.07-1.61-.07l-4.37.03-14.41.28c-5.62.06-10.69-.38-14.28-1.17-3.62-.74-5.72-1.67-5.76-1.55z"/><path d="M599.32 455.67c.05.09 1.08-.52 2.82-1.28 1.72-.74 4.3-1.62 7.13-1.19 2.84.43 4.85 2.34 6.16 3.67l2.17 2.22c.06-.05-.59-1.05-1.84-2.52-.64-.73-1.44-1.57-2.5-2.34-1.04-.77-2.39-1.42-3.89-1.65-3.04-.46-5.71.55-7.42 1.4-1.72.89-2.67 1.62-2.63 1.69z"/></g><path d="M560.65 429.54l-36.93 24.31c-1.92 1.45.28 8.36 3.61 7.16 1.57-.57 31.49-8.89 34.71-10.14s11.88-8.31 11.88-8.31l-13.27-13.02z" class="O"/><g class="N"><path d="M550.06 448c.16-.03-.48-2.09-2.39-3.82-1.89-1.74-4-2.19-4.02-2.03-.07.18 1.82.86 3.59 2.5 1.8 1.62 2.65 3.44 2.82 3.35zm3.2-2.89c.15-.06-.54-1.85-2.17-3.51-1.62-1.67-3.4-2.4-3.46-2.25-.09.16 1.47 1.1 3.01 2.69 1.55 1.58 2.45 3.16 2.62 3.07zm3.21-2.06c.16.01-.02-2.04-1.56-3.92-1.52-1.9-3.49-2.5-3.52-2.34-.08.17 1.62.98 3.03 2.73 1.43 1.74 1.87 3.58 2.05 3.53z"/><path d="M554.36 438.62c.09-.05-.39-1.01-.81-2.67-.2-.83-.37-1.83-.42-2.95a15.01 15.01 0 0 1 .04-1.76c.02-.29.07-.58.19-.75.11-.16.27-.2.49-.11.41.16.62.85.81 1.4.18.57.3 1.14.35 1.7.11 1.11.03 2.12-.09 2.97l-.48 2.75c.06.02.55-.95.92-2.68.18-.86.31-1.92.23-3.1-.04-.59-.15-1.21-.34-1.83a7.04 7.04 0 0 0-.35-.93c-.15-.31-.38-.68-.8-.86-.38-.21-1.01-.08-1.25.33-.24.37-.27.74-.29 1.06a12.55 12.55 0 0 0 0 1.84c.08 1.17.3 2.2.57 3.04.53 1.69 1.17 2.59 1.23 2.55z"/><path d="M554.28 438.24c.05.09.88-.33 2.32-.68.72-.17 1.58-.32 2.55-.35.48-.01 1-.02 1.46.09.47.11.83.4.85.83.03.45-.22.88-.6 1.13-.38.26-.86.39-1.33.44-.93.11-1.8-.06-2.51-.25l-2.33-.69c-.03.06.75.58 2.19 1.11.72.25 1.64.49 2.7.4.52-.05 1.09-.17 1.61-.51.52-.33.94-.98.88-1.69-.03-.77-.76-1.29-1.33-1.38-.6-.13-1.13-.1-1.64-.07-1.02.06-1.92.27-2.65.5-1.43.49-2.2 1.06-2.17 1.12zm-22.42 21.47c.04.06.6-.36.87-1.38.3-1 .11-2.53-.67-3.87-.37-.68-.8-1.26-1.19-1.78s-.79-.99-1.21-1.3c-.41-.32-.84-.47-1.14-.48s-.45.06-.45.1c0 .1.64.05 1.3.72.33.32.67.77 1.03 1.3l1.11 1.74c.72 1.26.94 2.56.78 3.48-.12.92-.51 1.41-.43 1.47z"/><path d="M544.66 450.15c.17.02.12-1.79-1.26-3.42-1.35-1.64-3.12-2.01-3.14-1.85-.07.17 1.44.77 2.65 2.25 1.26 1.46 1.57 3.05 1.75 3.02zm25.58-6.33c-.03-.04-.58.36-1.57 1.08-1 .69-2.48 1.67-4.4 2.69-1.92 1.03-4.28 2.1-6.98 3.11l-8.93 2.88-16.41 4.8-4.95 1.52-1.79.64s.67-.1 1.86-.4l5.01-1.33 16.47-4.62 8.96-2.95 6.99-3.26c1.91-1.09 3.36-2.13 4.33-2.89l1.41-1.27z"/><path d="M571.56 444.3c.02-.07-1.11-.49-3.02-.8-1.88-.3-4.74-.45-7.49.92-1.36.68-2.45 1.71-3.21 2.75-.77 1.05-1.29 2.1-1.67 2.98-.75 1.78-1.06 2.93-.99 2.96.09.04.55-1.06 1.4-2.77.85-1.66 2.19-4.09 4.76-5.36 2.56-1.28 5.29-1.22 7.15-1.04l3.07.36zm63.21-73.14s10.7 3.82 10.74 15.81c.09 22.97-46.42 48.3-46.42 48.3l-61.89-41.01-3.88-1.57s83.54-31.38 101.45-21.53z"/></g><g class="Q"><path d="M568.55 414.97c.03.03.6-.36 1.61-1.09l4.23-3.2c3.54-2.74 8.36-6.62 13.55-11.07s9.75-8.63 13-11.72l3.8-3.7c.88-.89 1.35-1.4 1.32-1.43s-.56.42-1.49 1.25l-3.93 3.55-13.1 11.57-13.42 11.2-4.11 3.35c-.96.8-1.49 1.26-1.46 1.29zm48.75-35.23c.02-.15-2.74-.42-5.96.54-3.23.94-5.41 2.67-5.3 2.78.1.16 2.36-1.27 5.48-2.18 3.1-.92 5.78-.94 5.78-1.14z"/><path d="M611.96 376.12c-.06-.15-2.04.72-3.67 2.76-1.65 2.02-2.08 4.15-1.93 4.17.18.06.86-1.87 2.42-3.77 1.54-1.93 3.28-2.99 3.18-3.16z"/></g><path d="M638.17 448.87c.03-.07-.74-.22-1.6.48-.84.67-1.56 2.02-1.79 3.59-.23 1.58.12 3.04.56 3.96.44.94.92 1.38.97 1.34.09-.06-.25-.58-.56-1.5-.31-.91-.57-2.25-.35-3.71.21-1.44.8-2.69 1.46-3.35.67-.69 1.32-.71 1.31-.81z" class="N"/><path d="M630.34 338.53l-17.61 47.43c-1.01 2.71-3.61 4.49-6.5 4.46l-96.91-1.28v-7.36l35.96 1.31 15.27-47.34a3.88 3.88 0 0 1 3.69-2.68l62.52.18a3.86 3.86 0 0 1 3.58 5.28z" class="P"/><path d="M630.34 338.53s.01-.05.04-.15c.02-.1.09-.24.12-.44a3.71 3.71 0 0 0-.04-1.78 3.84 3.84 0 0 0-1.7-2.29c-.49-.3-1.09-.52-1.76-.56l-2.15-.02-26.08-.03-18.27-.03-10.27-.02c-1.77 0-3.57-.01-5.39-.01-.92-.05-1.81.07-2.58.57-.76.48-1.35 1.23-1.6 2.11l-15.22 47.26-.04.11h-.12l-35.96-1.31.16-.16v1.31 6.05l-.15-.16 60.94.82 26.49.36 6.11.08 2.97.04c.98.04 1.93-.07 2.82-.41 1.77-.65 3.21-2.06 3.88-3.74l1.89-5.05 11.62-31.17 3.17-8.45 1.12-2.93-1.06 2.96-3.11 8.47-11.53 31.2-1.89 5.07c-.69 1.74-2.18 3.2-4.01 3.88-.91.35-1.92.47-2.9.43l-2.97-.04-6.11-.08-26.49-.33-60.94-.79h-.15v-.15-6.05-1.31-.16l.16.01 35.96 1.32-.15.11 15.26-47.25c.27-.93.91-1.74 1.72-2.25.81-.53 1.82-.65 2.72-.6l5.39.02 10.27.04 18.27.07 26.08.12 2.16.03s1.3.27 1.8.58c1.01.63 1.51 1.58 1.71 2.35.19.78.11 1.41.01 1.8-.11.36-.2.55-.2.55z" class="N"/><path d="M587.37 356.46c1.26-.85 3.58-.51 4.71.5s1.5 2.77.92 4.17c-.57 1.41-2.02 2.39-3.54 2.47-1.61.09-3.29-.92-3.74-2.47-.45-1.54.05-3.85 1.65-4.67" fill="#fff"/><path d="M609.52 437.85l-91.2-58.14c-3.28-1.87-12.05-7.27-20.71-4.88-8.65 2.39-16.41 10.14-20.29 21.48-2.22 6.48-3.26 17.53-3.75 25.82-.59 9.91 2.48 19.79 8.96 27.31 2.95 3.42 6.59 6.4 10.9 7.74.91.28 1.86.53 2.83.74 16.53 3.58 33.52-3.84 42.81-17.97l2.04-3.11 58.09 20.72 10.32-19.71z" class="N"/><g class="Q"><path d="M522.84 382.81c-.01.01-.08-.04-.22-.13l-.61-.42-2.36-1.58c-2.07-1.32-5.14-3.21-9.28-4.71-2.07-.74-4.42-1.33-6.99-1.47a20 20 0 0 0-8.03 1.31c-2.71 1.01-5.33 2.63-7.72 4.68a35.13 35.13 0 0 0-3.43 3.37c-1.07 1.22-2.01 2.58-2.84 4.04-1.66 2.9-2.89 5.97-3.77 9-.82 3.05-1.48 6.06-2.11 8.9-1.25 5.7-1.92 10.92-2.01 15.32-.07 4.41.37 7.96.79 10.39.19 1.22.41 2.15.54 2.79l.14.73c.03.16.04.25.03.25s-.04-.08-.08-.24l-.19-.71c-.16-.63-.41-1.56-.64-2.78-.48-2.42-.99-5.99-.96-10.43.04-4.43.68-9.7 1.91-15.42.62-2.86 1.26-5.85 2.09-8.94.88-3.07 2.12-6.17 3.81-9.12.84-1.47 1.8-2.86 2.9-4.12 1.1-1.24 2.27-2.37 3.49-3.41 2.43-2.08 5.11-3.72 7.88-4.74 2.76-1.05 5.6-1.42 8.23-1.29 2.62.16 5.01.79 7.09 1.56 4.16 1.57 7.22 3.51 9.26 4.89a45.7 45.7 0 0 1 2.31 1.67l.58.46c.13.08.19.14.19.15z"/><path d="M501.35 422.06a7.55 7.55 0 0 0 .48.21l1.43.57 5.54 2.13 20.6 7.76 30.99 11.43 38.72 13.68.25.09.12-.24 6.83-13.05 3.48-6.65.13-.26-.24-.15-66.7-42.34-20.03-12.64-5.44-3.4-1.42-.87-.49-.28s.15.12.46.33l1.39.92 5.38 3.49 19.93 12.8 66.59 42.5-.11-.41-3.48 6.65-6.83 13.05.38-.15-38.73-13.61-31.04-11.3-20.67-7.58-5.58-2.03-1.45-.51-.49-.14z"/></g><path d="M505.87 236.47c-1.52-3-3.06-6.02-3.88-9.28s-.87-6.82.52-9.88c.81-1.79 2.09-3.36 2.73-5.22.88-2.56.52-5.58 2.1-7.77 2.48-3.43 7.77-2.63 11.6-4.42 2.98-1.4 5.06-4.41 8.2-5.42 2.74-.88 5.73-.04 8.37 1.1 2.64 1.13 5.22 2.57 8.08 2.95 2.03.27 4.1-.03 6.15.02 2.05.04 4.23.5 5.67 1.96s1.75 4.15.18 5.47c3.59-.61 6.97 2.97 6.92 6.61s-2.79 6.84-6.1 8.35-7.09 1.61-10.71 1.33c-10.27-.8-20.59-4.7-27.58-12.27" class="O"/><path d="M508.08 223.62l-7 50.85a15.27 15.27 0 0 0 13.79 17.29h0a15.28 15.28 0 0 0 16.46-13.15l1.05-7.41s13.11.56 15.81-12.12c1.3-6.13 2.96-18.97 4.33-30.61 1.47-12.5-6.93-24.02-19.27-26.49l-1.23-.25c-13.37-1.86-22.44 8.46-23.94 21.89z" fill="#ffbe9d"/><path d="M532.45 271.02s-8.17-.95-15.63-8.02c0 0 2.09 9.93 15.01 11.32l.62-3.3z" fill="#eb996e"/><path d="M546.82 239.28c-.16.97-1.11 1.63-2.12 1.48s-1.7-1.05-1.54-2.01c.16-.97 1.11-1.63 2.12-1.48 1.01.14 1.7 1.04 1.54 2.01zm1.72-5.12c-.27.19-1.44-1.1-3.4-1.49-1.95-.41-3.58.31-3.75.02-.08-.13.23-.51.95-.84.71-.33 1.84-.56 3.06-.31s2.15.9 2.65 1.48c.51.59.63 1.06.49 1.14zm-19.94 1.97c-.16.97-1.11 1.63-2.12 1.48s-1.7-1.05-1.54-2.01c.16-.97 1.11-1.63 2.12-1.48 1 .14 1.7 1.05 1.54 2.01zm.67-5.44c-.27.19-1.45-1.1-3.4-1.49-1.95-.41-3.58.31-3.75.02-.08-.13.23-.51.95-.84.71-.33 1.84-.56 3.06-.31s2.15.9 2.65 1.48c.5.59.62 1.05.49 1.14zm4.19 15.91c.01-.11 1.27-.08 3.29.06.51.05 1 .04 1.15-.28.19-.34.09-.92-.04-1.55l-.72-4.09c-.97-5.82-1.56-10.56-1.33-10.6s1.21 4.65 2.18 10.47l.65 4.1c.08.6.27 1.31-.13 2.01-.21.35-.63.54-.97.57s-.62-.02-.87-.05c-1.99-.29-3.22-.53-3.21-.64zm-6.02.2c.32.04-.1 2.17 1.42 4.03 1.51 1.87 3.82 2.09 3.78 2.39 0 .14-.59.31-1.55.15-.94-.15-2.25-.73-3.18-1.87-.92-1.14-1.15-2.47-1.05-3.36.1-.9.44-1.38.58-1.34z" class="N"/><path d="M531.3 223.13c-.3.49-2.2-.15-4.55-.33-2.34-.23-4.33.07-4.54-.46-.09-.26.33-.69 1.18-1.06.84-.37 2.12-.62 3.53-.5s2.62.6 3.39 1.1c.78.51 1.12 1.02.99 1.25zm17.66 5.23c-.43.38-1.69-.35-3.3-.7-1.6-.4-3.05-.3-3.27-.83-.09-.25.21-.65.89-.95.67-.3 1.73-.45 2.83-.19s1.99.85 2.46 1.42c.48.57.58 1.07.39 1.25z" class="O"/><path d="M507.24 233.24c-.2-.14-8.22-4.33-9.68 4.42s7.62 8.41 7.68 8.16 2-12.58 2-12.58z" fill="#ffbe9d"/><path d="M503.12 242.06c-.03-.03-.17.08-.45.16-.27.07-.72.08-1.14-.17-.87-.49-1.4-2.09-1.18-3.67.11-.8.4-1.53.79-2.11.37-.6.86-.97 1.34-.98.48-.03.76.3.83.57.08.26-.01.43.04.45.02.03.21-.12.2-.49-.01-.18-.08-.4-.25-.61-.18-.21-.48-.34-.81-.36-.68-.07-1.39.45-1.82 1.09-.46.63-.81 1.45-.93 2.35-.24 1.77.39 3.57 1.59 4.15.59.26 1.13.16 1.43 0 .31-.17.39-.36.36-.38z" fill="#eb996e"/><path d="M555.04 216.66c-1.5 3.23-9.22 4.48-14.88 2.77-5.22-1.57-7.11-4.89-10.43-7.77-2.1-1.83-2.1-1.83-5.53-2.18-2.77-.29-4.99 2.47-7.09 4.31 1.17 6.95-1.93 13.84-4.94 20.21-.33.7-.71 1.46-1.41 1.8-1.19.59-2.6-.34-3.31-1.46-1.13-1.79-1.27-4.02-1.23-6.14.1-4.82.94-9.67 2.9-14.08s5.07-8.37 9.15-10.95c5.09-3.23 11.5-4.15 17.4-2.88 5.89 1.27 11.25 4.65 15.25 9.16 1.87 2.08 3.49 4.48 4.12 7.21" class="O"/><g class="N"><path d="M537.24 237.8c.08 0 .05-.75.4-2.03.35-1.25 1.2-3.09 3.1-4.5 1.83-1.41 4.84-2.2 7.74-1.11 1.43.52 2.8 1.5 3.77 2.85 1 1.33 1.56 3.04 1.57 4.8-.02 1.76-.58 3.47-1.57 4.8a8.05 8.05 0 0 1-3.77 2.85 8.22 8.22 0 0 1-7.74-1.11c-1.89-1.41-2.75-3.24-3.1-4.5-.35-1.29-.32-2.05-.4-2.05-.02 0-.04.19-.04.54-.01.36.03.89.17 1.56.27 1.32 1.09 3.28 3.06 4.83 1.9 1.55 5.11 2.47 8.27 1.33 1.55-.54 3.04-1.59 4.1-3.05 1.09-1.44 1.71-3.3 1.72-5.21-.02-1.91-.63-3.77-1.72-5.21a8.7 8.7 0 0 0-4.1-3.05c-3.16-1.14-6.37-.22-8.27 1.33-1.97 1.55-2.79 3.51-3.06 4.83-.15.67-.19 1.2-.18 1.56l.05.54zm-20.75-3.62c.08 0 .05-.75.4-2.03a8.43 8.43 0 0 1 3.1-4.5c1.83-1.41 4.84-2.2 7.74-1.11 1.43.52 2.8 1.5 3.77 2.85 1 1.33 1.56 3.04 1.57 4.8-.02 1.76-.58 3.47-1.57 4.8a8.05 8.05 0 0 1-3.77 2.85 8.22 8.22 0 0 1-7.74-1.11c-1.89-1.41-2.75-3.24-3.1-4.5-.35-1.29-.32-2.05-.4-2.05-.02 0-.04.19-.04.54-.01.36.03.89.18 1.56.27 1.32 1.09 3.28 3.06 4.83 1.9 1.55 5.11 2.47 8.27 1.33 1.55-.54 3.04-1.59 4.1-3.05 1.09-1.44 1.71-3.3 1.72-5.21-.02-1.91-.63-3.77-1.72-5.21a8.7 8.7 0 0 0-4.1-3.05c-3.16-1.14-6.37-.22-8.27 1.33-1.97 1.55-2.79 3.51-3.06 4.83-.15.67-.19 1.2-.18 1.56l.04.54z"/><path d="M533.59 234.48c.09.18 1.2-.34 2.49.05 1.3.38 1.94 1.43 2.11 1.33.08-.04.04-.37-.25-.81-.28-.44-.86-.96-1.65-1.2s-1.56-.12-2.04.09c-.49.2-.71.46-.66.54zm-28.85-2.54c0 .2 2.79.31 6.23.27 3.44-.05 6.22-.25 6.22-.44 0-.2-2.79-.31-6.23-.27-3.44.05-6.22.24-6.22.44z"/></g><path d="M559.13 208.31s.03.31-.13.83c-.15.52-.56 1.25-1.31 1.88-.74.65-1.86 1.15-3.15 1.29-1.29.16-2.71 0-4.17-.22-2.93-.43-5.55-1.01-7.42-1.5l-2.21-.62-.59-.19c-.14-.05-.21-.07-.2-.08 0-.01.08.01.21.04l.6.15 2.22.55 7.42 1.44c1.46.22 2.86.38 4.12.23 1.26-.13 2.34-.6 3.07-1.21.74-.6 1.16-1.29 1.33-1.8.17-.49.18-.8.21-.79zm1.94 1.98s-.09.98-.75 2.39c-.64 1.4-1.96 3.23-4.03 4.46-2.06 1.23-4.3 1.53-5.84 1.43-1.56-.09-2.46-.47-2.46-.47 0-.02.24.04.66.13s1.04.18 1.81.2c1.52.06 3.71-.26 5.73-1.46 2.02-1.21 3.33-2.98 4-4.35a12.03 12.03 0 0 0 .68-1.69l.2-.64z" fill="#fff"/><defs ><path id="B" d="M155.51 110.81c0 .15-15.84.27-35.38.27-19.55 0-35.39-.12-35.39-.27s15.84-.27 35.39-.27l35.38.27z"/><path id="C" d="M643.02 65.46c0 .54-.43.97-.97.97a.97.97 0 0 1-.97-.97c0-.54.43-.97.97-.97a.97.97 0 0 1 .97.97z"/><path id="D" d="M156.64 164.07c0 .24-3.4.44-7.59.44s-7.59-.2-7.59-.44 3.4-.44 7.59-.44 7.59.2 7.59.44z"/><path id="E" d="M156.64 196.23c0 .24-3.4.44-7.59.44s-7.59-.2-7.59-.44 3.4-.44 7.59-.44c4.19.01 7.59.2 7.59.44z"/><path id="F" d="M156.64 212.32c0 .24-3.4.44-7.59.44s-7.59-.2-7.59-.44 3.4-.44 7.59-.44 7.59.19 7.59.44z"/><path id="G" d="M217.51 163.12c0 .24-8.82.44-19.71.44s-19.71-.2-19.71-.44 8.82-.44 19.71-.44 19.71.2 19.71.44z"/><path id="H" d="M272.4 196.23c0 .24-16.51.44-36.87.44-20.37 0-36.87-.2-36.87-.44s16.51-.44 36.87-.44l36.87.44z"/><path id="I" d="M325.09 212.32c0 .24-24.33.44-54.34.44-30.02 0-54.34-.2-54.34-.44s24.33-.44 54.34-.44l54.34.44z"/><path id="J" d="M514.32 228.4c0 .24-37.78.44-84.38.44-46.61 0-84.39-.2-84.39-.44s37.77-.44 84.39-.44l84.38.44z"/><path id="K" d="M237.04 356.96c0 .24-8.82.44-19.71.44s-19.71-.2-19.71-.44 8.82-.44 19.71-.44c10.89.01 19.71.2 19.71.44z"/><path id="L" d="M400.14 129.61c0-.72.56-1.22 1.22-1.22.65 0 1.18.5 1.18 1.22s-.54 1.24-1.18 1.24a1.21 1.21 0 0 1-1.22-1.24z"/><path id="M" d="M640.93 151.01a1.88 1.88 0 0 1-3.76 0 1.88 1.88 0 0 1 1.88-1.88c1.04 0 1.88.85 1.88 1.88z"/></defs></svg>