<svg xmlns="http://www.w3.org/2000/svg" xmlns:xlink="http://www.w3.org/1999/xlink" viewBox="0 0 500 500" xmlns:v="https://vecta.io/nano"><style><![CDATA[.P{fill:#fff}.Q{fill:#263238}.R{fill:#e8505b}.S{fill:#ebebeb}.T{fill:#e0e0e0}.U{fill:#455a64}.V{fill:#f5f5f5}.W{fill:#ffbe9d}]]></style><path d="M393.58 376.64v20.74h30.33 33.47v-20.74z" class="V"/><path d="M390.9 370.84v5.8h68.71v-5.8h-35.7z" class="S"/><path d="M425.25 397.38h32.13v-20.74h2.23v-5.8h-35.7v5.26zm-22.75-17.4h12.94v3.12H402.5zm-1.67 7.03h16.61v6.59h-16.61z" class="T"/><path d="M471.38 447.3l-1.52-322.91h-6.25v63.59h-16.15l-.3-63.59h-6.25v63.59h-53.72-1.84l-.3-63.59h-6.25v63.59h-16.1l-.3-63.59h-6.25V447.3h7.78l-.21-43.34h15.08v43.34h7.77l-.2-43.34h54.54v43.34h7.78l-.2-43.34h15.13v43.34h7.76zm-100.53-86.12l-5.59-23.93h11.47l-5.88 23.93zm7.95-22.47v56.54l-6.77-29 6.77-27.54zm0-82.18l-6.77-29 6.77-27.54v56.54zm-1.21 5.19h-13.96l7.16-29.13 6.8 29.13zm-6.74-39.26l-6.4-27.41h13.13l-6.73 27.41zm-1.24 5.06l-6.6 26.84-.26-56.24 6.86 29.4zm-6.19 112.18l6.19 26.54-5.95 24.23-.24-50.77zm7.37 31.61l5.98 25.6H364.5l6.29-25.6zm-7.17-41.12l-.05-.22-.2.04-.29-61.24h15.72v61.41h-15.18zm22.11-61.41h55.17v61.41h-53.72-1.17l-.28-61.41zm69.43-36.19l6.8 29.13H448l7.16-29.13zm-7.4 20.21l-.25-52.97 6.46 27.69-6.21 25.28zm15.85 5.6l-7.2-30.87 7.2-29.32v60.19zm0 3.22v.1h-.44l.44-.1zm0 78.77v53.09l-6.36-27.23 6.36-25.86zm-7.54 20.79l-5.59-23.93h11.47l-5.88 23.93zm-.85-138.72l-6.4-27.41h13.13l-6.73 27.41zm8.39 46.32v61.41h-14.77l-.05-.22-.65.15-.29-61.34h15.76zm-8.78 97.46l-6.4 26.06-.26-54.6 6.66 28.54zm1.18 5.07l5.98 25.6h-12.27l6.29-25.6zm-15.1-176.27v66.67h-53.72-1.49l-.32-66.67h55.53zm-53.57 201.87h-1l-.28-59.67h54.85v59.67h-53.57z" class="S"/><path d="M387.33 262.04v-7.29h51.47l.16 7.29z" class="T"/><path d="M438.83 255.94l-48.61 1.03c-.64.15-1.28 2.95 0 3.21s48.61.64 48.61.64v-4.88z" class="P"/><path d="M393.31 254.46v-7.28h40.77l.13 7.28z" class="S"/><path d="M434.1 248.37s-36.16.34-38.5 1.03c-.5.15-1.02 2.95 0 3.21s38.5.64 38.5.64v-4.88z" class="P"/><path d="M393.13 247.26v-7.28h40.77l.13 7.28z" class="T"/><path d="M433.92 241.17s-36.16.33-38.5 1.03c-.5.15-1.02 2.95 0 3.21s38.5.64 38.5.64v-4.88z" class="P"/><path d="M430.58 139.74h10.33v48.13h-10.33z" class="T"/><path d="M438 176.32c0 1.13-.92 2.05-2.05 2.05s-2.04-.92-2.04-2.05.91-2.05 2.04-2.05 2.05.92 2.05 2.05zm-3.72-23.83h3.16v19.67h-3.16z" class="P"/><path d="M420.09 139.74h10.33v48.13h-10.33z" class="S"/><g class="P"><circle cx="425.46" cy="176.32" r="2.05"/><path d="M423.79 152.49h3.16v19.67h-3.16z"/></g><path d="M410.1 139.74h10.33v48.13H410.1z" class="V"/><g class="P"><use xlink:href="#B"/><path d="M413.8 152.49h3.16v19.67h-3.16z"/></g><path d="M430.58 282.18h10.33v48.13h-10.33z" class="T"/><path d="M438 318.77c0 1.13-.92 2.05-2.05 2.05s-2.04-.92-2.04-2.05.91-2.05 2.04-2.05 2.05.92 2.05 2.05zm-3.72-23.83h3.16v19.67h-3.16z" class="P"/><path d="M420.09 282.18h10.33v48.13h-10.33z" class="S"/><g class="P"><use xlink:href="#B" x="9.99" y="142.45"/><path d="M423.79 294.94h3.16v19.67h-3.16z"/></g><path d="M410.1 282.18h10.33v48.13H410.1z" class="V"/><g class="P"><use xlink:href="#B" y="142.45"/><path d="M413.8 294.94h3.16v19.67h-3.16z"/></g><path d="M397.33 187.13l12.41-42.34-4.28-1.87-12.73 42.68z" class="T"/><path d="M104.83 189.59H55.29v64.59l49.54 1.24z" class="S"/><path d="M101.57 191.89H58.23v58.58l43.34 1.46z" class="P"/><path d="M93.98 202.53l-28.76-1.09v40.94h28.76z" class="S"/><path d="M65.22 242.38l28.76-21.03-28.76-19.91zm81.21 195.44c-1.18-1.01-3.83-4.21-1.79-7.94.75-1.37 2.33-2.04 3.77-2.64s2.94-1.12 4.13-2.13c2.24-1.9 2.86-5.05 4.35-7.58 1.71-2.91 4.89-5.08 8.26-4.93 3.85.17 7.07 3.31 8.53 6.88s1.51 7.54 1.54 11.4c.02 2.13-.08 4.54-1.65 5.98-1.45 1.33-3.64 1.34-5.6 1.29l-21.07-.64" class="V"/><path d="M183.33 387.8h-50.37l9.07 53.86c.4 2.35 2.11 4.17 4.3 4.79.06.02.12.03.18.05l.45.12c.33.07.68.1 1.02.12 0 .02.01.04.01.05l.25-.04h0 22.45c.42 0 .83-.04 1.23-.12a6.07 6.07 0 0 0 5.1-5.26l4.37-37.11.2-1.48h-.02l1.73-14.7.03-.28zm-9.5 34.35h-5.17l.52-15.63h5.99l-1.34 15.63zm1.84-15.63h4.95l-1.84 15.63h-4.45l1.34-15.63zm-14.76 32.96l-.31-13.58h7.44l-.45 13.58h-6.68zm-8.05-13.58h7.23l.31 13.58h-6.49l-1.05-13.58zm.56 13.58h-6.06l-2.14-13.58h7.14l1.06 13.58zm-.85-17.33l-1.22-15.63h8.3l.36 15.63h-7.44zm7.94 0l-.36-15.63h8.54l-.52 15.63h-7.66zm-.45-19.38l-.33-14.47h9.57l-.48 14.47h-8.76zm-.5 0h-8.5l-1.13-14.47h9.3l.33 14.47zm-9.01 0h-9l-.89-5.59-1.49-8.88h10.25l1.13 14.47zm.29 3.75l1.22 15.63h-7.44l-.76-4.8-1.72-10.83h8.7zm-6.72 15.63h-4.86l-2.63-15.63h5.02l2.47 15.63zm.59 3.75l2.14 13.58h-4.67l-2.29-13.58h4.82zm23.37 13.58l.45-13.58h4.97l-1.17 13.58h-4.25zm1.23-36.71l.48-14.47h6.95l-1.24 14.47h-6.19zM138.7 388.3c.2 1.05 1.12 6.74 2.35 14.47h-5.06l-2.44-14.47h5.15zm38.04 51.18h-3.89l1.17-13.58h4.33l-1.61 13.58zm4.32-36.71H176l1.24-14.47h5.53l-1.71 14.47z" class="S"/><g class="V"><path d="M35.7 360.06l3.01.49 3.68.36c1.32.12 2.74.1 4.23.12 2.98-.07 6.26-.35 9.65-.99 3.38-.67 6.52-1.63 9.32-2.68l3.89-1.69c1.21-.55 2.29-1.15 3.28-1.7 1-.52 1.85-1.1 2.61-1.57l1.92-1.28.96-.66h-45.7v8.92l.9.21 2.25.47zm27.31 83.27c-3.71-.04-7.05.47-9.74 1.26-2.37.71-4.23 1.6-5.55 2.38h37.4l-10.11-2.16c-4.22-.86-8.28-1.46-12-1.48z"/><path d="M109.04 437.22c-4.24-.67-9.37-.16-15.04.36-2.84.26-5.85.39-8.97.25-3.11-.13-6.31-.47-9.58-.87-6.52-.82-12.74-1.65-18.41-1.4a40.11 40.11 0 0 0-14.59 3.26c-3.94 1.69-6.84 3.67-8.75 5.12-.44.33-.81.63-1.15.9v2.13h14.69c1.3-.89 3.29-1.97 5.91-2.8 2.72-.86 6.1-1.42 9.87-1.42 3.77-.01 7.88.58 12.12 1.44l11.89 2.56 1.23.22h29.77v-6.44c-1.95-1.35-5.01-2.74-8.99-3.31z"/><path d="M42.27 438.41c3.94-1.77 9.01-3.21 14.75-3.43 5.74-.28 12 .54 18.51 1.35 3.26.4 6.44.74 9.53.88 3.08.15 6.06.03 8.89-.21 5.65-.49 10.84-.96 15.15-.22 3.94.62 6.98 2.03 8.92 3.42v-11.29c-2.02-.59-4.59-1.05-7.61-1.06-8.5-.29-19.79 4.34-32.93 4.02a78.66 78.66 0 0 1-18.19-2.21c-5.5-1.32-10.22-3.21-14.32-4.28-4.08-1.14-7.52-1.49-9.88-1.37-1.09.05-1.93.15-2.54.24v20.34c.3-.26.62-.54 1-.84 1.87-1.53 4.75-3.58 8.72-5.34zm-6.43-51.92c2.28.2 5.41 1.33 9.07 2.98 1.84.82 3.86 1.67 6.11 2.35 2.26.65 4.73 1.13 7.37 1.37 5.27.5 11.13.02 17.16-1.06 6.03-1.07 11.7-2.58 16.91-3.7 5.21-1.15 9.96-1.93 13.99-2.22s7.32-.12 9.56.16a26.61 26.61 0 0 1 2.01.3v-7.09-7.96l-.89-.71c-1.35-1.06-3.27-2.65-5.88-4.25-2.59-1.57-5.98-3.23-10.01-3.33-4.03-.13-8.31 1.44-12.49 3.48a101.87 101.87 0 0 0-11.48 6.49c-1.66 1.12-3.43 2.12-4.13 3.69-.34.76-.21 1.61.3 2.2.5.59 1.21.97 1.89 1.3 2.75 1.33 5.24 1.72 6.93 1.85 1.71.12 2.66.02 2.66.08 0 .02-.23.06-.69.11-.45.04-1.12.08-1.99.06-1.72-.06-4.27-.38-7.11-1.7-.7-.33-1.47-.7-2.08-1.39-.63-.67-.82-1.8-.41-2.71.81-1.83 2.66-2.83 4.29-3.98 3.39-2.26 7.28-4.53 11.52-6.58 4.21-2.06 8.6-3.66 12.78-3.5 4.19.14 7.64 1.9 10.23 3.53 2.61 1.67 4.5 3.32 5.8 4.45l.73.65v-12.47a35.85 35.85 0 0 0-4.78-2.19c-4.13-1.53-9.41-2.53-15.23-2.06-2.9.25-5.91.91-8.86 2.06-2.96 1.12-5.82 2.79-8.76 4.47-2.94 1.69-5.85 3.33-8.89 4.44-3.05 1.08-6.15 1.6-9.1 1.78-5.91.34-11.19-.25-15.62-.32-4.43-.13-8.01.2-10.43.7-.6.13-1.15.23-1.61.35l-1.16.34c-.63.18-.96.26-.97.24s.31-.14.93-.36l1.15-.4c.46-.14 1-.25 1.61-.41 2.43-.58 6.04-.98 10.49-.91 4.45.01 9.74.56 15.57.19 2.91-.19 5.94-.72 8.92-1.78 2.98-1.09 5.86-2.71 8.79-4.4 2.94-1.68 5.83-3.36 8.85-4.5 3.01-1.16 6.08-1.83 9.04-2.06 5.92-.45 11.27.61 15.43 2.22 1.75.67 3.28 1.42 4.63 2.19v-8h-39.5c-.25.21-.6.5-1.06.86-.49.4-1.11.88-1.87 1.37-.75.5-1.59 1.11-2.58 1.66-.98.58-2.06 1.21-3.27 1.79-1.18.63-2.52 1.17-3.9 1.76-2.81 1.09-5.99 2.08-9.41 2.75-3.43.64-6.74.91-9.76.95-1.51-.03-2.94-.03-4.28-.18-1.34-.08-2.58-.26-3.7-.44-1.13-.14-2.13-.4-3.02-.58a20.03 20.03 0 0 1-2.25-.58c-.32-.09-.6-.18-.84-.25v19.17c.67-.23 1.55-.49 2.62-.75 2.56-.64 6.2-1.2 10.24-1.16 4.04.05 7.66.7 10.21 1.39 1.27.35 2.29.68 2.98.95s1.06.43 1.05.47c-.03.1-1.58-.42-4.13-.99a49.36 49.36 0 0 0-10.11-1.2c-3.99-.04-7.58.44-10.14.96-1.12.23-2.03.44-2.72.61v.83 6.69c.44-.11 1.56-.27 3.29-.07zm52.5-11.74c.12-.28.31-.5.52-.67.41-.35.88-.59 1.38-.74 3.77-1.14 7.56-1.46 10.95-1.19 3.39.26 6.39 1.04 8.77 1.99 2.39.94 4.2 1.98 5.38 2.79.61.38 1.03.75 1.33.97.3.23.44.36.43.38-.08.14-2.53-1.96-7.3-3.72-2.37-.88-5.32-1.6-8.65-1.83a30.04 30.04 0 0 0-10.72 1.22c-.42.13-.84.34-1.15.62-.32.28-.49.61-.37.91.23.63 1.36.69 2.21.89l5.18 1.06 8.76 1.83 5.9 1.29 1.6.38c.36.09.55.15.55.17s-.2 0-.57-.05l-1.62-.27-5.94-1.09-8.79-1.69-5.19-1.02c-.46-.1-.89-.16-1.38-.29-.46-.12-1.07-.37-1.3-1-.12-.31-.11-.67.02-.94zm-37.85 7.38c1.18.6 2.87 1.53 5.09 2.34 4.39 1.68 10.98 3.09 18.16 2.11 7.21-.84 12.95-4.5 17.67-5.53 2.33-.58 4.3-.68 5.64-.56a11.92 11.92 0 0 1 1.53.22c.34.08.52.14.52.16-.01.06-.73-.11-2.06-.14-1.32-.04-3.24.12-5.52.75-2.29.6-4.88 1.72-7.79 2.94-2.9 1.23-6.26 2.33-9.9 2.78-7.31 1-14-.51-18.4-2.32-2.23-.88-3.91-1.87-5.06-2.55-1.11-.74-1.71-1.17-1.69-1.21.02-.02.66.34 1.81 1.01z"/><path d="M45.09 424.94c4.14 1.03 8.88 2.88 14.34 4.15a79.98 79.98 0 0 0 18.06 2.14c13 .33 24.27-4.22 32.93-3.84 3.02.05 5.58.55 7.6 1.19v-12.1l-2.55.31c-3.63.36-8.64 1.07-14.25 1.19-2.8.04-5.48-.13-7.88-.56-2.4-.42-4.51-1.07-6.21-1.79-1.7-.71-2.98-1.5-3.82-2.08-.42-.29-.74-.54-.94-.72-.21-.17-.31-.27-.29-.29.07-.11 1.84 1.36 5.22 2.68 1.69.66 3.77 1.25 6.13 1.64s5.01.54 7.78.5c5.55-.12 10.57-.76 14.21-1.01l2.59-.19v-29.34c-.54-.07-1.22-.15-2.04-.21-2.23-.2-5.49-.31-9.49.04-4 .34-8.72 1.17-13.91 2.35-5.19 1.15-10.85 2.68-16.92 3.75-6.06 1.09-11.98 1.56-17.32 1.02-2.67-.26-5.18-.76-7.46-1.45-2.28-.71-4.32-1.6-6.14-2.45-3.64-1.71-6.69-2.87-8.92-3.15-1.69-.25-2.81-.15-3.25-.12v20.77c.15-.18.32-.37.51-.55 1.65-1.67 4.75-3.2 8.73-4.24 4-1.07 8.92-1.46 14.28-2.16 5.37-.69 11.12-2.28 17.11-4.09 5.99-1.8 11.76-3.48 17.17-4.28 5.39-.83 10.32-.96 14.43-.77 4.12.2 7.42.69 9.68 1.13 1.13.22 2 .41 2.59.56.59.14.89.23.89.25s-.32-.02-.92-.13c-.59-.11-1.47-.26-2.6-.44-2.26-.36-5.56-.78-9.65-.92a75.26 75.26 0 0 0-14.32.9c-5.35.82-11.08 2.51-17.08 4.31-5.99 1.8-11.8 3.39-17.22 4.06-5.4.67-10.28 1.01-14.25 2.01-3.96.97-7.03 2.42-8.67 3.99-.27.25-.48.49-.68.72v8.72c.09.05.2.1.31.16l2.26 1.2c1.99.98 4.86 2.44 8.57 3.83 7.37 2.85 18.15 5.67 30.28 5.56 12.16.14 22.71-3.61 30.67-4.34 3.97-.45 7.23-.28 9.43.08l1.46.26 1.05.27c.57.15.86.25.85.27s-.31-.03-.88-.14l-1.06-.21-1.46-.2c-2.2-.28-5.42-.38-9.35.12-3.94.46-8.54 1.53-13.69 2.63-5.14 1.13-10.94 1.88-17.03 1.9-12.22.11-23.08-2.8-30.45-5.77-3.71-1.46-6.57-2.98-8.53-4.03l-2.21-1.31c-.09-.06-.17-.11-.25-.16v7.55c.61-.13 1.44-.26 2.53-.35 2.4-.19 5.9.09 10.03 1.18zm24.19-19.57c-3.79 1.84-6.96 3.97-9.55 5.79-.61.47-1.1 1.06-1.05 1.7.02.64.56 1.1 1.1 1.35 1.12.53 2.23.28 3.12.2.89-.1 1.62-.06 2.08.09s.65.33.65.33c-.01.03-.23-.1-.68-.21-.45-.1-1.14-.1-2.02.03-.85.11-2.03.42-3.29-.12-.59-.25-1.29-.78-1.35-1.64-.08-.86.55-1.58 1.17-2.07 2.6-1.91 5.75-4.08 9.57-5.97 3.8-1.9 8.17-3.61 12.92-4.83 9.52-2.49 18.56-2.46 24.9-1.56 1.59.24 3.03.43 4.27.73 1.24.27 2.32.48 3.18.76l1.98.59c.45.14.68.22.68.25-.01.02-.25-.02-.71-.12l-2-.47c-.86-.24-1.94-.41-3.19-.65-1.24-.27-2.67-.43-4.25-.64-6.31-.78-15.26-.73-24.69 1.73a65.95 65.95 0 0 0-12.84 4.73zm9.24 8.14c-.34.02-.84.04-1.48-.07-.63-.1-1.48-.44-1.97-1.31-.24-.42-.37-1-.15-1.55s.68-.93 1.1-1.29c1.73-1.51 4.04-3.03 6.85-4.19 2.8-1.16 6.09-1.95 9.58-2.2 7.03-.49 13.27 1.24 17.53 2.75 2.15.77 3.84 1.5 4.99 2.04.58.26 1.02.49 1.32.64.3.16.45.25.44.27-.02.04-.67-.22-1.85-.68s-2.89-1.13-5.04-1.84c-4.27-1.39-10.45-3.03-17.34-2.54-3.42.25-6.65 1-9.4 2.11-2.76 1.1-5.05 2.55-6.78 3.99-.44.35-.84.7-1.02 1.11s-.1.87.09 1.23c.39.76 1.12 1.1 1.71 1.24 1.22.25 1.95.17 1.94.24 0 0-.18.03-.52.05z"/></g><path d="M35.8 386.73c2.23.27 5.28 1.44 8.92 3.15l6.14 2.45c2.29.68 4.8 1.18 7.46 1.45 5.34.54 11.26.06 17.32-1.02 6.07-1.08 11.73-2.6 16.92-3.75 5.19-1.17 9.91-2 13.91-2.35s7.26-.24 9.49-.04c.82.07 1.5.15 2.04.21v-.16a26.61 26.61 0 0 0-2.01-.3c-2.24-.28-5.52-.45-9.56-.16-4.03.29-8.79 1.08-13.99 2.22-5.21 1.12-10.87 2.63-16.91 3.7-6.03 1.08-11.89 1.57-17.16 1.06-2.63-.24-5.11-.72-7.37-1.37-2.25-.68-4.27-1.54-6.11-2.35-3.67-1.66-6.79-2.78-9.07-2.98-1.72-.2-2.84-.03-3.29.05v.06c.46-.02 1.58-.12 3.27.13zm-.17-26.33l3.02.58 3.7.44c1.33.15 2.77.15 4.28.18 3.02-.04 6.33-.3 9.76-.95 3.42-.68 6.6-1.67 9.41-2.75l3.9-1.76c1.21-.57 2.29-1.2 3.27-1.79 1-.55 1.83-1.16 2.58-1.66.76-.49 1.38-.97 1.87-1.37l1.06-.86h-.24l-.96.66-1.92 1.28-2.61 1.57-3.28 1.7c-1.18.61-2.51 1.12-3.89 1.69-2.79 1.05-5.94 2-9.32 2.68-3.39.64-6.66.92-9.65.99-1.49-.02-2.91 0-4.23-.12-1.33-.06-2.56-.21-3.68-.36-1.13-.11-2.12-.33-3.01-.49l-2.26-.47-.9-.21v.19l.84.25 2.26.58zm62.33-6.34a32.66 32.66 0 0 0-9.04 2.06c-3.02 1.14-5.91 2.82-8.85 4.5-2.93 1.69-5.81 3.32-8.79 4.4-2.98 1.06-6.01 1.58-8.92 1.78-5.83.37-11.12-.17-15.57-.19-4.45-.07-8.07.33-10.49.91-.6.15-1.15.27-1.61.41l-1.15.4c-.62.22-.94.34-.93.36s.34-.06.97-.24l1.16-.34c.46-.12 1-.21 1.61-.35 2.42-.5 6-.83 10.43-.7 4.43.07 9.71.66 15.62.32 2.95-.18 6.05-.7 9.1-1.78 3.04-1.1 5.96-2.75 8.89-4.44 2.94-1.69 5.8-3.35 8.76-4.47 2.95-1.15 5.96-1.81 8.86-2.06 5.82-.47 11.1.53 15.23 2.06a35.85 35.85 0 0 1 4.78 2.19v-.42c-1.35-.76-2.88-1.51-4.63-2.19-4.16-1.59-9.51-2.66-15.43-2.21zm13.53 12.2c-2.59-1.63-6.04-3.39-10.23-3.53-4.18-.17-8.57 1.44-12.78 3.5a94.43 94.43 0 0 0-11.52 6.58c-1.64 1.14-3.48 2.14-4.29 3.98-.41.9-.22 2.03.41 2.71.61.69 1.38 1.06 2.08 1.39 2.84 1.31 5.39 1.63 7.11 1.7a15.61 15.61 0 0 0 1.99-.06c.45-.05.69-.09.69-.11 0-.06-.96.04-2.66-.08-1.69-.13-4.19-.52-6.93-1.85-.68-.33-1.39-.71-1.89-1.3-.51-.58-.65-1.44-.3-2.2.7-1.57 2.47-2.57 4.13-3.69 3.39-2.22 7.26-4.46 11.48-6.49 4.18-2.04 8.46-3.62 12.49-3.48 4.03.1 7.42 1.76 10.01 3.33 2.61 1.6 4.53 3.2 5.88 4.25l.89.71v-.25l-.73-.65c-1.33-1.13-3.22-2.79-5.83-4.46zm-21.88 10.41l1.38.29 5.19 1.02 8.79 1.69 5.94 1.09 1.62.27.57.05c0-.02-.18-.08-.55-.17l-1.6-.38-5.9-1.29-8.76-1.83-5.18-1.06c-.85-.2-1.98-.26-2.21-.89-.12-.3.05-.63.37-.91.32-.27.73-.48 1.15-.62 3.68-1.12 7.39-1.45 10.72-1.22 3.33.22 6.28.94 8.65 1.83 4.76 1.76 7.22 3.86 7.3 3.72.01-.02-.14-.15-.43-.38-.3-.22-.72-.59-1.33-.97-1.18-.81-2.99-1.84-5.38-2.79-2.38-.95-5.38-1.73-8.77-1.99-3.39-.27-7.18.05-10.95 1.19-.5.16-.97.39-1.38.74-.2.18-.39.39-.52.67s-.14.64-.03.92c.24.65.86.89 1.31 1.02zm-44.21.79a49.36 49.36 0 0 1 10.11 1.2l4.13.99c.01-.04-.36-.21-1.05-.47-.69-.27-1.7-.6-2.98-.95-2.54-.7-6.17-1.34-10.21-1.39-4.04-.04-7.68.52-10.24 1.16-1.07.27-1.95.52-2.62.75v.29c.69-.17 1.6-.38 2.72-.61a48.94 48.94 0 0 1 10.14-.97zm-3.5 25.55c3.97-1.01 8.85-1.34 14.25-2.01 5.42-.66 11.22-2.25 17.22-4.06s11.73-3.49 17.08-4.31a75.26 75.26 0 0 1 14.32-.9c4.09.15 7.39.57 9.65.92l2.6.44c.6.1.91.15.92.13 0-.02-.3-.11-.89-.25-.59-.15-1.46-.34-2.59-.56-2.26-.43-5.56-.92-9.68-1.13-4.11-.18-9.04-.06-14.43.77-5.4.8-11.17 2.48-17.17 4.28-5.99 1.8-11.74 3.4-17.11 4.09-5.36.7-10.28 1.08-14.28 2.16-3.99 1.04-7.09 2.57-8.73 4.24-.19.19-.35.37-.51.55v.34c.2-.23.41-.47.68-.72 1.64-1.56 4.71-3.01 8.67-3.98zm8.46-20.67c1.15.67 2.82 1.67 5.06 2.55 4.4 1.81 11.09 3.32 18.4 2.32 3.64-.45 7-1.56 9.9-2.78 2.91-1.21 5.5-2.33 7.79-2.94 2.28-.63 4.2-.79 5.52-.75 1.32.03 2.04.2 2.06.14 0-.02-.17-.08-.52-.16a10.15 10.15 0 0 0-1.53-.22c-1.34-.12-3.31-.02-5.64.56-4.72 1.03-10.45 4.68-17.67 5.53-7.18.98-13.76-.43-18.16-2.11-2.23-.81-3.91-1.74-5.09-2.34-1.14-.67-1.79-1.03-1.81-1s.58.46 1.69 1.2zm56.42 16.56l4.25.64 3.19.65 2 .47.71.12c.01-.02-.23-.1-.68-.25l-1.98-.59c-.86-.28-1.93-.48-3.18-.76-1.24-.3-2.68-.5-4.27-.73-6.34-.9-15.38-.93-24.9 1.56A66.79 66.79 0 0 0 69 404.84c-3.82 1.89-6.97 4.06-9.57 5.97-.62.5-1.25 1.22-1.17 2.07.06.86.77 1.39 1.35 1.64 1.26.55 2.44.23 3.29.12.88-.14 1.57-.14 2.02-.03.45.1.67.23.68.21 0 0-.19-.18-.65-.33s-1.18-.19-2.08-.09c-.89.08-2 .33-3.12-.2-.54-.24-1.08-.71-1.1-1.35-.05-.64.44-1.23 1.05-1.7 2.59-1.83 5.76-3.96 9.55-5.79 3.78-1.85 8.12-3.53 12.82-4.74 9.45-2.46 18.4-2.5 24.71-1.72zm-31.4 13.07c-.19-.37-.27-.83-.09-1.23.18-.41.58-.76 1.02-1.11 1.73-1.44 4.02-2.88 6.78-3.99s5.98-1.86 9.4-2.11c6.89-.49 13.07 1.15 17.34 2.54 2.15.71 3.86 1.38 5.04 1.84s1.83.72 1.85.68c.01-.02-.14-.11-.44-.27-.3-.15-.74-.38-1.32-.64-1.15-.53-2.85-1.27-4.99-2.04-4.26-1.51-10.5-3.25-17.53-2.75-3.49.25-6.77 1.04-9.58 2.2s-5.12 2.68-6.85 4.19c-.43.36-.88.75-1.1 1.29-.22.55-.09 1.14.15 1.55.49.87 1.35 1.21 1.97 1.31.65.11 1.15.08 1.48.07.34-.02.51-.05.51-.07.01-.07-.72.01-1.94-.24-.58-.12-1.31-.46-1.7-1.22zM35 418.02c1.96 1.05 4.81 2.58 8.53 4.03 7.36 2.98 18.22 5.89 30.45 5.77a81.86 81.86 0 0 0 17.03-1.9c5.15-1.1 9.75-2.17 13.69-2.63 3.93-.5 7.15-.41 9.35-.12l1.46.2 1.06.21c.57.11.88.16.88.14.01-.02-.29-.11-.85-.27l-1.05-.27-1.46-.26c-2.2-.36-5.46-.53-9.43-.08-7.96.73-18.51 4.49-30.67 4.34-12.13.11-22.91-2.7-30.28-5.56-3.72-1.39-6.58-2.85-8.57-3.83l-2.26-1.2-.31-.16v.12l.25.16 2.18 1.31zm66.22-.66c-2.77.04-5.41-.11-7.78-.5-2.36-.38-4.45-.98-6.13-1.64-3.39-1.32-5.15-2.79-5.22-2.68-.01.02.09.12.29.29.2.18.52.43.94.72.84.58 2.12 1.37 3.82 2.08 1.7.72 3.81 1.37 6.21 1.79 2.4.43 5.08.6 7.88.56 5.61-.12 10.61-.83 14.25-1.19l2.55-.31v-.33l-2.59.19c-3.65.26-8.67.91-14.22 1.02zm-56.25 8.02c4.1 1.08 8.82 2.97 14.32 4.28 5.48 1.33 11.67 2.18 18.19 2.21 13.14.32 24.43-4.31 32.93-4.02 3.02.01 5.59.47 7.61 1.06v-.32c-2.02-.64-4.59-1.13-7.6-1.19-8.66-.38-19.93 4.17-32.93 3.84-6.47-.02-12.61-.86-18.06-2.14-5.46-1.27-10.19-3.12-14.34-4.15-4.13-1.09-7.63-1.38-10.01-1.18a18.76 18.76 0 0 0-2.53.35v.14c.61-.09 1.46-.19 2.54-.24 2.36-.13 5.8.22 9.88 1.36zm-2.52 13.43c3.93-1.7 8.92-3.08 14.59-3.26 5.67-.25 11.89.58 18.41 1.4 3.26.4 6.47.74 9.58.87 3.11.15 6.13.01 8.97-.25 5.67-.53 10.79-1.03 15.04-.36 3.99.57 7.04 1.96 8.98 3.3v-.32c-1.94-1.39-4.98-2.81-8.92-3.42-4.31-.73-9.5-.27-15.15.22-2.83.24-5.81.36-8.89.21-3.08-.14-6.27-.48-9.53-.88-6.51-.82-12.78-1.64-18.51-1.35a39.84 39.84 0 0 0-14.75 3.43c-3.97 1.76-6.85 3.82-8.72 5.33-.38.3-.7.58-1 .84v.25l1.15-.9c1.91-1.43 4.8-3.41 8.75-5.11zm32.69 5.38c-4.24-.86-8.35-1.45-12.12-1.44-3.77-.01-7.16.55-9.87 1.42-2.62.84-4.6 1.91-5.91 2.8h.49c1.32-.78 3.18-1.67 5.55-2.38 2.69-.79 6.03-1.3 9.74-1.26 3.72.03 7.78.62 12 1.48l10.11 2.16h3.13l-1.23-.22c-3.67-.7-7.66-1.7-11.89-2.56z" class="S"/><g class="T"><path d="M32.55 381.33H94.4v1.21H32.55zm0 31.84h61.86v1.21H32.55z"/><path d="M57.45 381.94h13.06v2.77H57.45zm0-31.48h13.06v2.77H57.45zm0 63.15h13.06v2.77H57.45z"/></g><path d="M94.4 350.46h23.62v96.55H94.4zm-61.85-39.75h8.34v39.75h-8.34zm12.58 4.05h5.82v35.71h-5.82z" class="S"/><path d="M40.89 314.76h4.24v35.71h-4.24z" class="T"/><path d="M50.94 318.86h4.3v31.61h-4.3z" class="V"/><path d="M55.24 308.03h9.1v42.43h-9.1zm15.53 23.69l-.86 3.58.86 1.29v2.15l-.86 2 .86.72v5.01l-.86.57.86.72v2.72h25.04 20.89v-3.29l-.86-1.57.86-7.15-.72-3.43s-.72-1.43-.72-1.86.14-1.43.14-1.43H70.77z" class="S"/><path d="M94.4 350.46l-1.1-5.18 1.1-2.14v-2.05l-1.1-1.07 1.1-1.64v-6.66h21.01l-.15 1.43.72 1.86.72 3.44-.86 7.15.86 1.57v3.29z" opacity=".24" class="T"/><path d="M481.3 447.04c0 .14-102.73.26-229.42.26-126.74 0-229.44-.12-229.44-.26s102.71-.26 229.44-.26l229.42.26z" class="Q"/><path d="M129.383 155.821l34.03-.139.176 42.97-34.03.139z" class="P"/><g class="Q"><path d="M129.56 198.78l.64-.03 1.83-.03 6.91-.08 24.65-.21-.21.22-.22-42.96c-.06-.06.49.49.26.26h-.01-.02-.04-.07-.14-.29-.57-1.15l-2.28.01-4.5.02-8.75.03-16.21.05.23-.23.01 30.98-.03 8.81-.02 2.35-.01.61c0 .13-.01.2-.01.2s-.01-.06-.01-.19l-.02-.58-.04-2.3-.1-8.76-.24-31.13v-.23h.23l16.21-.09 8.75-.04 4.5-.02 2.28-.01h1.15.57.29.14.07.04.02.01c-.23-.23.32.32.27.26l.13 42.96v.22h-.22c-10.27 0-18.8-.01-24.78-.01l-6.86-.03-1.79-.02c-.41-.01-.6-.03-.6-.03z"/><path d="M144.429 197.761l4.72-.018.004 1.15-4.72.018z"/></g><path d="M141.521 170.802l10.32-.042.061 14.91-10.32.042z" class="R"/><path d="M141.521 170.802l10.32-.042.061 14.91-10.32.042z" opacity=".5" class="P"/><path d="M144.919 155.171l4.72-.019.004.98-4.72.019z" class="Q"/><circle cx="238.23" cy="129.68" r="22.84" class="R"/><path d="M248.72 130.38c0 .07-1.14.13-3.03.17l-7.47.09h-.26v-.26-1.48l.08-8.47.18-3.51c.07 0 .14 1.34.18 3.51l.08 8.47v1.48l-.26-.26 7.47.09 3.03.17zm-10.42-19.79c.14 0 .26.86.26 1.92s-.12 1.92-.26 1.92-.26-.86-.26-1.92.11-1.92.26-1.92zm10.4 3.08c.1.1-.41.78-1.15 1.52s-1.42 1.25-1.52 1.15.41-.78 1.15-1.52c.74-.73 1.42-1.25 1.52-1.15zm6.09 6.65c.06.13-.63.61-1.52 1.15-.88.54-1.63.93-1.72.82-.08-.11.54-.71 1.45-1.26.91-.56 1.73-.84 1.79-.71zm3.56 9.86c0 .14-1.17.26-2.62.26s-2.62-.12-2.62-.26 1.17-.26 2.62-.26 2.62.12 2.62.26zm-36.27-.35c0 .14-1.11.26-2.47.26-1.37 0-2.47-.12-2.47-.26s1.11-.26 2.47-.26 2.47.12 2.47.26zm2.56 7.35c.09.11-.71.91-1.8 1.78-1.09.88-2.04 1.49-2.12 1.38-.09-.12.72-.91 1.8-1.78 1.08-.88 2.03-1.49 2.12-1.38zm6.33 5.68c.12.09-.46 1.07-1.17 2.26-.72 1.19-1.31 2.16-1.45 2.1-.13-.06.27-1.15 1-2.37s1.51-2.08 1.62-1.99zm7.33 7.32c-.14 0-.26-1.17-.26-2.62 0-1.44.12-2.62.26-2.62s.26 1.17.26 2.62-.12 2.62-.26 2.62zm11.27-3.48c-.08.12-1.13-.43-2.23-1.39s-1.79-1.93-1.68-2.02c.11-.1.95.7 2.03 1.63 1.06.92 1.97 1.65 1.88 1.78zm5.3-5.7c-.1.1-.91-.54-1.81-1.44s-1.55-1.71-1.44-1.81c.1-.1.91.54 1.81 1.44.89.89 1.54 1.7 1.44 1.81zm-30.47-18.2c-.1.1-.82-.45-1.61-1.24s-1.34-1.51-1.24-1.61.82.45 1.61 1.24 1.34 1.51 1.24 1.61zm6.53-6.88c-.1.1-.81-.44-1.58-1.21s-1.32-1.48-1.21-1.58c.1-.1.81.44 1.58 1.21s1.32 1.48 1.21 1.58zm78.006 86.533l34.892-3.309 2.23 23.514-34.892 3.309z" class="P"/><g class="Q"><path d="M346.08 222.65c-.01-.01-.03-.16-.07-.44l-.14-1.25-.5-4.74-1.73-17.06.23.19-34.88 3.36c-.05.06.44-.54.23-.28v.01.01.02.05l.01.1.02.2.04.39.07.78.15 1.56.29 3.08.57 6.01 1.06 11.3-.26-.21 25.09-2.26 7.21-.62 1.93-.15.5-.03c.11-.02.17-.02.18-.02.01.01-.2.04-.63.09l-1.88.21-7.14.74-25.22 2.51-.24.02-.02-.24-1.09-11.3-.57-6.01-.29-3.08-.15-1.56-.07-.78-.04-.39-.02-.2-.01-.1v-.05-.02-.01-.01c-.21.25.29-.35.24-.29l34.89-3.26.21-.02.02.21 1.52 17.21.39 4.71.09 1.22.01.4z"/><path d="M343.84 199.13c.03.02-.35.49-1.06 1.33l-3.05 3.51-10.3 11.56-.15.16-.19-.12-.93-.59-13.64-8.78-4.1-2.71-1.1-.76c-.25-.18-.37-.28-.36-.29.01-.02.15.06.42.21l1.15.68 4.19 2.57 13.72 8.66.93.59-.33.05 10.42-11.46 3.17-3.41 1.21-1.2z"/></g><path d="M296.75 83.55h44.24v65.84h-44.24z" class="R"/><path d="M296.75 83.55h44.24v65.84h-44.24z" opacity=".3"/><path d="M341.5 149.9h-45.26V83.03h45.26v66.87zm-44.24-1.02h43.21V84.06h-43.21v64.82z" class="Q"/><path d="M301.2 87.61h35.41v57.68H301.2z" class="P"/><path d="M308.92 103.96h19.88v23.3h-19.88z" class="R"/><path d="M269.77 197.92c-.01-.04.36.02.87-.33a1.65 1.65 0 0 0 .61-.91c.1-.42.03-.97.05-1.57l.06-10.14.03-3.36.02-1.79c0-.3.03-.62-.03-.87-.05-.26-.18-.51-.37-.71a1.37 1.37 0 0 0-.71-.38c-.25-.04-.61-.01-.92-.02l-1.98.01-4.13.01-18.41.02c-.69-.01-1.31.6-1.36 1.28l-.04 2.38-.07 4.7-.14 8.88-.02 1.05a1.43 1.43 0 0 0 .21.87 1.36 1.36 0 0 0 .66.55c.26.12.57.08.92.09l3.9.01 7 .03 10.14.08 2.76.05.72.03.23.04s-.08.02-.24.03l-.72.03-2.76.05-10.14.08-7 .03-3.9.01c-.31-.01-.71.04-1.08-.12a1.79 1.79 0 0 1-.89-.74c-.21-.33-.31-.75-.28-1.12l.01-1.05.11-8.88.06-4.7.04-2.42c.06-.93.9-1.77 1.87-1.76l18.41.02 4.13.01 1.98.01c.33.01.62-.02 1.01.04a1.85 1.85 0 0 1 1.42 1.44c.07.36.02.66.03.96l-.03 1.79-.06 3.36-.23 10.14c-.04.6.02 1.12-.11 1.6a1.74 1.74 0 0 1-.7.96 1.57 1.57 0 0 1-.69.25c-.16 0-.24-.01-.24-.02zm-11.39-11.87l3.41 2.07-3.49 2.05-3.48 2.04.07-4.11.08-4.12z" class="Q"/><path d="M187.54 245.43l-25.5-13.77h0a22.34 22.34 0 0 0 7.1-8.04l9.34-17.91c1.78-3.31 5.12-5.49 8.86-5.81h0L211 212.67h0c-2.79 1.31-5.09 3.49-6.55 6.2l-10.57 19.59c-1.53 2.82-3.7 5.2-6.34 6.97h0z" class="P"/><g class="Q"><path d="M187.54 245.43c0-.01.09-.08.28-.23l.83-.64c.71-.58 1.75-1.48 2.87-2.82.56-.67 1.13-1.46 1.69-2.37l1.66-3.05 3.99-7.48 4.85-9.06 1.43-2.45c.55-.79 1.2-1.54 1.92-2.24a15.24 15.24 0 0 1 2.41-1.85c.44-.27.89-.52 1.36-.74l.04-.02.02-.01-.02.41-.08-.05-.17-.09-.34-.18-.68-.37-11.48-6.18-6.07-3.27-3.1-1.67-1.57-.85-.1-.05-.05-.03c-.04-.01.26.05.12.03h-.03l-.22.03-.43.05-.86.17c-2.28.53-4.35 1.81-5.82 3.55-.76.86-1.29 1.85-1.82 2.89l-1.58 3.03-6.04 11.55c-.96 1.83-1.85 3.68-3.07 5.27a22.57 22.57 0 0 1-4 4.15l-1.11.83-.14.1-.07.05c-.04-.72 0-.19 0-.35l.02.01.04.02.3.16.59.32 2.3 1.25 4.33 2.36 13.05 7.14 3.54 1.96.91.52.3.2s-.12-.04-.33-.15l-.94-.48-3.58-1.88-13.13-7-4.35-2.33-2.31-1.24-.59-.32-.3-.16-.04-.02-.02-.01c-.01-.16.01.35-.04-.37l.07-.05.14-.1a17.04 17.04 0 0 0 1.08-.82c1.42-1.15 2.75-2.52 3.91-4.09 1.18-1.55 2.05-3.37 3.01-5.22l6.02-11.56 1.58-3.03c.51-1.01 1.08-2.09 1.88-2.98 1.54-1.83 3.7-3.17 6.09-3.72.3-.08.6-.12.9-.18l.46-.05.23-.03h.03c-.12-.03.2.04.17.03l.05.03.1.05 1.57.85 3.1 1.68 6.06 3.28 11.46 6.2.68.37.34.18.17.09.08.05c0 .19.03-.41 0 .44l-.02.01-.04.02a15.24 15.24 0 0 0-1.32.72c-.85.52-1.63 1.12-2.34 1.79a14.63 14.63 0 0 0-1.87 2.16c-.54.77-.97 1.59-1.41 2.4l-4.91 9.03-4.06 7.44-1.7 3.04c-.57.91-1.17 1.7-1.74 2.37-1.15 1.34-2.22 2.22-2.96 2.77l-.86.6c-.21.14-.32.2-.32.19zm11.87-26c-.05.09-4.23-2.1-9.35-4.89-5.11-2.79-9.22-5.12-9.17-5.21s4.23 2.1 9.35 4.89c5.11 2.79 9.22 5.13 9.17 5.21z"/><use xlink:href="#C"/><path d="M196.32 226.1c-.05.09-4.37-2.18-9.66-5.06s-9.53-5.29-9.48-5.38 4.37 2.18 9.66 5.06c5.28 2.88 9.52 5.29 9.48 5.38z"/><use xlink:href="#C" x="-3.39" y="6.21"/><path d="M192.93 232.3c-.05.09-4.37-2.18-9.66-5.06s-9.53-5.29-9.48-5.38 4.37 2.18 9.66 5.06c5.28 2.89 9.53 5.3 9.48 5.38zm-10.9-1.91c-.02.04-.6-.22-1.52-.68l-3.54-1.87-3.49-1.96-1.39-.91c.02-.04.6.22 1.52.68l3.54 1.87 3.49 1.96 1.39.91zm6.03 8.02c-.03-.02.1-.25.2-.7.1-.44.13-1.15-.21-1.89a2.84 2.84 0 0 0-2.18-1.61c-1.04-.17-2.3.35-2.88 1.44a2.84 2.84 0 0 0 .35 3.2c.7.81 1.74 1.08 2.54.96.81-.11 1.38-.52 1.71-.84.32-.34.44-.57.47-.56.01.01-.07.27-.38.64-.3.37-.89.85-1.77 1a3.09 3.09 0 0 1-2.83-.99c-.81-.86-1.1-2.38-.42-3.6.66-1.23 2.09-1.81 3.25-1.6 1.19.19 2.04 1.03 2.36 1.84.35.82.26 1.58.12 2.03-.14.48-.32.69-.33.68zm-5.263-32.566l7.383 4.027-.579 1.062-7.383-4.027z"/></g><path d="M163.38 129.68l-6.54-6.95v23.03l13.89-15.59z" class="R"/><path d="M163.38 129.68l-6.54-6.95v23.03l13.89-15.59z" opacity=".5" class="P"/><path d="M156.99 145.59l8.13-15.8-1.74-.11-1.07-1.13-5.32 17.04" class="R"/><path d="M163.38 129.68c.07.02-.2.96-.72 2.45l-2.21 5.73-2.45 5.63-1.15 2.27c-.07-.03.25-.95.81-2.42l2.31-5.68 2.35-5.66 1.06-2.32zm-.05-3.05c.14.03.06 1.15-.19 2.51-.25 1.35-.56 2.43-.7 2.41s-.06-1.14.19-2.51c.24-1.36.55-2.44.7-2.41zm2.61-9.65c.14.05-.08 1.15-.47 2.47-.4 1.32-.83 2.36-.97 2.32s.07-1.14.47-2.47c.4-1.32.83-2.36.97-2.32zm3.68-9.29c.13.06-.2 1.14-.74 2.4-.54 1.27-1.09 2.25-1.22 2.2s.2-1.13.74-2.4c.54-1.28 1.09-2.26 1.22-2.2zm4.67-8.84c.12.07-.33 1.11-1 2.3-.68 1.2-1.33 2.12-1.46 2.05s.32-1.1 1-2.31c.69-1.2 1.34-2.11 1.46-2.04zm5.62-8.27c.11.09-.45 1.06-1.25 2.18s-1.55 1.96-1.67 1.88.44-1.06 1.25-2.18c.81-1.13 1.56-1.96 1.67-1.88zm6.5-7.59c.1.1-.56 1.01-1.48 2.03s-1.76 1.77-1.87 1.68.56-1 1.48-2.03c.93-1.03 1.76-1.78 1.87-1.68zm7.32-6.81c.09.11-.67.94-1.71 1.84-1.03.91-1.95 1.56-2.05 1.45-.1-.1.67-.93 1.71-1.84s1.96-1.56 2.05-1.45zm8.07-5.89c.08.13-.81.81-1.93 1.61-1.13.79-2.11 1.33-2.2 1.21s.77-.85 1.9-1.64c1.14-.81 2.16-1.3 2.23-1.18zm8.73-4.87c.06.13-.88.75-2.1 1.38s-2.27 1.05-2.34.92c-.07-.12.87-.74 2.1-1.38s2.28-1.05 2.34-.92zm9.25-3.79c.05.14-.96.64-2.25 1.12s-2.38.77-2.43.64c-.06-.13.95-.64 2.25-1.12 1.3-.49 2.39-.78 2.43-.64zm9.63-2.69c.03.14-1.03.52-2.36.85-1.34.33-2.45.49-2.49.35s1.02-.52 2.36-.85c1.35-.33 2.46-.49 2.49-.35zm9.88-1.55c.01.14-1.08.4-2.45.58-1.37.17-2.49.2-2.51.06s1.07-.4 2.45-.58c1.37-.18 2.5-.21 2.51-.06zm9.98-.4c0 .14-1.12.27-2.5.29-1.38.01-2.5-.09-2.5-.23-.01-.14 1.11-.27 2.5-.29s2.51.08 2.5.23zm9.96.78c-.02.14-1.15.14-2.51-.01-1.37-.15-2.47-.38-2.46-.53.01-.14 1.13-.14 2.51.01s2.48.38 2.46.53zm9.8 1.97c-.04.14-1.15 0-2.49-.32-1.34-.31-2.4-.68-2.38-.82.03-.14 1.14 0 2.49.32 1.35.31 2.42.68 2.38.82zm9.47 3.19c-.06.13-1.14-.15-2.43-.63s-2.29-.98-2.25-1.12 1.13.15 2.43.63c1.29.49 2.3.99 2.25 1.12zm8.92 4.5c-.08.12-1.11-.32-2.31-.98-1.2-.67-2.12-1.31-2.06-1.44s1.1.31 2.31.98c1.21.68 2.13 1.32 2.06 1.44zm8.02 5.94c-.1.11-1.04-.51-2.1-1.38s-1.86-1.66-1.77-1.78c.08-.12 1.03.5 2.1 1.38s1.87 1.68 1.77 1.78zm6.84 7.25c-.12.08-.81-.8-1.68-1.85-.87-1.06-1.57-1.92-1.47-2.03.1-.1.98.62 1.87 1.7.89 1.07 1.4 2.1 1.28 2.18zm-25.79 106.26c0 .14-1.13.2-2.51.12s-2.5-.26-2.48-.4c.01-.14 1.14-.2 2.51-.12 1.37.07 2.48.25 2.48.4zm9.98-.5c.02.14-1.09.36-2.47.48s-2.51.1-2.51-.04c-.01-.14 1.1-.36 2.47-.48s2.49-.1 2.51.04zm9.76-2.14c.04.14-1.01.54-2.35.9s-2.45.54-2.48.4 1.02-.54 2.35-.9c1.32-.36 2.43-.53 2.48-.4zm9.12-4.06c.07.12-.83.8-2.07 1.44s-2.32.98-2.38.85.92-.68 2.14-1.31 2.23-1.1 2.31-.98zm7.84-6.15c.1.1-.59 1-1.63 1.93-1.03.93-2 1.53-2.09 1.41s.72-.88 1.74-1.8c1.03-.92 1.88-1.64 1.98-1.54zm5.94-8.02c.13.07-.3 1.12-1.05 2.29s-1.53 2-1.64 1.92c-.12-.09.46-1.04 1.2-2.2.74-1.15 1.36-2.07 1.49-2.01zm3.38-9.36c.14.02.06 1.16-.31 2.5s-.88 2.36-1.01 2.31c-.14-.05.15-1.13.51-2.45.36-1.31.67-2.39.81-2.36zm.35-7.93c.14-.02.29.64.33 1.47s-.05 1.49-.19 1.49-.29-.66-.33-1.47c-.04-.8.04-1.47.19-1.49zm-122.72 52.62c.11.09-.51 1.02-1.31 2.13s-1.49 2-1.61 1.92c-.12-.07.37-1.1 1.19-2.22.81-1.13 1.62-1.92 1.73-1.83zm7.18-6.92c.09.12-.73.88-1.77 1.77s-1.92 1.59-2.02 1.48c-.1-.1.62-.97 1.68-1.88 1.05-.9 2.02-1.49 2.11-1.37zm8.55-5.17c.06.13-.87.76-2.09 1.41-1.21.65-2.26 1.07-2.33.95-.08-.12.86-.75 2.09-1.41 1.22-.66 2.27-1.08 2.33-.95zm9.46-3.21c.03.14-1.04.49-2.36.86s-2.41.62-2.46.49.98-.62 2.32-.99c1.34-.38 2.47-.5 2.5-.36zm9.92-1.03c0 .15-1.12.24-2.49.3s-2.49.07-2.5-.07c-.02-.14 1.09-.38 2.48-.45 1.39-.06 2.51.08 2.51.22zm5.6.46c-.02.14-.18.24-.35.21-.17-.02-.29-.16-.27-.3s.17-.24.35-.21c.17.02.3.15.27.3zm-27.99 82.5c.08-.12 1.08.39 2.24 1.14s2.04 1.45 1.96 1.57-1.08-.39-2.24-1.14-2.04-1.45-1.96-1.57zm-8.02-5.96c.1-.11 1.04.5 2.12 1.35s1.88 1.64 1.79 1.76c-.08.12-1.03-.49-2.12-1.35-1.08-.87-1.89-1.65-1.79-1.76zm-6.12-7.83c.13-.07.75.86 1.48 2.02.72 1.16 1.31 2.11 1.19 2.2-.11.09-.9-.74-1.63-1.92-.74-1.18-1.16-2.23-1.04-2.3zm-3.82-9.23c.14-.04.62.98 1.08 2.27s.73 2.38.59 2.44c-.13.06-.62-.96-1.09-2.27-.45-1.31-.71-2.4-.58-2.44z" class="Q"/><g class="U"><path d="M268.95 358.29l-2.06 88.99h-3.92l.25-88.77zm14.18-.99l19.08 89.98h4.38L290.7 357.3zm-35.78.99l-21.11 88.99h-4.38l19.17-89.36z"/><path d="M302.27 272.95s21.07-1.2 18.97 23.18c-2.11 24.38-3.31 49.07-11.14 57.5s-86.7 8.73-93.32 1.81 12.64-6.62 16.26-6.62c3.61 0 25.89 2.11 33.12-16.86 7.21-18.97 5.41-60.21 36.11-59.01z"/><use xlink:href="#D"/></g><use xlink:href="#D" opacity=".2"/><g class="U"><use xlink:href="#E"/><use xlink:href="#F"/><use xlink:href="#G"/></g><g opacity=".2"><use xlink:href="#E"/><use xlink:href="#F"/><use xlink:href="#G"/></g><path d="M266.23 212.11c-.27-.1-.62-.21-1.07-.33-1.1-.28-2.74-.6-4.79-.42-2.02.17-4.52.92-6.51 2.84-.99.94-1.83 2.16-2.34 3.57a7.95 7.95 0 0 0-.44 2.24c-.05.78.06 1.54.02 2.28-.03.74-.26 1.41-.78 1.87-.5.47-1.19.74-1.85 1.02s-1.37.6-1.92 1.09c-.56.48-.99 1.06-1.31 1.68-.63 1.25-.73 2.67-.37 3.85.34 1.19.93 2.15 1.43 3.03.24.38.44.75.63 1.12.04.31.06.62.03.94-.11 1.38-.97 2.57-1.9 3.59s-1.97 1.97-2.6 3.2-.74 2.85.17 3.89c1.01 1.16 2.77 1.16 4.31 1.12 5.36-.14 10.71.38 16.04.9l4.32-37.18a18.75 18.75 0 0 0-1.07-.3zm-13.47 6.58c-.24 1.47-.03 3.06-.73 4.37-.75 1.4-2.32 2.1-3.51 3.14-1.86 1.63-2.77 4.28-2.32 6.71.12.62.31 1.23.48 1.84-.02-.03-.04-.07-.06-.1-.48-.88-1.04-1.84-1.33-2.96-.31-1.1-.21-2.38.38-3.52.3-.56.69-1.1 1.2-1.52.5-.44 1.12-.72 1.79-1 .66-.29 1.39-.56 2-1.11.63-.55.92-1.43.94-2.22.04-.8-.07-1.56-.02-2.28a7.44 7.44 0 0 1 .4-2.1c.48-1.32 1.26-2.49 2.2-3.39 1.87-1.85 4.25-2.61 6.21-2.82.54-.06 1.05-.08 1.53-.08-1.18.05-2.34.24-3.46.64-2.81 1.01-5.22 3.44-5.7 6.4z" class="Q"/><path d="M260.1 256.09c.32-1.71-.24-8.94-.24-8.94s-6.4-.81-6.68-7.34c-.28-6.54.37-21.59.37-21.59l11.79-5.66 10.29 11.73.19 31.69-15.72.11z" class="W"/><g class="Q"><path d="M255.21 229.22c-.01.46.35.84.8.85s.82-.36.83-.82-.35-.84-.8-.85-.82.36-.83.82z"/><use xlink:href="#H"/><path d="M264.75 229.22c-.01.46.35.84.8.85s.82-.36.83-.82-.35-.84-.8-.85-.82.36-.83.82z"/><use xlink:href="#H" x="9.72" y="0.17"/><path d="M260.29 236.01c0-.05-.54-.13-1.43-.22-.22-.02-.44-.06-.48-.22-.06-.17.03-.43.14-.72l.63-1.85 1.41-4.84c-.1-.03-.89 2.08-1.77 4.71l-.61 1.86c-.08.28-.22.59-.1.95.06.18.23.3.37.34a1.33 1.33 0 0 0 .38.04c.91.02 1.46 0 1.46-.05z"/></g><path d="M259.86 247.16s4.28.12 8.48-2.78c0 0-1.99 4.76-8.37 4.38l-.11-1.6z" fill="#eb996e"/><path d="M291.67 233.01c-.33.08-.77.1-1.24.03-.74-1.15-2.07-2.01-3.06-3.07a5.14 5.14 0 0 1 .24-2.85l.46-1.55c.12-.55.13-1.18-.09-1.77-.44-1.15-1.52-1.84-2.56-2.35-.88-1.23-2.49-1.8-3.62-2.84-.24-.57-.38-1.17-.5-1.76-.2-1-.35-2.01-.77-2.87-.4-.87-1.03-1.54-1.66-2.03-.98-.75-2-1.06-2.82-1.16a7.8 7.8 0 0 0-2.3-.77c-2.42-.38-4.98.47-6.72 2.19-3.52-1.01-7.46-.25-10.62 1.64-1.39.83-2.7 1.92-3.36 3.39-.59 1.32-.62 2.81-.63 4.25l-.03 3.1c0 .26 0 .54.14.76.23.35.72.4 1.14.42l4.79.18c.33.01.67.02.96-.15.49-.29.8-.94.75-1.52-.04-.46-.01-1.38-.02-1.64.21 1.02.41 1.22.57 1.86.16.65.44 1.34 1.03 1.66.41.23.91.23 1.38.23.69 0 1.38-.02 2.07-.05.34-.01.71-.04.98-.25.44-.34.44-.99.36-1.54s-.31-1.12-.32-2.14c.62 1.22.91 2.73 1.68 2.94.83.22 2.08-.1 2.31-.17l1.88-.61c-.05.32-.12.63-.24.94-.58 1.57-1.88 3.08-1.44 4.69.41 1.46 2.07 2.17 2.91 3.44.92 1.38.73 3.22.18 4.79-.54 1.56-1.41 3.02-1.77 4.63-.37 1.62-.1 3.54 1.22 4.54 1.01.77 2.38.81 3.66.82l11.62.11c.75.01 1.52.01 2.23-.24s1.35-.82 1.48-1.56c.15-.87-.43-1.7-1.07-2.31s-1.39-1.15-1.77-1.95c-.61-1.31-.02-2.84.66-4.11.67-1.28 1.46-2.64 1.21-4.06-.06-.35-.18-.67-.34-.98.43.02.83-.04 1.13-.13.43-.13.74-.31.92-.45.18-.15.26-.24.25-.25-.07-.03-.43.33-1.26.52zm-14.86-21.78a6.02 6.02 0 0 1 1.82 1c.58.48 1.15 1.11 1.49 1.92.37.8.5 1.76.69 2.78l.13.62c-.57-.97-.84-2.12-1.33-3.16-.61-1.28-1.61-2.37-2.8-3.16zm9.01 11.04c.75.44 1.39.99 1.67 1.72.37.96-.04 2.01-.34 2.99a5.51 5.51 0 0 0-.32 2.35c-.2-.28-.37-.57-.5-.89-.77-1.94.18-4.28-.51-6.17z" class="Q"/><path d="M260.61 238.31a1.71 1.71 0 0 1 1.02-1.25c.36-.15.79-.16 1.13.02s.58.58.52.96c-.07.43-.48.75-.91.84s-.87.01-1.3-.09c-.12-.03-.24-.05-.34-.12s-.17-.19-.14-.31" fill="#eb996e"/><path d="M262.78 235.98c.06-.01.18.24.15.67-.03.42-.23 1.02-.72 1.49-.49.46-1.1.63-1.52.63-.43 0-.67-.12-.66-.18 0-.14 1.02-.07 1.83-.83.79-.77.78-1.79.92-1.78z" class="Q"/><path d="M247.56 259.23s-19.37 16.84-19.87 14.79c-2.72-11.15-1.95-25.38-1.52-30.83a34.11 34.11 0 0 1 1.06-1.55 7.5 7.5 0 0 1 1.73-1.69c.81-.57 1.91-1.27 2.63-1.48.89-.25 1.04-1.44.26-1.73s-3.25.35-5.55 2.27-1.36-2.64-1.05-4.31 1.03-6.87.59-7.36c-.64-.72-1.55-.14-1.82 1.53-.27 1.69-1.44 6.64-2.32 6.46-.86-.18.83-8.65.83-8.65s.66-1.76-.35-2.01c-1.81-.44-2.95 8.68-3.04 9.55-.06.6-1.02.44-.92-.21.1-.67 1.89-8.42.05-8.89-1.41-.36-1.01 7.5-2.27 8.92-1.27 1.42.3-6-1.06-6.29-.51-.11-.9-.12-1.19 4.26-.15 2.35.1 6.84.38 10.57-1.21 12.03-3.56 48.85 13.08 47.58 19.63-1.5 24.15-16.97 24.15-16.97l-3.8-13.96z" class="W"/><path d="M301.82 285.97l-3.36-16.85c-2.48-13.79-21.8-14.74-21.8-14.74l-15.17-.25s-10.1-.32-18.19 6.31c-8.13 6.67-13.51 11.73-13.51 11.73l12.7 14.68 7.51-4.96s-2.7 4.88-2.25 9.04c.43 3.96 4.63 7.06 4.63 7.06l-3.15 33.87 49.54-1.99-6.38-43.91h9.43z" class="R"/><path d="M299.46 272.84s-.15.45-.59 1.24c-.44.78-1.18 1.9-2.42 3.1a13.64 13.64 0 0 1-5.33 3.18c-2.32.74-5.22.95-8.19.09-1.47-.44-2.98-1.14-4.27-2.25-1.27-1.1-2.38-2.67-2.5-4.57-.09-1.84.75-3.89 2.57-4.87.89-.48 2.02-.56 2.99-.2.99.34 1.81 1.05 2.42 1.91.6.86.98 1.9 1.01 2.98.02 1.07-.22 2.15-.67 3.14-.9 1.99-2.48 3.61-4.29 4.88-3.63 2.56-8.46 3.69-13.1 2.82-2.32-.45-4.52-1.36-6.37-2.74-1.85-1.37-3.35-3.22-4.07-5.36-.71-2.13-.68-4.49.21-6.48.86-1.99 2.67-3.58 4.79-3.88 2.1-.32 4.34 1.01 4.81 3.04.24 1-.02 2.04-.5 2.87-.49.83-1.2 1.5-2.01 1.97-1.65.92-3.54.9-5.18.65-1.66-.28-3.2-.75-4.64-1.27-2.88-1.04-5.31-2.59-6.87-4.49-1.59-1.89-2.17-4.05-2.23-5.75-.07-1.73.43-3.04.86-3.82.46-.78.82-1.1.82-1.1.03.02-.3.37-.73 1.15-.39.79-.85 2.07-.75 3.76.09 1.66.68 3.76 2.25 5.57 1.54 1.83 3.93 3.32 6.77 4.33 1.42.5 2.96.96 4.57 1.22 1.6.24 3.4.23 4.9-.63.74-.43 1.4-1.05 1.84-1.82.44-.76.66-1.67.44-2.54-.4-1.76-2.43-2.97-4.3-2.67-1.91.27-3.6 1.74-4.4 3.6-.83 1.87-.86 4.1-.18 6.12.69 2.02 2.12 3.8 3.9 5.11 1.78 1.33 3.92 2.22 6.16 2.65 4.5.84 9.19-.25 12.71-2.72 1.76-1.23 3.28-2.8 4.13-4.67.43-.93.65-1.93.64-2.92a5.07 5.07 0 0 0-.92-2.72c-.55-.79-1.3-1.43-2.18-1.74-.86-.32-1.84-.25-2.63.16-1.61.84-2.43 2.75-2.35 4.44.1 1.73 1.13 3.23 2.34 4.29 1.23 1.07 2.68 1.76 4.11 2.2a13.92 13.92 0 0 0 8-.01c2.29-.7 4.04-1.91 5.27-3.05a14.66 14.66 0 0 0 2.46-3 13.79 13.79 0 0 0 .5-.88l.2-.32zm-2.07 51.46c0 .01-.09.05-.27.12l-.81.28c-.72.22-1.82.48-3.26.56-1.44.09-3.22-.03-5.2-.6-1.96-.58-4.12-1.64-6-3.44-1.87-1.79-3.44-4.28-4.21-7.24-.38-1.48-.55-3.07-.46-4.69.11-1.62.45-3.32 1.38-4.82.47-.74 1.09-1.42 1.88-1.88s1.71-.7 2.65-.66c.93.04 1.9.43 2.55 1.17s.95 1.73.95 2.69c.01.97-.29 1.95-.83 2.77-.53.83-1.27 1.5-2.07 2.05-1.62 1.09-3.51 1.75-5.47 2.09-3.94.61-7.94-.29-11.13-2.24a14.64 14.64 0 0 1-4.07-3.67c-1.08-1.44-1.89-3.08-2.1-4.83-.23-1.74.28-3.53 1.36-4.8.54-.63 1.24-1.14 2.02-1.4.78-.27 1.63-.26 2.39-.06s1.47.6 1.99 1.17c.53.57.82 1.32.84 2.06.07 1.53-.86 2.77-1.81 3.62-.98.88-2.14 1.42-3.24 1.78-1.11.37-2.2.57-3.23.64-2.06.12-3.83-.28-5.17-.8-1.34-.54-2.28-1.16-2.87-1.64-.31-.22-.51-.43-.66-.56-.14-.13-.21-.2-.21-.21.02-.02.32.24.92.68s1.55 1.03 2.88 1.53a12.44 12.44 0 0 0 5.08.7c1-.08 2.06-.29 3.14-.66s2.17-.89 3.1-1.74c.9-.82 1.73-2 1.65-3.33-.01-1.34-1.15-2.51-2.54-2.84-.69-.18-1.45-.18-2.13.06-.69.23-1.32.7-1.82 1.28-.99 1.17-1.46 2.83-1.24 4.45.2 1.63.98 3.2 2.02 4.59 1.05 1.39 2.39 2.6 3.94 3.54a16.14 16.14 0 0 0 10.78 2.16c1.88-.33 3.72-.98 5.26-2.01 1.53-1.01 2.72-2.61 2.68-4.39 0-.87-.27-1.73-.82-2.36s-1.37-.97-2.2-1.01-1.67.17-2.38.59c-.71.41-1.28 1.03-1.72 1.71-.87 1.39-1.22 3.03-1.33 4.59a14.93 14.93 0 0 0 .42 4.56c.73 2.88 2.24 5.33 4.04 7.08 1.81 1.77 3.91 2.83 5.83 3.43 1.93.58 3.69.73 5.1.67 1.42-.06 2.51-.27 3.24-.46.77-.17 1.15-.3 1.16-.28z" class="P"/><g class="Q"><path d="M280.62 268.1c.04 0 .13.38.27 1.08l.58 2.95 1.89 9.75 1.74 9.79.42 2.99.07 1.11c-.04 0-.13-.38-.27-1.08l-.58-2.95-1.89-9.76-1.74-9.79-.42-2.99c-.08-.7-.11-1.1-.07-1.1z"/><path d="M302.13 286.14c0 .14-4.1.28-9.15.29-5.06.02-9.15-.08-9.15-.23 0-.14 4.1-.27 9.15-.29l9.15.23zm-59.65.73c-.11.09-2.93-3.17-6.3-7.29l-5.9-7.62c.11-.09 2.93 3.17 6.3 7.29l5.9 7.62zm32.83-32.4c0 .07-.87.17-2.29.26l-5.55.1-5.54-.27c-1.41-.12-2.28-.26-2.28-.33.01-.07.88-.07 2.3-.04l5.53.12 5.53.05 2.3.11zm-27.46 31.78c-.06-.03.28-.81.88-2.04l1.08-2.15c.4-.83.96-1.61.75-2.61l-.93-5.24c-.22-1.35-.31-2.19-.24-2.21.07-.01.3.8.61 2.13l1.09 5.24c.07.52.08 1.15-.18 1.61-.21.5-.44.9-.66 1.29l-1.17 2.09-1.23 1.89z"/></g><use xlink:href="#I" class="R"/><g class="Q"><use xlink:href="#J"/><use xlink:href="#K"/><use xlink:href="#L"/><use xlink:href="#M"/><path d="M207.31 442.04c-.09.15.23.5.75.7.53.2 1 .13 1.03-.04s-.35-.38-.81-.55c-.47-.17-.88-.26-.97-.11zm.29-1c-.02.17.48.32 1.1.33s1.12-.13 1.11-.3-.5-.32-1.1-.33c-.6 0-1.1.13-1.11.3z"/></g><use xlink:href="#I" x="39" class="R"/><g class="Q"><use xlink:href="#J" x="39.01"/><use xlink:href="#K" x="39"/><use xlink:href="#L" x="39"/><use xlink:href="#M" x="39"/><path d="M246.31 442.04c-.09.15.23.5.75.7.53.2 1 .13 1.03-.04s-.35-.38-.81-.55-.88-.26-.97-.11zm.29-1c-.02.17.48.32 1.1.33s1.12-.13 1.11-.3-.5-.32-1.1-.33c-.6 0-1.1.13-1.11.3z"/></g><path d="M303.89 299.48c-.98-8.09-2.06-13.31-2.06-13.31l-17.62.26s1.58 8.9 1.09 11.28c-.42 2.07-34.41 3.45-43.27 3.59-.53-.4-1.29.27-1.98-.32a7.34 7.34 0 0 1-1.51-1.86c-.48-.85-1.08-2.01-1.21-2.75-.17-.91-1.33-1.14-1.68-.38s.04 3.28 1.73 5.72c1.68 2.44-2.73 1.17-4.34.74-1.62-.43-6.68-1.53-7.2-1.12-.77.59-.29 1.54 1.34 1.94 1.64.4 6.41 1.92 6.15 2.79-.26.85-8.45-1.46-8.45-1.46s-1.67-.79-2.01.2c-.6 1.78 8.28 3.59 9.13 3.74.59.1.34 1.05-.29.91-.65-.15-8.12-2.5-8.76-.7-.48 1.39 7.3 1.55 8.59 2.93 1.29 1.37-5.89-.74-6.3.6-.15.5 2.83.73 7.13 1.34 4.02.57 11.48.51 13.27.47 9.96.55 45.15 1.27 52.66.74 8.76-.63 5.92-12.57 5.59-15.35z" class="W"/><use xlink:href="#N" class="Q"/><use xlink:href="#N" opacity=".2"/><path d="M265.13 357.29s34.47 2.34 33.61-28.61c0 0-47.93-5.83-57.12 4.06-7.7 8.29-.66 107.52-.66 107.52L266.6 439" class="Q"/><g class="U"><path d="M272.3 326.98c0 .02-.23.03-.68.04l-1.95.08-7.15.43-4.93.39-5.61.67c-1.95.4-4 .86-6.01 1.64-1.98.77-4.02 1.92-4.98 4-1 2.03-1.41 4.27-1.71 6.4-.27 2.15-.38 4.24-.43 6.23l-.41 10.63-.29 7.16-.07 1.95-.06.68s-.03-.23-.05-.68l-.03-1.95.12-7.17.3-10.62.4-6.29c.3-2.16.7-4.44 1.75-6.57.52-1.06 1.32-2.01 2.27-2.67.94-.68 1.97-1.16 2.99-1.56 2.06-.79 4.13-1.24 6.1-1.63 2-.34 3.89-.47 5.67-.62l4.94-.33 7.17-.26 1.95.02c.46-.01.7.01.7.03zm-5.5 105.56c0 .04-.36.09-1.02.15l-2.79.22-9.21.54-9.22.39-2.8.06c-.66 0-1.03-.01-1.03-.05s.36-.09 1.02-.15l2.79-.22 9.21-.54 9.22-.39 2.8-.06 1.03.05zm-37.97 1.16c0 .14-5.35.26-11.96.26s-11.96-.12-11.96-.26 5.35-.26 11.96-.26 11.96.11 11.96.26z"/><path d="M239.42 338.19c0 .01-.1.01-.29-.01l-.85-.07-3.26-.22-5.17-.02c-1 .05-2.08.14-3.2.32-1.11.2-2.31.46-3.37 1.08-.52.31-1.01.72-1.25 1.3-.27.59-.47 1.23-.65 1.9-.36 1.33-.65 2.74-.84 4.21l-.78 9.5c-.48 6.7-.83 14.09-1.11 21.84l-1.53 39.73-.53 12.04-.17 3.27-.06.85c-.02.19-.03.29-.04.29s-.01-.1-.02-.29l.01-.85.07-3.28.37-12.04 1.38-39.73c.28-7.76.64-15.15 1.15-21.86l.83-9.52a32.07 32.07 0 0 1 .88-4.26c.19-.67.4-1.33.69-1.95.29-.66.85-1.13 1.42-1.46 1.15-.65 2.37-.9 3.51-1.09 1.14-.18 2.23-.25 3.24-.29 2.03-.07 3.77.02 5.19.11 1.42.1 2.52.22 3.26.32l.84.12c.19.03.28.05.28.06zm53.57-10.1c.01 0 .01.12-.01.35l-.12 1.03c-.16.9-.51 2.23-1.4 3.74-.89 1.49-2.36 3.16-4.58 4.32a11.9 11.9 0 0 1-3.78 1.21c-1.41.19-2.89.11-4.43.13l-10.12.01h-5.64c-.96.01-1.96-.02-2.94.02-.97.04-1.94.26-2.84.67a7.66 7.66 0 0 0-4.02 4.35c-.37.98-.48 2.02-.47 3.1v3.31l.01 13.79-.08 48.38-.08 14.66-.05 3.99-.03 1.04-.03.35s-.02-.12-.03-.35l-.03-1.04-.05-3.99-.08-14.66-.08-48.38v-13.79-3.31c-.02-1.1.11-2.24.5-3.27a8.17 8.17 0 0 1 4.29-4.62c.96-.43 1.99-.67 3.02-.71h2.96l5.64.03 10.12.05 4.39-.09a11.47 11.47 0 0 0 3.69-1.14c2.17-1.11 3.64-2.72 4.54-4.17a12.03 12.03 0 0 0 1.47-3.66l.17-1.02c.07-.21.08-.33.09-.33zm-27.52 22.34c.14.01.16 1.78.04 3.97-.12 2.18-.34 3.95-.48 3.94s-.16-1.78-.04-3.97c.12-2.18.34-3.94.48-3.94z"/></g><use xlink:href="#O" class="Q"/><use xlink:href="#O" x="2.88" class="R"/><use xlink:href="#O" x="2.88" opacity=".3"/><use xlink:href="#O" x="7.29" class="Q"/><path d="M127.06 293.75s0-8.9.87-8.79.29 8.93.29 8.93l-1.45-.18" class="U"/><use xlink:href="#O" x="2.01" class="R"/><use xlink:href="#O" x="2.01" opacity=".5" class="P"/><path d="M122.17 307.18l-1.47-13.89h11.78v13.89z" class="R"/><g class="Q"><path d="M372.64 307.24H112.35v6.95h13.92l-7.21 132.64h3.97l7.21-132.64h228.2l6.15 132.62 4.39.23-6.57-132.85h10.23z"/><path d="M197.57 266.19L212 308.37h65.35l-.48-2.18-26.42-.81-12.18-39.21z"/></g><path d="M226.53 286c.43 1.73-.31 3.42-1.65 3.78s-2.78-.75-3.22-2.48c-.43-1.73.31-3.42 1.65-3.78 1.35-.36 2.79.75 3.22 2.48z" class="P"/><path d="M352.99 294.34c-1.26-1.07-2.99-1.21-4.06-1.17l-.03-1.26h-22.12s-.7 14.61 10.49 15.12c5.01.23 7.87-2.01 9.51-4.84.53.13 1.46.31 2.51.31 1.17 0 2.46-.22 3.48-.99.76-.57 1.66-1.68 1.66-3.74.01-1.82-.78-2.87-1.44-3.43zm-1.51 5.43c-.94.71-2.64.6-3.74.4.62-1.67.93-3.37 1.08-4.8.76-.05 2.03.02 2.77.64.45.38.68.96.68 1.77-.01.94-.26 1.6-.79 1.99z" class="R"/><path d="M347.08 290.37s-.23-.18-.53-.62a5.93 5.93 0 0 1-.91-2.16c-.21-1-.24-2.32.33-3.69.55-1.4 1.82-2.56 3.1-3.8 1.31-1.22 2.41-2.9 2.8-4.96.42-2.03.08-4.37-1.19-6.34-.62-.98-1.46-1.87-2.46-2.56-1-.7-2.19-1.12-3.42-1.54-1.22-.43-2.54-.86-3.61-1.82-.52-.47-.97-1.03-1.28-1.69-.3-.66-.44-1.43-.26-2.17l.08-.3.33.33c-1.2.41-1.88 1.71-2.02 2.95-.15 1.26.29 2.52.82 3.66l1.72 3.4c.5 1.16.84 2.41.7 3.66-.13 1.26-.81 2.35-1.65 3.15-.84.81-1.8 1.39-2.77 1.85-1.95.88-3.85 1.4-5.37 2.31-1.53.88-2.56 2.18-3.12 3.46a8.3 8.3 0 0 0-.75 3.49c.03 2 .66 3 .57 3.02-.01 0-.04-.06-.1-.18-.05-.12-.16-.3-.24-.55-.19-.5-.39-1.27-.44-2.28-.04-1.01.12-2.28.69-3.61.55-1.33 1.62-2.72 3.2-3.66 1.56-.97 3.49-1.51 5.38-2.38.93-.45 1.86-1.02 2.64-1.78.77-.76 1.38-1.75 1.49-2.88.13-1.13-.19-2.3-.68-3.41-.48-1.12-1.16-2.2-1.73-3.38-.55-1.17-1.04-2.51-.88-3.94.08-.7.29-1.39.68-2 .38-.62.97-1.13 1.68-1.38l.47-.17-.14.5-.07.25c-.3 1.24.44 2.52 1.38 3.35.95.86 2.22 1.29 3.43 1.72 1.22.42 2.48.86 3.53 1.61 1.06.73 1.93 1.67 2.58 2.71 1.33 2.08 1.67 4.56 1.21 6.68-.42 2.15-1.62 3.92-2.97 5.14-1.32 1.24-2.55 2.34-3.09 3.65-.56 1.29-.57 2.56-.4 3.53.41 2 1.35 2.8 1.27 2.83zM142.8 270.88l-.13-9.56 33.51 2.84.95 8.53z" class="Q"/><path d="M146.49 271.08c-.14 0-.34-2.11-.44-4.71s-.07-4.72.08-4.73c.14-.01.34 2.1.44 4.71s.06 4.73-.08 4.73zm1.26-9.33c.14 0 .31 2.1.36 4.7.06 2.6-.01 4.71-.16 4.71-.14 0-.31-2.1-.36-4.7-.06-2.6.02-4.71.16-4.71z" class="U"/><path d="M150.8 265.96c5.84.64 12.71 1.01 18.64 1.54" class="P"/><path d="M169.44 267.5c-.01.07-1.05.04-2.74-.04l-6.6-.42-6.59-.62c-1.68-.2-2.72-.39-2.71-.46s1.05-.02 2.74.09l6.59.46 6.59.57 2.72.42zm2.45 4.91c-.14.01-.35-1.9-.47-4.27-.12-2.36-.09-4.29.05-4.29.14-.01.35 1.9.47 4.27.11 2.37.09 4.29-.05 4.29zm2.06.11c-.14.01-.45-1.89-.68-4.26s-.31-4.3-.16-4.31c.14-.01.45 1.89.68 4.26s.3 4.3.16 4.31z" class="U"/><path d="M155.77 268.1l9.45.5" class="P"/><path d="M165.21 268.6c0 .14-2.12.15-4.73.01s-4.72-.37-4.71-.51 2.13-.15 4.73-.01c2.61.14 4.72.37 4.71.51z" class="U"/><path d="M149.28 307.36l-.91-9.52 33.62.06 1.83 9.34z" class="R"/><path d="M149.28 307.36l-.91-9.52 33.62.06 1.83 9.34z" opacity=".5" class="P"/><path d="M156.03 303.261l.003-1.72 21.03.035-.003 1.72zm-11.49-4.621l-.81-9.52 33.62.41 1.57 8.45z" class="Q"/><path d="M143.84 290.41l.53 6.43 32.7-.33-1.04-5.88z" class="P"/><path d="M174.31 293.26c0 .04-.42.06-1.18.08l-3.22.03c-2.72 0-6.47-.03-10.61-.1l-10.61-.26-3.21-.14c-.76-.04-1.18-.08-1.18-.12s.42-.06 1.18-.08l3.22-.03 10.61.1 10.61.26 3.21.14c.76.04 1.18.08 1.18.12zm0 .81c0 .04-.42.08-1.19.12l-3.24.13-10.68.23-10.69.08-3.24-.04-1.19-.09s.42-.08 1.19-.12l3.24-.13 10.69-.23 10.68-.08 3.24.04 1.19.09z" class="Q"/><path d="M145.04 289.55l-.63-9.54 33.61 1.06 1.4 8.47z" class="U"/><path d="M146.37 288.35l32.71-.47-.91-5.94-32.41-.6z" class="P"/><path d="M145.96 280.2l-.31-9.56 33.55 2.19 1.12 8.51z" class="R"/><path d="M152.953 276.531l.111-1.716 20.986 1.363-.111 1.716zm25.547 7.859c0 .04-.46.07-1.28.11l-3.5.1-11.54.12c-4.51.02-8.59 0-11.54-.03l-3.5-.07c-.83-.03-1.28-.06-1.29-.1 0-.04.46-.07 1.28-.11l3.5-.1 11.55-.12 11.55.03 3.5.07c.82.03 1.27.06 1.27.1zm.39 1.85c0 .04-.46.06-1.29.08l-3.52.03c-2.98.01-7.08-.02-11.62-.08l-11.62-.24-3.52-.13c-.83-.04-1.29-.08-1.29-.12s.46-.06 1.29-.08l3.52-.03 11.63.08 11.62.24 3.52.13c.82.04 1.28.08 1.28.12z" class="Q"/><defs ><path id="B" d="M417.52 176.32c0 1.13-.92 2.05-2.05 2.05s-2.05-.92-2.05-2.05.92-2.05 2.05-2.05 2.05.92 2.05 2.05z"/><path id="C" d="M198.01 222.99c-.05.09-4.37-2.18-9.66-5.06s-9.53-5.29-9.48-5.38 4.37 2.18 9.66 5.06c5.28 2.88 9.53 5.29 9.48 5.38z"/><path id="D" d="M303.62 272.96s16.11 3.3 14.6 20.16-5.72 46.36-13.55 53.89-38.5 9.17-55.09 8.13c-19.27-1.2-31.43-4.87-31.43-4.87s-3.52 2.26-2.45 3.72 10.46 7.31 56 6.34c45.54-.98 42.37-7.69 44.26-15.03s5.86-46.47 5.31-55.07c-.54-8.62-4.88-15.76-17.65-17.27z"/><path id="E" d="M290.41 305.78c0 1.23.78 2.23 1.75 2.23.96 0 1.75-1 1.75-2.23s-.78-2.23-1.75-2.23-1.75 1-1.75 2.23z"/><path id="F" d="M291.6 295.91c.11.04-.56 1.21-.59 3.25a7.74 7.74 0 0 0 .77 3.42c.29.59.67 1.2 1.15 1.71.24.26.55.51.8.87.27.35.4.89.3 1.34-.19.89-.67 1.52-.89 2.19-.2.64-.27 1.38-.26 2.03.02 1.33.41 2.5.88 3.39.97 1.8 2.12 2.52 2.03 2.6-.02.03-.32-.11-.78-.48s-1.08-.99-1.63-1.91c-.54-.91-1.01-2.15-1.06-3.58-.02-.72.02-1.45.26-2.24.26-.75.72-1.42.86-2.1.16-.67-.38-1.14-.94-1.7-.54-.59-.92-1.23-1.22-1.88-.6-1.3-.76-2.61-.69-3.67.06-1.07.32-1.9.56-2.44.22-.55.42-.81.45-.8z"/><path id="G" d="M286.82 302.89c.1.01.02.53.25 1.27.21.74.78 1.7 1.75 2.36.98.66 2.07.9 2.86 1.02s1.3.14 1.31.23c.01.08-.5.21-1.34.2-.83-.01-2.05-.2-3.17-.95-1.12-.76-1.71-1.91-1.83-2.77-.13-.87.11-1.38.17-1.36z"/><path id="H" d="M253.87 228.3c.1.11.71-.4 1.59-.44.88-.05 1.53.41 1.62.29.05-.05-.06-.25-.34-.46s-.75-.4-1.3-.38c-.55.03-1 .26-1.26.49-.27.24-.36.45-.31.5z"/><path id="I" d="M207.69 441.87v-10.31l18.48-.12.15 15.42-1.15.08c-5.1.33-25.94.97-29.35-.09-3.81-1.18 11.87-4.98 11.87-4.98z"/><path id="J" d="M195.38 445.91c0 .17 6.91.31 15.43.31 8.53 0 15.44-.14 15.44-.31s-6.91-.31-15.44-.31c-8.52-.01-15.43.14-15.43.31z"/><path id="K" d="M207.36 443.98c.15-.08.02-.62-.38-1.16s-.88-.83-1-.7c-.12.12.13.58.49 1.08.38.48.74.86.89.78z"/><path id="L" d="M206.18 444.66c.16-.06.08-.67-.29-1.31-.36-.65-.84-1.03-.98-.92s.09.63.43 1.23c.35.59.68 1.06.84 1z"/><path id="M" d="M220.69 445.84c.07.05.35-.22.75-.67s.93-1.09 1.62-1.62c.69-.54 1.44-.8 2-.87.56-.08.93.01.96-.08.03-.07-.31-.33-.98-.37-.66-.04-1.58.21-2.37.82-.78.61-1.28 1.33-1.6 1.86-.31.52-.45.88-.38.93z"/><path id="N" d="M222.77 328c25.48-2.5 45.62-.57 45.62-.57l-19.28 27.68-17.4.07-3.64 85.08h-23.08l2.2-94.89A17.93 17.93 0 0 1 222.77 328h0z"/><path id="O" d="M122.35 293.29s-1.11-8.83-.23-8.83 1.4 8.83 1.4 8.83h-1.46"/></defs></svg>