<svg xmlns="http://www.w3.org/2000/svg" xmlns:xlink="http://www.w3.org/1999/xlink" viewBox="0 0 750 500" xmlns:v="https://vecta.io/nano"><style><![CDATA[.P{fill:#263238}.Q{fill:#e8505b}.R{fill:#fff}.S{fill:#e5baab}.T{opacity:.2}.U{fill:#455a64}.V{fill:#d78776}.W{fill:#e0e0e0}.X{fill:#e6e6e6}]]></style><path d="M598.16 283.28l6.04 10.5 6.03 10.5 6.08-10.48 6.08-10.47-8.38-.02.08-40.49-7.47-.01-.09 40.48zm21.5-27.8l3.59 6.26 3.6 6.27 3.63-6.25 3.62-6.25-4.99-.01.05-24.14-4.46-.01-.05 24.14zM205.55 91.67l-6.03-10.5-6.04-10.5-6.07 10.48-6.08 10.47 8.37.02-.08 40.49 7.48.01.08-40.48zm-23.84 26.63l-3.65-6.35-3.65-6.35-3.67 6.34-3.68 6.33 5.06.01-.04 24.48h4.52l.05-24.47z" class="W"/><path d="M623.36 417.72c-14.96-9.79-18.76-28.54-18.59-45.47.03-2.83-.36-5.8.94-8.31s4.44-4.28 7.03-3.15c2.15.94 3.14 3.35 4.37 5.34a16.71 16.71 0 0 0 6.87 6.17c1.85.89 4.11 1.41 5.89.38 2.44-1.4 2.64-4.78 2.56-7.59l-.48-15.7c-.09-2.81-.17-5.68.65-8.36.82-2.69 2.71-5.21 5.4-6.02s6.08.65 6.72 3.38c.27 1.14.06 2.33.17 3.5.11 1.16.69 2.44 1.82 2.74 1.14.3 2.26-.52 3.09-1.36 2.87-2.91 4.77-6.61 6.55-10.29 1.77-3.68 3.49-7.44 6.08-10.6s6.22-5.7 10.29-6.02c4.07-.33 8.48 2.05 9.6 5.98 1.13 3.94-1.11 8.01-3.58 11.28-3.66 4.85-8.03 9.16-12.92 12.76-.88.65-1.84 1.35-2.16 2.4-.57 1.89 1.27 3.71 3.16 4.28 2.14.65 4.44.37 6.66.58 2.23.21 4.65 1.11 5.55 3.16 1.24 2.84-1.12 5.91-3.47 7.94a54.73 54.73 0 0 1-15.88 9.56c-2.08.81-4.26 1.52-5.92 3.01-1.65 1.49-2.61 4.04-1.54 6s3.7 2.53 5.89 2.07c2.18-.45 4.12-1.68 6.19-2.5 3.88-1.55 8.93-1.4 11.52 1.87 1.7 2.15 1.92 5.2 1.15 7.84-.77 2.63-2.4 4.93-4.14 7.05-6.09 7.41-13.98 13.45-22.97 16.77-9.01 3.31-17.4 4.35-26.5 1.31" fill="#f0f0f0"/><g class="W"><path d="M678.11 318.57s-.09.1-.27.27l-.83.76-3.16 2.95a104.9 104.9 0 0 0-10.6 11.83c-2.06 2.65-4.19 5.65-6.42 8.92-2.22 3.27-4.57 6.77-6.91 10.55-2.33 3.77-4.66 7.82-6.73 12.18-1.05 2.17-1.97 4.45-2.91 6.76l-2.85 7.04c-3.81 9.52-7.15 18.71-9.48 27.28-2.35 8.56-3.67 16.48-4.17 23.17-.51 6.7-.23 12.14.14 15.88.2 1.87.38 3.31.54 4.29l.16 1.11.04.38s-.47-2.03-.91-5.77c-.42-3.74-.75-9.2-.27-15.92.46-6.72 1.76-14.66 4.09-23.26 2.32-8.6 5.65-17.81 9.46-27.34l2.85-7.04c.94-2.31 1.87-4.6 2.93-6.78 2.09-4.38 4.43-8.43 6.78-12.2 2.35-3.78 4.71-7.28 6.95-10.54s4.39-6.25 6.47-8.9c4.14-5.31 7.98-9.2 10.73-11.77 1.37-1.29 2.47-2.25 3.22-2.9l.86-.73.29-.22z"/><path d="M642.92 365.81c-.03.01-.13-.42-.29-1.2l-.59-3.29c-.46-2.79-.97-6.66-1.53-10.93-.55-4.27-1.13-8.13-1.65-10.9l-.64-3.28c-.16-.77-.24-1.2-.21-1.21s.16.41.37 1.17.48 1.88.78 3.26c.6 2.76 1.23 6.63 1.78 10.9l1.4 10.94.46 3.31c.1.79.15 1.23.12 1.23z"/><path d="M679.35 358.19c0 .01-.13.04-.38.07l-1.08.12-3.97.47c-3.34.43-7.94 1.19-12.98 2.25-5.04 1.07-9.55 2.24-12.79 3.18-1.62.46-2.93.87-3.83 1.15l-1.04.32c-.24.07-.37.1-.37.08 0-.01.11-.07.34-.16l1.02-.39c.89-.33 2.18-.78 3.79-1.28 3.22-1.02 7.74-2.23 12.79-3.31 5.05-1.06 9.67-1.78 13.03-2.13 1.68-.19 3.05-.28 3.99-.33l1.09-.04c.26-.02.39-.02.39 0zm-51.39 48.14c-.01.01-.1-.15-.25-.44l-.65-1.3-2.26-4.83c-1.86-4.1-4.25-9.84-6.81-16.2l-6.69-16.24-2.14-4.88-.58-1.33c-.13-.31-.19-.47-.18-.48s.1.15.25.44l.65 1.29c.56 1.13 1.33 2.78 2.26 4.83 1.86 4.1 4.25 9.84 6.81 16.21l6.69 16.24 2.14 4.88.58 1.33c.13.31.19.47.18.48z"/><path d="M676.21 389.7c0 .01-.16.08-.48.2l-1.4.49-5.17 1.78-17 6.05-17.05 5.93-5.22 1.65-1.43.42-.51.12c0-.01.16-.08.48-.2l1.4-.49 5.17-1.77 17-6.05 17.04-5.93 5.22-1.65 1.43-.42.52-.13z"/></g><path d="M677.85 450.46c0 .14-135.6.26-302.84.26-167.29 0-302.87-.12-302.87-.26s135.57-.26 302.87-.26l302.84.26z" class="P"/><g class="Q"><path d="M134.45 419.42c-3.53-1.82-7.69-2.06-11.62-1.41-2.11.35-4.3.98-5.74 2.56-1.43 1.58-1.71 4.37-.06 5.73.98.81 2.35.93 3.62.92 3.07-.04 6.48-.58 8.93 1.27 1.4 1.05 2.33 2.81 4.01 3.33 1.64.51 3.49-.46 4.35-1.94.87-1.48.9-3.33.49-4.99.01 0-.42-3.63-3.98-5.47z"/><use xlink:href="#B"/></g><use xlink:href="#B" class="T"/><path d="M148.48 408.22c-2.35-2.78-2.79-6.85-1.75-10.33 1.04-3.49 3.4-6.46 6.12-8.88 3.19-2.84 6.93-5.05 10.96-6.47 1.58-.56 3.26-1 4.93-.84s3.36 1.01 4.14 2.5c1.15 2.2.05 4.87-1.15 7.05-2.11 3.84-4.52 7.5-7.2 10.96-2.16 2.78-4.63 5.53-7.92 6.78s-6.7 1.11-8.45-1.17" class="Q"/><g class="P"><path d="M142.69 450.34c-.04 0-.11-.5-.2-1.4l-.37-3.83-.86-5.61c-.45-2.08-1.14-4.34-2.04-6.63-.93-2.27-2.06-4.34-3.38-5.99-1.31-1.66-2.84-2.86-4.28-3.56-1.43-.71-2.71-.99-3.6-1.12l-1.4-.2c0-.04.5-.05 1.42-.02.91.06 2.25.29 3.76.98 1.51.67 3.13 1.89 4.51 3.59 1.39 1.69 2.56 3.8 3.51 6.12.91 2.33 1.6 4.61 2.03 6.73.42 2.12.62 4.06.75 5.68l.19 3.85-.04 1.41z"/><path d="M142.43 447.4c-.02 0-.03-.23-.04-.65v-1.86l-.08-6.84c-.14-5.77-.64-13.74-1.6-22.5-.97-8.76-2.25-16.64-3.42-22.29a94.61 94.61 0 0 0-.82-3.81l-.67-2.86-.43-1.81c-.09-.42-.13-.64-.11-.64.02-.01.1.2.23.61l.54 1.78c.24.77.49 1.73.77 2.85a82.1 82.1 0 0 1 .9 3.8c1.27 5.65 2.62 13.54 3.59 22.31.96 8.78 1.4 16.77 1.43 22.55.03 2.89-.03 5.23-.1 6.85l-.11 1.86c-.03.43-.06.65-.08.65z"/><path d="M142.39 431.99c-.04 0-.03-.69.01-1.94.07-1.25.24-3.05.6-5.27.37-2.21.89-4.83 1.71-7.67.78-2.86 1.85-5.94 3.21-9.08 2.66-6.31 6.28-11.47 9.42-14.67.74-.85 1.56-1.46 2.22-2.06.34-.29.64-.57.95-.8l.86-.59c1.04-.71 1.62-1.08 1.64-1.05.09.13-2.32 1.55-5.36 4.79-3.03 3.23-6.55 8.36-9.19 14.62-1.35 3.11-2.43 6.17-3.23 9-.84 2.82-1.4 5.41-1.82 7.6a77.58 77.58 0 0 0-.77 5.21c-.12 1.22-.21 1.91-.25 1.91z"/></g><path d="M221.5 106.72h307.37v239.17H221.5z" class="R"/><g class="P"><path d="M528.87 345.89l-.22-239.17.22.22-307.34.05h-.03l.26-.26-.03 239.17-.23-.23 307.37.22-307.37.23h-.23v-.23l-.03-239.17v-.26h.26.03l307.34.05h.22v.22l-.22 239.16zM306.02 325.8c-.14 0-.26-26-.26-58.06l.26-58.07c.14 0 .26 25.99.26 58.07l-.26 58.06zm133.39 0c-.14 0-.26-26-.26-58.06l.26-58.07c.14 0 .26 25.99.26 58.07l-.26 58.06z"/><use xlink:href="#C"/><use xlink:href="#C" x="-92.3"/><use xlink:href="#C" x="140.21"/><path d="M391.49 325.8c-.14 0-.26-38.38-.26-85.7l.26-85.71c.14 0 .26 38.37.26 85.71l-.26 85.7zm-84.38-116.13c0 .6-.49 1.09-1.09 1.09s-1.09-.49-1.09-1.09.49-1.09 1.09-1.09 1.09.49 1.09 1.09z"/><circle cx="351.55" cy="177.34" r="1.09"/><path d="M351.55 181.16a3.82 3.82 0 0 1 0-7.64 3.82 3.82 0 0 1 3.82 3.82c.01 2.11-1.71 3.82-3.82 3.82zm0-7.39c-1.97 0-3.57 1.6-3.57 3.57s1.6 3.57 3.57 3.57 3.57-1.6 3.57-3.57-1.6-3.57-3.57-3.57z"/><circle cx="391.49" cy="154.38" r="1.09"/><circle cx="439.41" cy="210.76" r="1.09"/><circle cx="491.79" cy="177.34" r="1.09"/><path d="M260.33 178.43c0 .6-.49 1.09-1.09 1.09s-1.09-.49-1.09-1.09.49-1.09 1.09-1.09 1.09.49 1.09 1.09z"/></g><path d="M502.08 229.88c0 .03-.29.12-.86.28-.58.13-1.41.42-2.47.85-2.11.9-5 2.78-7.94 6.02-2.97 3.22-5.95 7.7-9.68 12.74-1.89 2.5-3.98 5.16-6.58 7.64-1.28 1.26-2.73 2.42-4.27 3.53-1.59 1.05-3.28 2.05-5.14 2.81-3.71 1.53-7.97 2.27-12.33 2.07-2.17-.11-4.4-.26-6.63-.83-2.23-.48-4.46-1.42-6.42-2.82-1.96-1.39-3.64-3.22-5.01-5.23-1.38-2-2.62-4.12-3.83-6.28-2.39-4.33-4.88-8.69-7.71-13.06-2.78-4.43-5.35-9.11-8.22-13.7-2.87-4.58-6.03-9.16-10.07-12.98-2.02-1.89-4.26-3.59-6.76-4.84-2.49-1.26-5.21-2.09-8.03-2.35-2.81-.28-5.73-.1-8.55.48-2.82.6-5.56 1.65-8.11 3.08-5.11 2.9-9.24 7.2-12.68 11.82-3.47 4.64-6.29 9.64-9.06 14.57-2.73 4.96-5.62 9.78-8.78 14.26-3.19 4.46-6.64 8.64-10.63 12.12-1.01.85-2 1.71-3.08 2.45-1.03.8-2.16 1.46-3.27 2.13-2.26 1.24-4.61 2.33-7.08 2.91-1.21.38-2.47.51-3.7.69-.61.12-1.24.08-1.86.11-.62.01-1.24.05-1.85.02-2.46-.11-4.84-.61-7.09-1.31-4.51-1.47-8.42-3.84-11.99-6.26-3.56-2.45-6.82-4.99-10-7.28-3.18-2.31-6.29-4.33-9.49-5.75-3.19-1.44-6.4-2.35-9.45-2.68-3.05-.32-5.95-.15-8.49.55-.65.11-1.24.41-1.84.59-.59.23-1.2.37-1.72.68-1.05.58-2.14.99-3 1.66-1.86 1.15-3.26 2.5-4.51 3.61l-1.57 1.72c-.48.53-.94.98-1.26 1.46l-1.59 2.09c-.37.47-.57.7-.59.69s.13-.28.46-.78l1.47-2.2c.31-.5.75-.98 1.21-1.53l1.53-1.79c1.24-1.17 2.63-2.58 4.51-3.79.87-.71 1.97-1.16 3.05-1.77.53-.33 1.16-.48 1.76-.73.62-.2 1.22-.52 1.89-.64 2.62-.76 5.62-.99 8.78-.7 3.16.3 6.48 1.2 9.76 2.65 3.3 1.42 6.52 3.48 9.73 5.76l10.03 7.18c3.54 2.36 7.38 4.65 11.71 6.03 2.16.66 4.42 1.12 6.75 1.21.58.02 1.16-.02 1.75-.03.58-.03 1.18.01 1.76-.11 1.17-.18 2.35-.3 3.5-.67 4.67-1.18 8.99-3.89 12.83-7.25 3.85-3.39 7.23-7.5 10.36-11.9 3.11-4.43 5.95-9.17 8.66-14.14 2.76-4.94 5.61-10.01 9.15-14.76 3.51-4.73 7.78-9.2 13.16-12.26a30.25 30.25 0 0 1 8.56-3.25c2.99-.62 6.02-.8 9.02-.5 3.01.28 5.93 1.18 8.57 2.52 2.65 1.34 5.01 3.13 7.11 5.11 4.19 4 7.39 8.68 10.28 13.31 2.89 4.65 5.45 9.33 8.18 13.73 2.81 4.38 5.33 8.85 7.68 13.16 2.4 4.25 4.73 8.53 8.39 11.12 1.79 1.3 3.84 2.19 5.96 2.66 2.1.55 4.27.72 6.38.84 4.22.22 8.29-.46 11.86-1.89 1.79-.72 3.43-1.66 4.97-2.66 1.5-1.06 2.92-2.17 4.18-3.39 2.56-2.39 4.66-4.99 6.57-7.44 3.78-4.95 6.85-9.42 9.93-12.62 3.05-3.24 6.08-5.08 8.26-5.9 1.11-.38 1.96-.63 2.56-.71.61-.11.91-.15.92-.13z" class="Q"/><path d="M258.16 133.57h53.59v2.98h-53.59zm0 6.97h26.48v2.98h-26.48zm266.2-53.33H225.64a4.51 4.51 0 0 0-4.51 4.51v15.01h307.73V91.71c.01-2.49-2.01-4.5-4.5-4.5z" class="P"/><path d="M237.08 97.34a2.1 2.1 0 0 1-4.2 0 2.1 2.1 0 0 1 4.2 0zm9.17 0a2.1 2.1 0 0 1-4.2 0 2.1 2.1 0 0 1 4.2 0zm9.16 0a2.1 2.1 0 1 1-4.2 0 2.1 2.1 0 0 1 4.2 0z" class="R"/><path d="M225.95 282.84H106.2c-1.78 0-3.23-1.45-3.23-3.23v-28.93c0-1.78 1.45-3.23 3.23-3.23h119.75c1.78 0 3.23 1.45 3.23 3.23v28.93a3.23 3.23 0 0 1-3.23 3.23z" class="X"/><path d="M129.57 271.05c-2.66 3.31-7.5 3.85-10.81 1.19s-3.85-7.5-1.19-10.81 7.5-3.85 10.81-1.19c3.32 2.66 3.85 7.5 1.19 10.81z" class="R"/><path d="M127.9 263.63c.1.1-1.76 2.08-4.16 4.42l-1.02.98-.18.18-.17-.18-3.11-3.47c.09-.09 1.56 1.24 3.47 3.11h-.36l1.01-.99 4.52-4.05zm88.96-1.07c0 .14-16.04.26-35.83.26s-35.83-.12-35.83-.26 16.04-.26 35.83-.26l35.83.26zm-29.39 7c0 .14-9.28.26-20.71.26-11.44 0-20.72-.12-20.72-.26s9.27-.26 20.72-.26l20.71.26z" class="P"/><path d="M262.04 213.87h-119.2c-1.44 0-2.62-1.17-2.62-2.62v-46.44c0-1.44 1.17-2.62 2.62-2.62h119.19c1.44 0 2.62 1.17 2.62 2.62v46.44c0 1.45-1.17 2.62-2.61 2.62z" class="W"/><g class="Q"><use xlink:href="#D"/><path d="M171.87 174.52h40.42v2.24h-40.42z"/></g><path d="M171.87 179.62h78.62v2.24h-78.62z" class="R"/><g class="Q"><use xlink:href="#D" y="17.83"/><path d="M171.87 192.36h20.64v2.24h-20.64z"/></g><path d="M171.87 197.46h78.62v2.24h-78.62z" class="R"/><path d="M318.73 366.33H166.11c-2.19 0-3.96-1.77-3.96-3.96v-60.32c0-2.19 1.77-3.96 3.96-3.96h152.62c2.19 0 3.96 1.77 3.96 3.96v60.32c0 2.18-1.77 3.96-3.96 3.96z" class="W"/><g class="Q"><path d="M191.52 331.06l-.09-13.84c-4.08.02-8.23 1.64-11.42 4.45-3.75 3.32-6.16 8.31-5.5 14.33.07.66.18 1.33.32 2.01 0 .02.01.03.01.05h0l16.68-3.75v-3.25z"/><use xlink:href="#E"/></g><use xlink:href="#E" class="T"/><use xlink:href="#F" class="Q"/><use xlink:href="#F" opacity=".1"/><path d="M221.65 321.36h84.73v3.84h-84.73zm0 10.12h84.73v3.84h-84.73zm0 11.19h45.8v3.84h-45.8z" class="R"/><path d="M508.27 410.87H357.69a8.42 8.42 0 0 1-8.41-8.41V258.11a8.42 8.42 0 0 1 8.41-8.41h150.57a8.42 8.42 0 0 1 8.41 8.41v144.35c.01 4.65-3.76 8.41-8.4 8.41z" class="X"/><g class="P"><path d="M360.98 360.11h5.49v1.58h-5.49zm12.43 8.47h7.03v1.58h-7.03zm24.46 0h7.03v1.58h-7.03zm24.45 0h7.03v1.58h-7.03zm24.46 0h7.03v1.58h-7.03zm24.46 0h7.03v1.58h-7.03zm24.46 0h7.03v1.58h-7.03zm-134.72-29.61h5.49v1.58h-5.49zm0-39.8h5.49v1.58h-5.49zm0-19.99h5.49v1.58h-5.49zm.28 39.89h5.49v1.58h-5.49zm141.27 42.63l-.59.03-1.73.03-6.65.05-24.45.08-80.66.08h-19.11-.26v-.26l.09-67.72.08-20 .04-5.38.02-1.39.02-.47s.02.16.02.47l.02 1.39.04 5.38.08 20 .09 67.72-.26-.26h19.11l80.66.08 24.45.08 6.65.05 1.73.03.61.01z"/><use xlink:href="#G"/><use xlink:href="#G" y="-19.89"/><use xlink:href="#G" y="-39.89"/><use xlink:href="#G" y="19.9"/></g><path d="M375.99 357.41v-17.65l11-17.08 7.47 5.73 15.33-23.81 9.04 6.36L431.41 289l10.22 8.32 15.33-29.13 16.5 32.56 13.36-16.29 15.72-4.5v77.45H375.99z" class="Q"/><g class="P"><path d="M504.07 273.7c0 .01-.09.01-.28.02l-.82.02-3.19.04-12.06.07.11-.06-12.92 16.89-.06.08h-.1l-32.36.04.21-.12-13.61 22.65-13.36 22.2-.2.32-.22-.31-17.53-24.1.35-.01-15.99 24.91-4.46 6.89-1.18 1.8-.42.6s.12-.22.37-.64l1.13-1.83 4.36-6.95 15.84-25.01.17-.26.18.25 17.59 24.06-.42.02 13.34-22.21 13.62-22.64.07-.12h.14l32.36.04-.16.08 13.02-16.82.04-.06h.07l12.06.07 3.19.04.82.02.3.03z"/><path d="M403.17 316.99c0 .66-.56 1.2-1.24 1.2s-1.24-.54-1.24-1.2.56-1.2 1.24-1.2 1.24.53 1.24 1.2zm37.33-21.22c0 .66-.56 1.2-1.24 1.2-.69 0-1.24-.54-1.24-1.2s.56-1.2 1.24-1.2 1.24.54 1.24 1.2zm29.02-5.21c0 .66-.56 1.2-1.24 1.2-.69 0-1.24-.54-1.24-1.2s.56-1.2 1.24-1.2 1.24.54 1.24 1.2z"/></g><g class="R"><ellipse cx="381.44" cy="389.73" rx="8.03" ry="7.73"/><path d="M401.38 384.55h94.32v2.89h-94.32zm0 7.23h39.16v2.89h-39.16z"/></g><path d="M569 216.7H467.73a4.94 4.94 0 0 1-4.94-4.94v-82.31a4.94 4.94 0 0 1 4.94-4.94H569a4.94 4.94 0 0 1 4.94 4.94v82.31c-.01 2.73-2.22 4.94-4.94 4.94z" class="X"/><path d="M482.19 161.43h5.99v45.23h-5.99zm27.23-3.67h5.99v48.9h-5.99zm28.2-6.21h5.99v55.11h-5.99zm-13.24 33.08h5.99v22.02h-5.99z" class="Q"/><path d="M524.38 184.63h5.99v22.02h-5.99z" class="T"/><path d="M489.17 156.58h5.99v50.08h-5.99z" class="Q"/><path d="M489.17 156.58h5.99v50.08h-5.99z" opacity=".1"/><path d="M516.89 146.09h5.99v60.57h-5.99z" class="Q"/><path d="M516.89 146.09h5.99v60.57h-5.99z" opacity=".1"/><path d="M553.08 146.09h5.99v60.57h-5.99z" class="Q"/><path d="M553.08 146.09h5.99v60.57h-5.99z" class="T"/><path d="M545.26 134.13h5.99v72.53h-5.99z" class="Q"/><path d="M545.26 134.13h5.99v72.53h-5.99z" opacity=".1"/><path d="M496.5 174.88h5.99v31.78h-5.99z" class="Q"/><path d="M496.5 174.88h5.99v31.78h-5.99z" class="T"/><path d="M567.64 209.4c0 .14-21.38.26-47.74.26-26.38 0-47.75-.12-47.75-.26s21.37-.26 47.75-.26l47.74.26zm-98.27-10.79h3.66v1.21h-3.66zm0-16.09h3.66v1.21h-3.66zm0-30.3h3.66v1.21h-3.66zm0-15.22h3.66v1.21h-3.66zm.19 30.37h3.66v1.21h-3.66z" class="P"/><path d="M445.58 148.99H338.04c-1.78 0-3.23-1.45-3.23-3.23v-25.5c0-1.78 1.45-3.23 3.23-3.23h107.54c1.78 0 3.23 1.45 3.23 3.23v25.5c0 1.78-1.45 3.23-3.23 3.23z" class="Q"/><path d="M358.84 138.34c-2.4 2.99-6.77 3.47-9.76 1.07s-3.47-6.77-1.07-9.76 6.77-3.47 9.76-1.07c2.99 2.39 3.47 6.77 1.07 9.76z" class="R"/><path d="M353.41 140.96a6.93 6.93 0 0 1-4.35-1.53c-1.45-1.17-2.36-2.83-2.57-4.68a6.95 6.95 0 0 1 1.49-5.12c1.17-1.45 2.83-2.36 4.68-2.57.26-.03.52-.04.78-.04a6.93 6.93 0 0 1 4.35 1.53c1.45 1.17 2.36 2.83 2.57 4.68a6.95 6.95 0 0 1-1.49 5.12h0c-1.17 1.45-2.83 2.36-4.68 2.57a7.03 7.03 0 0 1-.78.04zm.02-13.89a6.62 6.62 0 0 0-.77.04 6.85 6.85 0 0 0-4.64 2.55c-1.16 1.44-1.68 3.25-1.48 5.09a6.85 6.85 0 0 0 2.55 4.64c1.44 1.16 3.25 1.68 5.09 1.48a6.85 6.85 0 0 0 4.64-2.55h0c1.16-1.44 1.68-3.25 1.48-5.09a6.85 6.85 0 0 0-2.55-4.64c-1.24-.99-2.75-1.52-4.32-1.52z" class="P"/><path d="M357.32 131.63c.1.1-1.57 1.9-3.74 4.01l-.92.89-.18.18-.17-.18-2.79-3.15c.09-.09 1.43 1.11 3.15 2.79h-.36l.91-.9 4.1-3.64z" class="Q"/><path d="M437.68 130.67c0 .14-14.49.26-32.36.26-17.88 0-32.37-.12-32.37-.26s14.49-.26 32.37-.26l32.36.26zm-26.55 6.32c0 .14-8.38.26-18.71.26-10.34 0-18.71-.12-18.71-.26s8.38-.26 18.71-.26l18.71.26z" class="R"/><path d="M623.65 177.84s-.13.17-.41.48l-1.27 1.35c-1.2 1.1-3.04 2.68-5.8 4.04-.7.32-1.42.7-2.23.96l-1.23.44-1.32.35c-.89.27-1.86.37-2.85.55l-1.53.12c-.52.05-1.05.06-1.59.04-4.31.02-9.25-1.32-13.67-4.39l.16.04-11.89 2.3-.67.13.45-.52 6.54-7.54-.01.31c-1.13-1.59-2.15-3.33-2.93-5.21a26.56 26.56 0 0 1-1.59-5.99c-.51-4.17 0-8.64 1.8-12.69 2.29-5.26 6.43-9.49 11.26-11.91 4.85-2.38 10.28-3.1 15.15-2.13 2.43.47 4.76 1.22 6.82 2.36 2.07 1.11 3.95 2.44 5.5 4 3.21 3.04 5.23 6.77 6.29 10.34 1.09 3.59 1.21 7.05.81 9.98-.37 2.95-1.31 5.37-2.2 7.25l-.67 1.31c-.22.4-.48.76-.69 1.1-.43.68-.8 1.24-1.17 1.65l-.79.96c-.17.22-.26.32-.27.32-.01-.01.08-.12.24-.35l.75-.99c.35-.42.71-.99 1.12-1.67.2-.34.45-.7.66-1.1l.65-1.31c.86-1.87 1.75-4.28 2.09-7.2.36-2.9.22-6.32-.87-9.84-1.07-3.51-3.07-7.17-6.24-10.14-1.53-1.53-3.39-2.83-5.42-3.91-2.02-1.11-4.31-1.84-6.69-2.29-4.77-.94-10.09-.21-14.83 2.12-4.72 2.37-8.77 6.52-11.01 11.66-1.77 3.96-2.26 8.33-1.77 12.41.28 2.04.82 4.01 1.54 5.87.76 1.85 1.75 3.54 2.86 5.11l.12.16-.13.15-6.56 7.52-.22-.39 11.89-2.25.09-.02.08.05c4.33 3.04 9.18 4.39 13.43 4.4.53.02 1.06.02 1.57-.03l1.51-.11c.98-.17 1.94-.25 2.82-.52l1.31-.33 1.22-.42c.81-.25 1.52-.62 2.21-.92 2.75-1.32 4.6-2.86 5.82-3.92.59-.55 1.01-1.01 1.31-1.3.28-.3.45-.44.45-.44zm-17.67-20.62l-4.01-1.33-4.02-1.33.86 4.14.85 4.15 2.19-1.95 9.4 10.56 1.95-1.73-9.4-10.57z" class="P"/><path d="M586.51 435.78l-6.47-6.5 12.1-12.21 9.57 9.41-.7.8c-3.15 3.55-16.28 17.85-19.2 19.42-3.25 1.77 4.7-10.92 4.7-10.92z" class="Q"/><g class="P"><path d="M597.23 430.82c-.85-1.18-1.23-2.69-1.06-4.14s.84-2.78 1.94-3.73l3.41 3.38-4.29 4.49z"/><path d="M582.81 442.16s-2.56 4.67-1.51 4.81 14.86-13.8 20.41-20.49l-.29-.25-15.97 16.4c0 .01-1.91-1.15-2.64-.47z"/></g><g class="U"><path d="M601.6 426.04c.01 0-.06.08-.19.23l-.56.64-2.1 2.31c-1.79 1.94-4.3 4.59-7.13 7.46a287.21 287.21 0 0 1-7.38 7.21l-2.29 2.13-.63.57c-.15.13-.23.19-.23.19 0-.01.06-.08.2-.22l.61-.6 2.24-2.18 7.33-7.25 7.17-7.41 2.15-2.27.59-.61c.14-.14.22-.21.22-.2z"/><path d="M585.64 442.82c-.04.05-.6-.44-1.47-.63-.86-.21-1.59-.02-1.6-.08-.03-.05.72-.34 1.65-.12.93.21 1.47.8 1.42.83zm1.74-5.41c-.01.06-.39.02-.85-.08s-.82-.23-.81-.28c.01-.06.39-.02.85.08.47.1.83.22.81.28zm.46-1.51c0 .06-.32.12-.71.15-.4.02-.72 0-.73-.06 0-.06.32-.12.71-.15.4-.02.73 0 .73.06zm-.53-1.76c.04.04-.2.36-.55.72s-.66.61-.7.57.2-.36.55-.72c.34-.36.66-.61.7-.57z"/><path d="M586.71 433.12c.05.02-.12.47-.5.92s-.79.68-.83.64c-.04-.05.31-.35.67-.77.36-.43.6-.82.66-.79zm-.8 3.65c.02.02-.24.35-.78.78-.27.21-.61.44-1.01.65-.21.1-.41.22-.67.28-.13.03-.29.04-.44-.05-.15-.08-.22-.28-.2-.43.35-1.14 1.52-1.47 2.18-1.36.35.04.61.16.78.26s.24.18.23.19c-.02.04-.36-.25-1.02-.31-.33-.02-.72.03-1.1.24-.36.2-.77.57-.86 1-.03.22.16.31.38.26.21-.05.43-.16.63-.25.4-.2.74-.41 1.01-.6l.87-.66z"/><path d="M585.75 437.01c0 .02-.32-.06-.63-.45-.15-.19-.3-.46-.36-.78-.04-.31-.1-.73.25-1.05.2-.16.5-.04.6.12.12.15.18.33.22.48.08.31.11.6.11.84 0 .48-.1.77-.13.76s.01-.3-.02-.76a3.94 3.94 0 0 0-.15-.8c-.06-.27-.28-.64-.51-.48-.21.18-.22.57-.18.85.05.29.16.54.29.73.25.38.53.51.51.54zm12.26-14.03c.02.03-.38.32-.86.93s-1.01 1.59-1.14 2.77a5.51 5.51 0 0 0 .52 2.95c.34.7.67 1.07.64 1.1-.01.01-.1-.07-.25-.24s-.34-.43-.53-.79a5.37 5.37 0 0 1-.6-3.04 5.31 5.31 0 0 1 1.23-2.84 4.29 4.29 0 0 1 .68-.65c.2-.14.31-.2.31-.19z"/><path d="M591.68 419.21c.04-.04 1.21 1.02 2.61 2.38l2.47 2.53c-.04.04-1.21-1.02-2.61-2.38l-2.47-2.53zm2.84 11.96c.04.03-.61.96-1.59 1.96-.97 1-1.88 1.69-1.91 1.64-.04-.05.8-.8 1.76-1.79l1.74-1.81zm2.36-2.39c.06 0 .1.23.21.5.1.26.22.47.18.51s-.26-.13-.37-.43c-.12-.32-.07-.59-.02-.58zm-.23-2.02c.06 0 .11.2.11.46 0 .25-.04.46-.1.46s-.11-.2-.11-.46c0-.25.05-.46.1-.46zm.77-1.79c.03.05-.13.21-.24.45-.12.24-.15.47-.21.47-.05.01-.13-.26.02-.56.14-.3.4-.41.43-.36zm.67-1.16c.05.02.05.16-.02.3-.06.14-.15.24-.21.21-.05-.02-.05-.16.02-.3.06-.14.15-.24.21-.21z"/></g><path d="M536.98 446.53l.22-9.17 17.19.31-.18 13.42-1.07.05c-4.75.18-24.15.58-27.3-.44-3.52-1.14 11.14-4.17 11.14-4.17z" class="Q"/><g class="P"><path d="M547.97 450.84c.27-1.43 1.09-2.75 2.26-3.63 1.17-.87 2.59-1.32 4.04-1.18l-.08 4.8h-6.22z"/><path d="M529.81 448.26s-5.14 1.39-4.52 2.24 20.25 1.19 28.91.58l-.02-.38-22.89-.2s-.48-2.18-1.48-2.24z"/></g><g class="U"><path d="M554.45 450.7c0 .01-.1.02-.3.03l-.85.04-3.13.08c-2.64.05-6.29.07-10.32 0a330.85 330.85 0 0 1-10.31-.34l-3.12-.18-.85-.06c-.19-.02-.3-.03-.29-.04s.1-.01.3-.01l.85.03 3.12.12 10.31.28 10.31.06 3.13-.01h.85c.2-.02.3-.01.3 0z"/><path d="M531.29 450.77c-.06.01-.1-.74-.56-1.5-.45-.77-1.08-1.16-1.04-1.21.01-.05.74.28 1.22 1.11.49.81.43 1.61.38 1.6zm5.11-2.48c-.05.03-.29-.27-.53-.67s-.4-.75-.35-.78.29.27.53.67c.25.4.4.74.35.78zm1.41-.72c-.04.04-.31-.14-.6-.41s-.5-.53-.46-.57.31.14.6.41c.29.28.5.53.46.57zm.91-1.6c0 .06-.4.1-.9.1s-.9-.05-.9-.11.4-.1.9-.1c.49 0 .9.05.9.11z"/><path d="M539.04 444.83c.02.05-.42.24-1.01.27-.58.04-1.04-.1-1.03-.16s.46-.02 1.02-.05c.55-.03 1-.12 1.02-.06zm-3.19 1.95c0 .02-.42.07-1.1-.03-.34-.05-.74-.13-1.17-.28-.21-.08-.44-.14-.67-.29-.11-.07-.23-.18-.27-.35a.45.45 0 0 1 .17-.44c1.07-.53 2.11.08 2.49.64a1.99 1.99 0 0 1 .35.74c.04.19.04.3.02.3-.04.01-.07-.44-.49-.95a2.02 2.02 0 0 0-.93-.63c-.39-.12-.94-.16-1.32.07-.18.13-.11.33.08.45.18.12.41.2.62.28.42.15.8.25 1.13.32l1.09.17z"/><path d="M535.56 446.83c-.02.01-.17-.27-.11-.77.03-.24.13-.53.32-.8.2-.24.46-.58.93-.55.26.04.38.33.33.52-.02.19-.11.36-.2.49a3.81 3.81 0 0 1-.53.66c-.35.33-.63.46-.64.44-.02-.03.22-.19.53-.54a4.06 4.06 0 0 0 .47-.65c.16-.23.27-.65-.01-.7-.28-.03-.56.24-.74.46-.18.24-.28.49-.32.71-.09.43.01.72-.03.73zm18.62-.84c0 .04-.49-.06-1.27.02-.77.07-1.85.37-2.79 1.09a5.51 5.51 0 0 0-1.77 2.42c-.27.73-.31 1.23-.35 1.22-.01 0-.02-.12.01-.35.02-.22.08-.54.2-.92.24-.76.8-1.78 1.78-2.53a5.31 5.31 0 0 1 2.91-1.08c.4-.02.72 0 .94.04s.34.07.34.09z"/><path d="M552.52 438.8c.06 0 .1 1.58.09 3.53l-.12 3.53c-.06 0-.1-1.58-.09-3.53l.12-3.53zm-6.68 10.33c.01.05-1.12.22-2.51.21-1.4-.01-2.52-.19-2.51-.24.01-.06 1.13.03 2.51.04l2.51-.01zm3.37.05c.04.04-.1.24-.21.49-.12.25-.19.48-.24.48-.06 0-.08-.27.06-.57.12-.29.35-.44.39-.4zm1.29-1.56c.04.04-.07.22-.25.4s-.36.29-.4.25.07-.22.25-.4.36-.29.4-.25zm1.83-.69c-.01.06-.24.05-.5.14-.26.08-.44.22-.48.18-.05-.03.1-.27.42-.37.32-.11.58 0 .56.05zm1.3-.32c.02.05-.08.14-.22.19s-.28.05-.3 0 .08-.14.22-.19c.15-.05.28-.05.3 0z"/></g><path d="M546.19 249.91l-17.85 52.88c-.81.49-3.83 2.09-4.76 2.28-1.13.23-2.63.48-3.5.36-1.07-.15-1.77 1.08-1.07 1.77s3.65 1.17 6.99.17.86 4.07-.24 5.74-4.2 7.17-3.95 7.91c.36 1.09 1.7.64 2.76-1.06 1.07-1.72 4.23-6.63 4.69-6.37.91.51-4.57 9.25-4.57 9.25s-1.26 1.53-.29 2.28c1.74 1.35 7.1-8.05 7.59-8.96.34-.63.8-.14.39.52-.41.68-5.08 8.36-3.67 9.24 1.46.91 4.73-6.79 6.07-8.22 1.53-1.62-3.07 6.41-1.74 7.38.5.36.92.56 3.22-4.09 1.47-2.96 3.67-9.44 5.14-13.94 4.9-9.83 18.93-40.16 23.57-60.81" class="S"/><path d="M549.57 203.99s13.64-3.95 16.33 16.92l6.99 60.89c.14 1.53-.82.93-.71 2.19.13 1.47 1.44 2.66 1.44 3.71.01 3.35-3.83 3.29-3.83 3.29l-35.65 1.7s-3.3.07-3.32-2.82c-.01-2.19 1.43-3.17 1.54-4.53 1.52-19.52 1.49-68.14 3.69-74.82 2.09-6.38 3.43-6.51 13.52-6.53z" class="Q"/><g class="P"><path d="M552.27 205c.02-.02.33.33.84.89l1.94 2.2 1.81 2.32c.43.62.67 1.02.64 1.04s-.31-.35-.76-.95l-1.85-2.27-1.9-2.24-.72-.99z"/><path d="M553.84 204.64c.01.01-.2.11-.57.27l-1.58.65-5.28 1.96-5.36 1.73-1.64.47-.61.14c0-.01.21-.09.59-.22l1.62-.53 5.33-1.78 5.29-1.9 1.6-.59.61-.2z"/><path d="M538.95 206.03c.06 0 .1.85.1 1.9s-.05 1.9-.1 1.9c-.06 0-.1-.85-.1-1.9s.04-1.9.1-1.9z"/></g><path d="M563.35 211.44c0 .06-6.06.1-13.53.1s-13.53-.05-13.53-.1c0-.06 6.06-.1 13.53-.1l13.53.1zm1.75 4.45c0 .01-.11.01-.31.01l-.87-.02-3.21-.12-10.6-.33-10.6-.19-3.21-.04-.87-.02-.3-.02s.1-.01.3-.02l.87-.02 3.21-.02 10.61.13 10.6.39 3.21.18.87.06.3.03zm.42 3.93c0 .06-6.84.1-15.28.1s-15.28-.05-15.28-.1c0-.06 6.84-.1 15.28-.1l15.28.1zm.78 4.26c0 .06-7.09.1-15.84.1s-15.84-.05-15.84-.1 7.09-.1 15.84-.1l15.84.1zm.72 4.68c0 .06-7.25.1-16.2.1s-16.2-.05-16.2-.1c0-.06 7.25-.1 16.2-.1l16.2.1zm.45 4.68c0 .06-7.35.1-16.42.1s-16.42-.05-16.42-.1 7.35-.1 16.42-.1l16.42.1zm.57 5.01c0 .06-7.48.1-16.71.1s-16.71-.05-16.71-.1c0-.06 7.48-.1 16.71-.1l16.71.1zm.56 4.34c0 .06-7.61.1-16.99.1-9.39 0-16.99-.05-16.99-.1 0-.06 7.61-.1 16.99-.1l16.99.1zm.72 4.77c0 .06-7.77.1-17.35.1s-17.35-.05-17.35-.1 7.77-.1 17.35-.1l17.35.1zm.4 4.77c0 .06-7.86.1-17.55.1-9.7 0-17.55-.05-17.55-.1s7.86-.1 17.55-.1l17.55.1zm.55 4.76c0 .06-7.98.1-17.83.1s-17.83-.05-17.83-.1c0-.06 7.98-.1 17.83-.1l17.83.1zm.54 4.77c0 .06-8.1.1-18.1.1s-18.1-.05-18.1-.1c0-.06 8.1-.1 18.1-.1l18.1.1zm.53 4.77c0 .06-8.41.1-18.78.1-10.38 0-18.78-.05-18.78-.1 0-.06 8.41-.1 18.78-.1l18.78.1zm.51 4.77c0 .06-8.68.1-19.38.1-10.71 0-19.39-.05-19.39-.1s8.68-.1 19.39-.1l19.38.1zm.49 4.77c0 .06-8.82.1-19.71.1s-19.71-.05-19.71-.1c0-.06 8.82-.1 19.71-.1l19.71.1zm.47 4.76c0 .06-8.93.1-19.94.1s-19.94-.05-19.94-.1c0-.06 8.92-.1 19.94-.1l19.94.1zm-.27 4.77c0 .06-9 .02-20.09-.08l-20.09-.29c0-.06 9-.02 20.1.08l20.08.29zm0 4.4c0 .06-9.32.2-20.83.31l-20.83.1c0-.06 9.32-.19 20.83-.31l20.83-.1z" class="W"/><use xlink:href="#H" class="Q"/><use xlink:href="#H" class="T"/><g class="P"><path d="M568.14 272.09s-1.24 1.41-3.56 3.37c-1.15.98-2.6 2.07-4.26 3.18-1.68 1.09-3.59 2.2-5.68 3.19-2.09.98-4.16 1.76-6.07 2.37-1.92.59-3.67 1.02-5.16 1.29-2.98.55-4.86.62-4.86.62 0-.01.11-.03.34-.06l.97-.13c.84-.09 2.05-.29 3.53-.58s3.23-.73 5.13-1.33a52.94 52.94 0 0 0 6.04-2.38c2.08-.99 3.98-2.09 5.66-3.17l4.28-3.13 2.68-2.36.71-.67.25-.21zm-9.78-22.56c0 .01-.07-.01-.2-.05l-.56-.18-2.05-.71-6.71-2.49-6.79-2.25-2.09-.59-.57-.16c-.13-.04-.2-.06-.19-.07 0-.01.07 0 .2.03l.58.13 2.11.53c1.77.47 4.2 1.23 6.82 2.19l6.69 2.55 2.03.78.55.22.18.07z"/><path d="M558.36 249.53l.28-.78.81-2.22 2.65-8.28c.95-3.54 1.63-7.87 2.33-12.67.35-2.38.52-4.99-.32-7.49a10.11 10.11 0 0 0-2.01-3.41c-.44-.51-.94-.99-1.45-1.45-.51-.47-1.06-.87-1.7-1.14-1.26-.57-2.69-.65-4.01-.41-1.33.23-2.58.78-3.66 1.5-2.25 1.45-3.29 3.94-4.06 6.2l-4.08 12.24-2.76 8.25-.76 2.24-.28.78.24-.79.72-2.25 2.7-8.27 4.03-12.26c.4-1.15.84-2.32 1.48-3.44a8.61 8.61 0 0 1 2.64-2.87c1.11-.74 2.38-1.31 3.74-1.54 1.35-.25 2.82-.17 4.13.42.65.28 1.24.71 1.75 1.18.52.46 1.02.94 1.47 1.46a10.45 10.45 0 0 1 2.05 3.48c.86 2.55.68 5.2.32 7.58-.71 4.8-1.41 9.13-2.38 12.69-.98 3.54-2.01 6.34-2.71 8.27-.72 1.94-1.16 2.98-1.16 2.98zm8.45 57.24l.79 58.14c.05 4.01.46 8.01 1.25 11.95 1.07 5.36 2.97 12.36 6.08 16.7 4.72 6.59 21.32 25.2 21.32 25.2l-13.97 16.33s-29.63-23.6-31.54-45.39c-.97-11.07 0-77.26 0-77.26l16.07-5.67z"/><path d="M534.14 292.69l-.36 150.42h23.16l4.09-130.87s6.7-4.41 7.88-10.06c1.59-7.63.88-11.19.88-11.19l-35.65 1.7z"/></g><path d="M532.73 439.48h25.16v3.63h-25.16zm45.726-5.843l17.313-18.256 2.634 2.498-17.313 18.256z" class="U"/><path d="M594.8 416.71c.01.01-.04.06-.14.17l-.43.47-1.6 1.72-5.29 5.69-5.48 5.51-1.68 1.65-.46.44-.17.14c-.01-.01.04-.06.14-.17l.44-.47 1.63-1.7 5.44-5.55 5.33-5.65 1.65-1.68.46-.44.16-.13z" class="P"/><g class="U"><path d="M551.78 291.9l-.07.38a6.35 6.35 0 0 1-.36 1.08c-.2.46-.51 1-.98 1.57-.46.57-1.09 1.14-1.77 1.8-.67.67-1.45 1.39-2.11 2.33-.68.96-.62 2.28-.69 3.61l-.31 9.15-.37 11.09-.36 12.73-.78 29.17-.89 53.01-.42 21.95v-1.52l.05-4.37.23-16.07.83-53.01.8-29.17.38-12.73.4-11.09.34-9.15c.08-1.32.02-2.67.72-3.66.68-.95 1.46-1.66 2.14-2.33l1.78-1.78s.79-1.09.99-1.54a6.24 6.24 0 0 0 .37-1.07l.08-.38zm-13.84 1.81c-.05.03-.2-.14-.33-.39s-.2-.47-.15-.49.2.15.33.39c.14.24.2.46.15.49zm1.33 1.49c-.04.04-.23-.08-.43-.27-.2-.2-.33-.39-.29-.42.04-.04.24.08.43.27s.32.38.29.42zm1.69 1.06c-.02.05-.24-.01-.49-.14s-.42-.28-.39-.33.25.02.49.14c.24.13.41.28.39.33zm1.92.54c-.01.06-.23.06-.51 0s-.49-.15-.47-.2c.02-.06.24-.06.51 0 .27.05.48.14.47.2zm1.99-.08c.01.06-.2.13-.48.17s-.51.01-.51-.05.22-.11.49-.15c.26-.04.49-.02.5.03zm1.88-.68c.03.05-.16.18-.41.3-.26.12-.48.16-.5.11s.17-.19.41-.3.47-.16.5-.11zm1.6-1.19c.04.04-.1.22-.31.4s-.41.29-.45.25c-.03-.05.11-.23.31-.4.21-.18.41-.29.45-.25zm1.21-1.59c.05.03-.03.24-.18.48s-.31.4-.36.36.04-.25.18-.48c.14-.22.31-.39.36-.36zm.52-1.25c.06.02.08.11.04.2-.03.1-.1.16-.15.14s-.07-.11-.04-.2c.02-.09.09-.16.15-.14z"/><use xlink:href="#I"/><use xlink:href="#J"/><path d="M543.79 304.64c-.06 0-.1-.23-.09-.5.01-.28.06-.5.12-.5s.1.23.09.5c0 .28-.06.5-.12.5z"/><use xlink:href="#J" x="-0.13" y="4"/><use xlink:href="#J" x="-0.19" y="6"/><use xlink:href="#J" x="-0.25" y="8"/><use xlink:href="#J" x="-0.31" y="10"/><use xlink:href="#J" x="-0.37" y="12"/><use xlink:href="#J" x="-0.43" y="14"/><use xlink:href="#I" x="-0.55" y="18"/><use xlink:href="#K"/><use xlink:href="#L"/><use xlink:href="#J" x="-0.64" y="22.01"/><use xlink:href="#I" x="-0.76" y="26.01"/><path d="M543.12 328.65c-.06 0-.1-.23-.09-.5.01-.28.06-.5.12-.5s.1.23.09.5c-.01.28-.07.51-.12.5z"/><use xlink:href="#J" x="-0.79" y="28.02"/><use xlink:href="#J" x="-0.84" y="30.02"/><use xlink:href="#L" x="-0.3" y="12.02"/><use xlink:href="#I" x="-1" y="36.03"/><use xlink:href="#K" x="-0.44" y="18.03"/><use xlink:href="#I" x="-1.09" y="40.04"/><use xlink:href="#M"/><use xlink:href="#M" x="-0.04" y="2.01"/><use xlink:href="#N"/><use xlink:href="#O"/><use xlink:href="#P"/><use xlink:href="#M" x="-0.21" y="10.03"/><use xlink:href="#Q"/><use xlink:href="#O" x="-0.16" y="8.02"/><path d="M542.47 358.73c-.06 0-.1-.23-.09-.5.01-.28.06-.5.11-.5s.1.23.09.5-.06.5-.11.5zm-.04 2c-.06 0-.1-.23-.09-.5.01-.28.06-.5.11-.5.06 0 .1.23.09.5 0 .28-.06.5-.11.5z"/><use xlink:href="#N" x="-0.32" y="16.05"/><path d="M542.35 364.75c-.06 0-.1-.23-.09-.5.01-.28.06-.5.11-.5s.1.23.09.5c0 .27-.05.5-.11.5z"/><use xlink:href="#N" x="-0.4" y="20.06"/><use xlink:href="#O" x="-0.39" y="20.06"/><use xlink:href="#P" x="-0.38" y="20.06"/><use xlink:href="#M" x="-0.59" y="30.09"/><path d="M542.17 374.78c-.06 0-.1-.23-.1-.5.01-.28.06-.5.11-.5.06 0 .1.23.09.5 0 .27-.05.5-.1.5zm-.04 2c-.06 0-.1-.23-.09-.5.01-.28.06-.5.11-.5.06 0 .1.23.1.5-.01.28-.06.5-.12.5z"/><use xlink:href="#N" x="-0.62" y="32.1"/><path d="M542.06 380.8c-.06 0-.1-.23-.1-.5.01-.28.06-.5.11-.5s.1.23.09.5c0 .27-.05.5-.1.5zm-.04 2c-.06 0-.1-.23-.1-.5.01-.28.06-.5.11-.5.06 0 .1.23.09.5.01.28-.04.5-.1.5zm-.04 2.01c-.06 0-.1-.23-.1-.5.01-.28.06-.5.11-.5.06 0 .1.23.09.5.01.27-.04.5-.1.5z"/><use xlink:href="#M" x="-0.85" y="44.13"/><use xlink:href="#M" x="-0.88" y="46.14"/><use xlink:href="#Q" x="-0.67" y="36.11"/><use xlink:href="#M" x="-0.96" y="50.15"/><path d="M541.8 394.84c-.06 0-.1-.23-.09-.5.01-.28.06-.5.11-.5s.1.23.09.5-.06.5-.11.5zm-.04 2c-.06 0-.1-.23-.09-.5.01-.28.06-.5.11-.5s.1.23.09.5c0 .28-.06.5-.11.5zm-.04 2.01c-.06 0-.1-.23-.09-.5.01-.28.06-.5.11-.5s.1.23.09.5c0 .27-.05.5-.11.5z"/><use xlink:href="#M" x="-1.11" y="58.17"/><use xlink:href="#Q" x="-0.9" y="48.14"/><use xlink:href="#M" x="-1.19" y="62.18"/><use xlink:href="#Q" x="-0.98" y="52.15"/><use xlink:href="#M" x="-1.27" y="66.19"/><use xlink:href="#P" x="-1.14" y="60.17"/><path d="M541.44 412.88c-.06 0-.1-.23-.09-.5.01-.28.06-.5.11-.5.06 0 .1.23.09.5 0 .28-.06.5-.11.5z"/><use xlink:href="#N" x="-1.32" y="68.19"/><use xlink:href="#K" x="-1.97" y="96.24"/><use xlink:href="#I" x="-2.62" y="118.25"/><use xlink:href="#J" x="-2.6" y="118.25"/><path d="M541.22 422.89c-.06 0-.1-.23-.09-.5.01-.28.06-.5.12-.5s.1.23.09.5c-.02.28-.07.5-.12.5z"/><use xlink:href="#K" x="-2.15" y="104.25"/><use xlink:href="#L" x="-2.15" y="104.25"/><use xlink:href="#J" x="-2.79" y="126.26"/><path d="M541.02 430.9c-.06 0-.1-.23-.09-.5s.06-.5.12-.5.1.23.09.5c-.01.28-.06.5-.12.5z"/><use xlink:href="#J" x="-2.89" y="130.26"/><use xlink:href="#J" x="-2.94" y="132.26"/><use xlink:href="#I" x="-3.06" y="136.26"/><path d="M540.82 438.8c-.06 0-.1-.21-.09-.46s.06-.45.12-.45.1.21.09.46c-.02.25-.07.46-.12.45z"/></g><path d="M539.19 209.27l-.65-10.86s-6.26-.38-6.91-6.55c-.65-6.16-.9-20.44-.9-20.44h0c6.87-3.74 15.21-3.51 21.86.61l1.56.97.17 7.25-.35 6.52-.27 17.74-14.45 4.78c-.04.01-.06 0-.06-.02z" class="S"/><g class="P"><path d="M531.67 181.32c.02.44.39.78.83.76s.78-.39.76-.83-.39-.78-.83-.76c-.44.03-.78.4-.76.83z"/><path d="M531.61 181.05c.11.1.67-.43 1.52-.51.85-.1 1.51.3 1.59.18.04-.05-.07-.24-.36-.42-.28-.18-.75-.33-1.28-.28-.53.06-.96.3-1.2.54-.25.24-.32.45-.27.49zm9.76-.76c-.35.26-.42.76-.16 1.11s.76.42 1.11.16.42-.76.16-1.11a.78.78 0 0 0-1.11-.16z"/><path d="M541.05 180.63c.11.1.67-.43 1.52-.51.85-.1 1.51.3 1.59.18.04-.05-.07-.24-.36-.42-.28-.18-.76-.33-1.28-.28-.53.06-.96.3-1.2.54-.25.24-.32.45-.27.49zm-2.75 7.33c0 .06-.53.12-1.4.17-.18.01-.59.06-.79-.33-.15-.35-.02-.66.04-.93l.48-1.8 1.48-4.55c.12.03-.35 2.12-1.05 4.67l-.51 1.79c-.09.28-.15.52-.1.66.03.13.22.16.44.16.87.05 1.41.1 1.41.16z"/></g><path d="M541.15 188.64c.84-.61-2.32 1.52-4.06 1.6 0 0 1.14 1.49 2.86.68 1.78-.85 1.2-2.28 1.2-2.28z" class="R"/><path d="M538.53 198.53s4.17-.14 8.07-3.13c0 0-1.66 4.62-7.87 4.64l-.2-1.51z" class="V"/><path d="M550.88 167.8c-1.79-1.37-3.6-2.75-5.69-3.58s-4.52-1.06-6.56-.1c-.94.44-1.75 1.12-2.72 1.49-2.03.79-4.52.2-6.29 1.46-1.62 1.15-1.96 3.61-1.02 5.37s2.89 2.81 4.86 3.06 3.98-.2 5.86-.86c1.1-.38 2.31-.84 3.4-.42 1.04.4 1.76 1.55 2.87 1.64.97.09 2.11-.63 2.82.04.29.27.37.69.45 1.09.38 2.12 1.64 6.42 2.02 8.55 1.4.61 2.05-1.27 3.57-1.3.25-4.7 2.27-9.42 1.09-13.98-.29-1.12-.82-2.26-1.79-2.9s-2.46-.59-3.14.35" class="P"/><path d="M551.84 179.31c.11-.08 4.14-1.56 4.86 3.43.72 4.98-4.55 4.06-4.58 3.92-.04-.14-.28-7.35-.28-7.35z" class="S"/><path d="M553.39 184.69c.02-.02.1.05.25.09s.4.05.65-.08c.5-.27.82-1.17.72-2.07-.05-.46-.21-.87-.42-1.21-.2-.34-.48-.56-.75-.57-.27-.02-.44.16-.48.31-.05.15 0 .24-.03.26-.01.01-.12-.07-.11-.28a.6.6 0 0 1 .15-.34.7.7 0 0 1 .46-.2c.39-.03.78.27 1.02.64a3.04 3.04 0 0 1 .5 1.35c.11 1.01-.27 2.02-.96 2.33-.34.14-.64.08-.81-.02-.17-.09-.21-.2-.19-.21z" class="V"/><g class="P"><path d="M549.82 164.47c.14-.03.44.76.67 1.76.23 1.01.31 1.85.17 1.88s-.44-.76-.67-1.76c-.24-1.01-.31-1.85-.17-1.88z"/><path d="M552.01 164.71c.13.06-.09.87-.5 1.8-.41.94-.84 1.65-.98 1.6-.13-.06.09-.86.5-1.8s.85-1.66.98-1.6z"/></g><path d="M539.93 243.27c-.62 1.98-1.15 3.25-1.77 3.93-2.84 3.1-27.39-23.58-27.39-23.58-.12-.93-.38-4.29-.19-5.2.23-1.11.61-2.57 1.06-3.3.56-.91-.28-2.03-1.18-1.66s-2.5 2.84-2.91 6.25c-.41 3.42-4.02-.83-5.11-2.48-1.08-1.65-4.83-6.62-5.61-6.68-1.13-.1-1.25 1.29-.13 2.91 1.13 1.64 4.33 6.43 3.92 6.75-.82.62-6.58-7.77-6.58-7.77s-.89-1.74-1.95-1.16c-1.91 1.04 4.49 9.59 5.12 10.39.44.56-.19.77-.63.15-.45-.64-5.57-7.88-6.92-6.95-1.4.96 4.29 6.94 5.05 8.72.86 2.02-4.6-5.3-6-4.47-.52.31-.87.61 2.43 4.52 2.1 2.49 7.1 7.04 10.6 10.13 6.97 8.29 31.09 35.88 42.37 34.33 2.47-.34 4.77-1.53 6.2-3.87 3.24-5.34 5.72-9.65 7.67-14.81l-18.05-6.15z" class="S"/><path d="M274.5 444.66l-.22-9.17-17.19.31.18 13.42 1.07.05c4.75.18 24.15.58 27.3-.44 3.52-1.14-11.14-4.17-11.14-4.17z" class="Q"/><g class="P"><path d="M263.43 448.99c-.27-1.43-1.09-2.75-2.26-3.63-1.17-.87-2.59-1.32-4.04-1.18l.08 4.8h6.22z"/><path d="M281.67 446.39s5.14 1.39 4.52 2.24-20.25 1.19-28.91.58l.02-.38 22.89-.2c0 0 .48-2.18 1.48-2.24z"/></g><g class="U"><path d="M257.03 448.82c0-.01.1-.01.3-.02h.85l3.13.01 10.31-.06 10.31-.28 3.12-.12.85-.03.3.01s-.1.02-.29.04l-.85.06-3.12.18c-2.64.14-6.28.28-10.31.34-4.03.07-7.68.05-10.32 0l-3.13-.08-.85-.04c-.2.01-.3 0-.3-.01z"/><path d="M280.19 448.9c-.05.01-.11-.79.38-1.61.48-.82 1.21-1.16 1.22-1.11.04.05-.6.44-1.04 1.21-.46.77-.5 1.52-.56 1.51zm-5.12-2.49c-.05-.03.11-.38.35-.78s.48-.7.53-.67-.11.38-.35.78-.48.7-.53.67zm-1.4-.71c-.04-.04.17-.3.46-.57s.56-.46.6-.41c.04.04-.17.3-.46.57s-.56.45-.6.41zm-.91-1.61c0-.06.4-.11.9-.11s.9.04.9.1-.4.11-.9.11c-.5.01-.9-.04-.9-.1z"/><path d="M272.44 442.96c.02-.06.46.04 1.02.07.55.03 1.01-.01 1.02.05.01.05-.45.19-1.03.16-.59-.04-1.03-.23-1.01-.28zm3.19 1.94c0-.03.42-.04 1.08-.17.33-.06.72-.16 1.13-.32.2-.08.44-.16.62-.28.19-.12.26-.33.08-.45-.38-.23-.93-.19-1.32-.07a1.97 1.97 0 0 0-.93.63c-.42.51-.45.96-.49.95-.01 0-.02-.11.02-.3s.14-.46.35-.74c.38-.55 1.43-1.16 2.49-.64.13.09.22.27.17.44-.04.17-.16.27-.27.35-.23.15-.45.21-.67.29-.43.15-.83.23-1.17.28-.67.1-1.09.06-1.09.03z"/><path d="M275.92 444.95c-.04-.01.06-.3-.03-.74-.05-.22-.15-.48-.32-.71-.17-.22-.46-.49-.74-.46-.28.06-.17.47-.01.7a4.06 4.06 0 0 0 .47.65l.53.54c-.01.02-.29-.1-.64-.44a3.81 3.81 0 0 1-.53-.66c-.08-.13-.17-.3-.2-.49-.04-.19.08-.48.33-.52.47-.03.73.31.93.55.19.27.28.56.32.8.06.51-.1.8-.11.78zm-18.62-.83c0-.01.12-.05.34-.08.22-.04.54-.06.94-.04a5.36 5.36 0 0 1 4.7 3.61c.12.38.18.7.2.92s.02.35.01.35c-.04.01-.07-.49-.35-1.22a5.59 5.59 0 0 0-1.77-2.42c-.94-.72-2.02-1.02-2.79-1.09-.79-.09-1.28 0-1.28-.03z"/><path d="M258.96 436.93c.06 0 .11 1.58.12 3.53l-.09 3.53c-.06 0-.11-1.58-.12-3.53l.09-3.53zm6.68 10.33c.01-.06 1.13.01 2.51 0l2.51-.04c.01.05-1.11.24-2.51.24-1.39.01-2.52-.15-2.51-.2zm-3.37.05c.04-.04.26.11.4.4s.11.57.06.57c-.06 0-.12-.22-.24-.48s-.26-.45-.22-.49zm-1.3-1.56c.04-.04.22.07.4.25s.29.35.25.4c-.04.04-.22-.07-.4-.25-.17-.18-.29-.36-.25-.4zm-1.82-.69c-.02-.05.24-.16.56-.06s.46.34.42.37c-.04.04-.23-.1-.48-.18-.26-.08-.49-.07-.5-.13zm-1.3-.32c.02-.05.15-.05.3 0 .14.05.24.14.22.19s-.15.05-.3 0c-.14-.05-.24-.13-.22-.19z"/></g><path d="M334.7 187.29s14.67-15.15 16-14.47-5.38 6.84-4.49 7.64 7.96 6.17-3.42 14.69l-8.09-7.86z" class="S"/><g class="V"><path d="M347.32 182.9c.01.01-.07.17-.24.45l-.71 1.17-1.08 1.73c-.21.32-.46.67-.86.89-.4.2-.96.21-1.31-.19-.34-.44-.11-.98.09-1.32l.65-1.02 1.11-1.7.77-1.14c.18-.27.29-.41.3-.4s-.07.17-.24.45l-.71 1.17-1.08 1.73-.63 1.01c-.2.34-.35.78-.1 1.09.24.29.73.31 1.06.14.35-.18.59-.5.8-.81l1.11-1.7.76-1.14c.19-.28.3-.42.31-.41z"/><path d="M348.07 184.56c.01 0 0 .16-.06.43a5.7 5.7 0 0 1-.38 1.13 6.23 6.23 0 0 1-.95 1.49c-.21.25-.47.52-.81.69-.31.18-.84.25-1.15-.11-.29-.34-.29-.8-.15-1.15.14-.36.36-.63.55-.9.38-.53.68-1.04.94-1.47l.65-.99c.17-.23.27-.34.28-.33s-.07.14-.21.38l-.59 1.02-.91 1.5c-.19.27-.4.54-.52.86-.12.3-.11.69.11.94.22.26.61.23.9.07.3-.15.54-.39.76-.64.43-.49.74-.99.96-1.43.45-.88.54-1.5.58-1.49z"/></g><path d="M339.23 184.16l5.37-.36a.7.7 0 0 1 .29.02c.29.1.33.49.26.79-.21.92-1 1.61-1.87 1.96s-1.83.41-2.76.47l-2.57.16" class="S"/><g class="V"><path d="M337.95 187.19c0-.01.2-.04.58-.08l1.58-.13c.67-.06 1.47-.08 2.32-.26.84-.18 1.77-.6 2.32-1.43.25-.4.46-.93.24-1.28-.1-.16-.33-.11-.57-.1l-.68.04-2.35.14-1.58.07h-.58c0-.01.2-.04.58-.08l1.58-.14 2.34-.18.68-.05.36-.02c.14 0 .3.07.38.2.17.25.16.54.09.79a2.21 2.21 0 0 1-.32.72c-.59.9-1.59 1.33-2.45 1.51-.88.18-1.69.18-2.35.22l-1.58.06c-.38.02-.58.02-.59 0zm11.03-1.15c.01.01-.04.12-.12.32s-.17.5-.27.89c-.1.38-.22.85-.5 1.31a1.96 1.96 0 0 1-.6.62c-.13.08-.3.14-.48.12-.18-.03-.33-.15-.43-.29-.2-.29-.16-.67-.06-.94.1-.28.22-.52.33-.76l.58-1.26.58-1.14c.03.01-.15.47-.44 1.2l-.54 1.28c-.17.47-.57 1.04-.27 1.51.14.23.41.26.63.11.22-.14.4-.33.54-.54.27-.42.4-.88.52-1.25.21-.78.5-1.2.53-1.18z"/><path d="M342.17 191.49c-.06-.02.22-1.02.3-2.28.08-1.27-.07-2.29-.01-2.3.05-.01.3 1.02.21 2.32-.07 1.28-.45 2.28-.5 2.26z"/></g><path d="M272.44 182.24c-.04 3.88 2.11 7.72 5.44 9.72.9.54 1.87.95 2.69 1.6s1.49 1.61 1.45 2.65c-.07 1.63-1.72 2.67-3.18 3.42 1.6 1.5 1.62 4.36.04 5.87-1.58 1.52-4.43 1.39-5.87-.27-.08 3.06-2.53 5.78-5.48 6.62s-6.21 0-8.71-1.79c-2.49-1.78-4.28-4.41-5.54-7.2" class="P"/><path d="M265.02 210.83c-.27-1.55.36-8.05.36-8.05s5.93-.63 6.29-6.51 0-19.45 0-19.45l-10.81-5.28-11.89 9.01 1.8 29.42 14.25.86z" class="S"/><path d="M270.49 186.71a.75.75 0 1 1-1.5 0 .75.75 0 1 1 1.5 0zm.73-.82c-.1.1-.65-.38-1.46-.42-.81-.06-1.42.35-1.5.24-.04-.05.06-.23.33-.41.26-.18.7-.35 1.21-.32s.92.25 1.16.46c.23.22.31.41.26.45zm-9.45.82a.75.75 0 1 1-.75-.75c.41 0 .75.34.75.75zm.47-.82c-.1.1-.65-.38-1.46-.42-.81-.06-1.42.35-1.5.24-.04-.05.06-.23.33-.41.26-.18.7-.35 1.21-.32a2 2 0 0 1 1.16.46c.22.22.3.41.26.45zm2.92 6.8c0-.04.5-.1 1.32-.16.2-.01.41-.04.46-.19.06-.16-.02-.4-.11-.65l-.56-1.67-.95-3.06c-.23-.79-.35-1.28-.3-1.29.04-.01.23.46.51 1.23l1.03 3.03.53 1.68c.07.25.19.53.07.84-.16.33-.52.3-.69.31l-1.31-.07z" class="P"/><path d="M262.48 193.51c-.82-.54 2.27 1.35 3.92 1.35 0 0-1.02 1.47-2.69.76-1.73-.73-1.23-2.11-1.23-2.11z" class="R"/><path d="M265.38 202.79s-3.96.04-7.8-2.63c0 0 1.77 4.32 7.67 4.08l.13-1.45z" class="V"/><g class="P"><path d="M269.2 172.5c-5.83-6.06-9.84-4.8-12.12-4.8-1.62 0-8.25 1.33-12.75 7.37v-.01c-1.63 1.69-3.95 7.21-4.22 9.15-.27 1.95.07 3.92.05 5.89-.01 1.96-.46 4.08-1.93 5.38-.93.83-2.24 1.3-2.8 2.41-.65 1.3.08 2.97 1.29 3.77s2.75.92 4.2.86c-.34 2.9 1.91 5.86 4.8 6.31 1.48.23 3.01-.22 4.22-1.11.98.96 2.02 1.86 3.13 2.7.24-8.56.05-17.14-.54-25.68 3.93-.7 10.97-2.81 12.19-9.1 1.57 3.58 3.95 5.53 7.11 8.25 0 .01 3.2-5.33-2.63-11.39z"/><path d="M252.96 182.48c0-.08.93-.07 2.41.01 1.46.05 3.55.21 5.58-.65 1-.42 1.81-1.11 2.33-1.89s.79-1.61.93-2.32c.27-1.43.14-2.35.23-2.36.05-.01.32.91.13 2.42-.1.75-.35 1.65-.89 2.52s-1.44 1.65-2.52 2.1c-2.19.93-4.37.68-5.82.54l-2.38-.37zm-15.32 14.41c.01-.05.37.07.96-.14.56-.2 1.37-.82 1.59-1.91.25-1.09-.11-2.43-.72-3.81-.29-.7-.63-1.45-.83-2.29a7.79 7.79 0 0 1-.16-2.65c.19-1.82.91-3.43 1.75-4.74.85-1.31 1.82-2.32 2.66-3.13l2.07-1.82c.51-.41.8-.62.82-.59.06.06-1.02 1.02-2.63 2.67-.79.83-1.71 1.85-2.51 3.13-.79 1.27-1.46 2.82-1.64 4.53-.09.85-.04 1.69.14 2.48.18.78.5 1.51.78 2.23.59 1.41.96 2.88.63 4.08-.31 1.22-1.25 1.85-1.89 2.01a1.92 1.92 0 0 1-.77.04c-.17-.04-.25-.08-.25-.09zm42.74-8.41c.02-.01.19.22.18.71-.01.47-.26 1.22-1 1.72-.75.51-1.92.55-2.95.04-1.05-.51-1.86-1.52-2.49-2.6a15.93 15.93 0 0 1-2.06-6.08c-.2-1.64-.1-2.66-.04-2.66.08 0 .11 1.01.4 2.6.29 1.58.9 3.76 2.15 5.87.61 1.05 1.35 1.97 2.26 2.44.9.47 1.9.46 2.54.08.65-.39.94-1.01 1-1.43.06-.43-.03-.68.01-.69zm-9.1 92.53s20.05 65.07 18.79 86.09-15.94 73.2-15.94 73.2l-2.85-159.29z"/><path d="M242.96 269.92c-.45-.12-9.24 12.8-9.53 23.9-.03 1.06.02 2.17.12 3.27.35 3.89 1.33 7.69 2.77 11.32 7.43 18.77 15.1 41.04 15.23 46.11.39 15.63 3.44 87.45 3.44 87.45l21.61-1.52-.71-85.92-5.26-85.32-27.67.71z"/></g><g class="U"><path d="M254.77 269.55c.13-.03.19 2.4.19 6.75.04 4.36-.21 10.67.08 18.46l.32 6.11c.13 2.12.33 4.33.56 6.6.47 4.56 1.13 9.41 1.94 14.5l2.51 15.98c.78 5.55 1.39 11.34 1.72 17.28.36 5.94.28 11.76.39 17.36l.36 16.17.97 27.37.68 18.45.15 5.02.04 1.75-1.02-25.21-1.01-27.37-.38-16.17c-.11-5.61-.03-11.42-.39-17.36-.32-5.93-.93-11.71-1.71-17.26-.77-5.55-1.69-10.88-2.49-15.97-.81-5.09-1.46-9.95-1.92-14.51-.23-2.28-.43-4.49-.55-6.61-.17-2.12-.23-4.16-.31-6.11-.27-7.8 0-14.1-.02-18.46l-.01-5.02c-.02-1.16-.05-1.77-.1-1.75z"/><path d="M254.87 438.88h21.72v3.27h-21.72z"/><use xlink:href="#R"/><use xlink:href="#S"/><use xlink:href="#S" x="0.06" y="2"/><use xlink:href="#S" x="0.12" y="4"/><use xlink:href="#S" x="0.18" y="6"/><use xlink:href="#S" x="0.24" y="8"/><path d="M256.59 282.21c-.06 0-.11-.22-.12-.5s.03-.5.09-.5.11.22.12.5c0 .27-.04.49-.09.5zm.06 2c-.06 0-.11-.22-.12-.5s.03-.5.09-.5.11.22.12.5c0 .27-.04.49-.09.5z"/><use xlink:href="#T"/><use xlink:href="#T" x="0.06" y="2"/><use xlink:href="#T" x="0.12" y="4"/><use xlink:href="#U"/><use xlink:href="#U" x="0.03" y="2"/><use xlink:href="#T" x="0.2" y="10.01"/><use xlink:href="#V"/><path d="M257.05 300.22c-.06 0-.11-.22-.13-.5-.01-.28.02-.5.08-.5s.11.22.13.5c.02.27-.02.49-.08.5zm.11 2c-.06 0-.12-.22-.13-.49-.02-.28.02-.5.08-.51.06 0 .12.22.13.49.01.28-.02.5-.08.51zm.13 1.99c-.06 0-.12-.22-.14-.49-.02-.28.01-.5.07-.51.06 0 .12.22.14.49.02.28-.01.51-.07.51zm.15 2c-.06 0-.12-.21-.14-.49s.01-.5.06-.51c.06 0 .12.22.14.49.03.28 0 .5-.06.51zm.18 1.99c-.06.01-.12-.21-.15-.49-.02-.28 0-.5.06-.51s.12.21.15.49c.02.28-.01.51-.06.51zm.19 1.99c-.06.01-.13-.21-.15-.49-.03-.27 0-.5.05-.51.06-.01.13.21.15.49.03.28.01.51-.05.51zm.22 1.99c-.06.01-.13-.21-.16-.49-.03-.27-.01-.5.05-.51s.13.21.16.49.01.51-.05.51zm.24 1.99c-.06.01-.13-.21-.16-.48s-.01-.5.04-.51c.06-.01.13.21.16.48.04.27.02.5-.04.51zm.26 1.98c-.06.01-.13-.21-.17-.48s-.02-.5.04-.51.13.21.17.48c.03.27.02.5-.04.51zm.28 1.97c-.06.01-.13-.21-.17-.48s-.02-.5.03-.51c.06-.01.13.21.17.48.04.28.02.5-.03.51zm.29 1.97c-.06.01-.14-.21-.18-.48s-.03-.5.03-.51.14.21.18.48c.04.28.03.5-.03.51zm.31 1.98c-.06.01-.14-.2-.18-.48-.04-.27-.03-.5.02-.51s.14.2.18.48c.05.27.04.5-.02.51zm.32 1.97c-.06.01-.14-.2-.18-.48-.04-.27-.03-.5.02-.51.06-.01.14.2.18.48.05.27.04.5-.02.51z"/><use xlink:href="#W"/><path d="M260.4 327.98c-.06.01-.14-.2-.19-.47s-.04-.5.02-.51.14.2.19.47c.04.27.03.5-.02.51z"/><use xlink:href="#W" x="0.67" y="3.93"/><use xlink:href="#W" x="1" y="5.9"/><path d="M261.39 333.87c-.06.01-.14-.2-.18-.47s-.03-.5.02-.51c.06-.01.14.2.18.47.04.28.03.5-.02.51zm.31 1.97c-.06.01-.14-.2-.18-.48-.04-.27-.03-.5.03-.51s.14.2.18.48.03.5-.03.51zm.3 1.97c-.06.01-.14-.21-.18-.48s-.03-.5.03-.51.14.21.18.48c.04.28.03.5-.03.51zm.29 1.98c-.06.01-.13-.21-.17-.48s-.02-.5.03-.51c.06-.01.13.21.17.48s.02.5-.03.51zm.26 1.97c-.06.01-.13-.21-.17-.48s-.02-.5.04-.51.13.21.17.48c.04.28.02.51-.04.51zm.25 1.98c-.06.01-.13-.21-.16-.48s-.01-.5.04-.51c.06-.01.13.21.16.48.04.28.02.51-.04.51zm.23 1.99c-.06.01-.13-.21-.16-.48s-.01-.5.05-.51.13.21.16.48 0 .5-.05.51zm.2 1.98c-.06.01-.13-.21-.15-.49-.03-.27 0-.5.05-.51.06-.01.13.21.15.49.03.28.01.51-.05.51zm.18 1.99c-.06 0-.12-.21-.15-.49-.02-.27 0-.5.06-.51s.12.21.15.49c.02.28 0 .51-.06.51zm.16 2c-.06 0-.12-.22-.14-.49-.02-.28.01-.5.07-.51.06 0 .12.21.14.49.01.27-.02.5-.07.51zm.13 1.99c-.06 0-.12-.22-.14-.49-.02-.28.01-.5.07-.51.06 0 .12.22.14.49.02.28-.01.51-.07.51zm.11 1.99c-.06 0-.12-.22-.13-.49s.02-.5.08-.5.12.22.13.49c.02.27-.02.49-.08.5zm.09 1.99c-.06 0-.11-.22-.13-.49-.01-.27.03-.5.08-.5.06 0 .11.22.13.49s-.02.5-.08.5z"/><use xlink:href="#V" x="7" y="61.45"/><path d="M264.02 361.66c-.06 0-.11-.22-.12-.5s.04-.5.09-.5c.06 0 .11.22.12.5s-.03.5-.09.5zm.03 2c-.06 0-.11-.22-.11-.5s.04-.5.1-.5.11.22.11.5-.04.5-.1.5z"/><use xlink:href="#U" x="7.24" y="73.46"/><path d="M264.09 367.67c-.06 0-.11-.22-.11-.5s.04-.5.1-.5.11.22.11.5c0 .27-.05.5-.1.5zm.02 2c-.06 0-.11-.22-.11-.5s.04-.5.1-.5.11.22.11.5c0 .27-.04.49-.1.5zm.02 2c-.06 0-.11-.22-.11-.5s.04-.5.1-.5.11.22.11.5c.01.27-.04.49-.1.5zm.04 2c-.06 0-.11-.22-.11-.5s.04-.5.1-.5.11.22.11.5c0 .27-.05.49-.1.5zm.03 1.99c-.06 0-.11-.22-.11-.5-.01-.28.04-.5.1-.5s.11.22.11.5-.04.5-.1.5zm.04 2c-.06 0-.11-.22-.11-.5-.01-.28.04-.5.09-.5.06 0 .11.22.11.5.01.28-.03.5-.09.5zm.04 2c-.06 0-.11-.22-.12-.5s.04-.5.09-.5c.06 0 .11.22.12.5s-.03.5-.09.5z"/><use xlink:href="#T" x="7.63" y="95.46"/><use xlink:href="#T" x="7.68" y="97.46"/><path d="M264.44 385.66c-.06 0-.11-.22-.12-.5s.03-.5.09-.5.11.22.12.5c0 .28-.04.5-.09.5z"/><use xlink:href="#S" x="8.2" y="115.45"/><use xlink:href="#S" x="8.26" y="117.45"/><use xlink:href="#S" x="8.32" y="119.45"/><use xlink:href="#S" x="8.39" y="121.45"/><use xlink:href="#R" x="8.51" y="125.45"/><use xlink:href="#V" x="7.84" y="99.44"/><path d="M264.89 399.65c-.06 0-.11-.22-.12-.5s.03-.5.09-.5.11.22.12.5c0 .28-.04.5-.09.5zm.07 2c-.06 0-.11-.22-.12-.5s.03-.5.09-.5.11.22.12.5c0 .28-.03.5-.09.5z"/><use xlink:href="#S" x="8.74" y="131.44"/><path d="M265.11 405.65c-.06 0-.11-.22-.12-.5s.03-.5.09-.5.11.22.12.5c0 .27-.03.5-.09.5zm.07 2c-.06 0-.11-.22-.12-.5s.03-.5.08-.5c.06 0 .11.22.12.5.02.27-.02.5-.08.5zm.08 2c-.06 0-.11-.22-.12-.5s.03-.5.08-.5c.06 0 .11.22.12.5.02.27-.02.5-.08.5zm.08 2c-.06 0-.11-.22-.12-.5s.03-.5.08-.5c.06 0 .11.22.12.5.02.27-.02.49-.08.5zm.08 1.99c-.06 0-.11-.22-.12-.5s.03-.5.08-.5c.06 0 .11.22.12.5s-.02.5-.08.5zm.08 2c-.06 0-.11-.22-.12-.5s.03-.5.08-.5c.06 0 .11.22.12.5s-.02.5-.08.5zm.08 2c-.06 0-.11-.22-.12-.5s.03-.5.08-.5c.06 0 .11.22.12.5.01.27-.02.5-.08.5zm.08 2c-.06 0-.11-.22-.12-.5s.03-.5.08-.5c.06 0 .11.22.12.5.01.27-.03.5-.08.5zm.08 2c-.06 0-.11-.22-.12-.5s.03-.5.08-.5c.06 0 .11.22.12.5.01.27-.03.5-.08.5zm.08 2c-.06 0-.11-.22-.12-.5s.03-.5.08-.5c.06 0 .11.22.12.5.01.27-.03.49-.08.5zm.07 2c-.06 0-.11-.22-.12-.5s.03-.5.08-.5c.06 0 .11.22.12.5.02.27-.02.49-.08.5zm.08 1.99c-.06 0-.11-.22-.12-.5s.03-.5.08-.5c.06 0 .11.22.12.5.02.28-.02.5-.08.5z"/><use xlink:href="#R" x="9.81" y="159.42"/><use xlink:href="#S" x="9.83" y="159.42"/><use xlink:href="#R" x="9.96" y="163.42"/><use xlink:href="#R" x="10.03" y="165.42"/><path d="M266.34 437.64c-.06 0-.11-.22-.12-.5s.03-.5.09-.51c.06 0 .11.22.12.5 0 .28-.04.5-.09.51z"/><use xlink:href="#S" x="10.11" y="167.43"/><path d="M266.45 441.09c-.06 0-.11-.1-.11-.22s.04-.23.1-.23.11.1.11.22-.04.23-.1.23zm5.71-149.01c.02-.01-.31.25-.92.05a1.84 1.84 0 0 1-.88-.67c-.25-.36-.4-.85-.47-1.39l-.5-8.36-.42-8.36-.1-2.54-.02-.69.01-.24c.01 0 .02.08.03.24l.06.69.17 2.53.48 8.36.44 8.35c.06.52.19.99.42 1.34a1.75 1.75 0 0 0 .81.66c.56.21.89-.01.89.03zm-35.97 15.36c0-.03.31-.01.79-.24.47-.22 1.1-.75 1.47-1.63s.42-2.04.36-3.3c-.05-1.27-.18-2.66-.41-4.11-.45-2.83-1.24-5.33-1.92-7.1l.08.05-2.36.39-.64.09-.23.02c0-.01.07-.03.22-.06l.64-.13 2.34-.45.06-.01.02.06c.72 1.77 1.54 4.27 1.99 7.12.23 1.46.36 2.86.4 4.14.05 1.27-.01 2.46-.41 3.37s-1.07 1.44-1.57 1.64c-.52.2-.83.15-.83.15z"/><path d="M237.3 294.06c.01.06-.84.3-1.91.53-1.07.24-1.94.39-1.95.33s.84-.3 1.91-.53l1.95-.33zm108.31-98.51l-11.2-9.18c-30.44 27.47-69.69 24.34-69.69 24.34l.01.07c-1.75-.29-11-1.77-14.06-1.83-2.39-.04-7.92-.48-11.83 3.21h0 0c-.1.09-.19.18-.29.28-3.54 3.46-38.98 38.38-35.22 47.04 3.96 9.11 37.64 28.9 37.64 28.9l8.16-14.82-6.02-4.02 27.5-.71 1.22-20.59s4.69-5.25 4.69-9.02c0-2.62-1.44-6.94-3.31-11.43 43.37-3.61 72.4-32.24 72.4-32.24zm-121.88 58.99c.32-1.08 7.37-8.78 13.73-15.59l5.48 30.48c-7.65-5.18-19.62-13.54-19.21-14.89z"/></g><path d="M274.9 243.76s-.35.04-1.01.04c-.66-.01-1.66-.01-2.89-.35-1.2-.32-2.74-1.13-3.53-2.82-.39-.82-.48-1.91.01-2.85.45-.91 1.43-1.78 2.65-1.71s2.22 1.13 2.52 2.35c.32 1.26-.16 2.63-.98 3.69-1.65 2.16-4.62 3.4-7.64 3.14-1.5-.11-3.04-.59-4.36-1.48-1.31-.89-2.45-2.18-2.88-3.82-.21-.81-.21-1.7.14-2.51.35-.8 1.05-1.42 1.86-1.74.8-.33 1.84-.29 2.54.32.72.58.99 1.57.9 2.45-.08.89-.4 1.74-.87 2.47-.49.73-1.11 1.33-1.77 1.87-1.36 1.04-2.97 1.67-4.6 1.89-3.25.49-6.65-.71-8.53-3.14-.46-.61-.81-1.3-.94-2.05a3.54 3.54 0 0 1 .28-2.18c.31-.67.89-1.21 1.58-1.44.7-.23 1.44-.09 2.06.18 1.23.59 2.14 1.81 2.14 3.12.03 1.29-.59 2.44-1.37 3.26-1.59 1.7-3.81 2.23-5.59 2.14-1.82-.08-3.3-.72-4.36-1.4-1.07-.69-1.73-1.46-2.1-2-.38-.55-.52-.87-.52-.87.02-.01.18.3.57.83s1.05 1.27 2.12 1.94c1.05.66 2.52 1.27 4.3 1.33 1.74.07 3.89-.46 5.42-2.12.75-.8 1.32-1.9 1.29-3.11 0-1.2-.85-2.34-2-2.89-.58-.25-1.26-.38-1.87-.17-.61.2-1.14.68-1.41 1.3-.29.61-.37 1.33-.25 2.02.13.69.46 1.35.9 1.92 1.81 2.33 5.1 3.49 8.26 3.01 1.58-.21 3.15-.83 4.46-1.83.64-.51 1.25-1.1 1.7-1.79s.75-1.5.82-2.32c.08-.82-.16-1.68-.79-2.18-.6-.53-1.5-.57-2.23-.27-.74.29-1.38.87-1.69 1.58-.31.72-.32 1.55-.12 2.31.4 1.54 1.5 2.79 2.75 3.65 1.27.86 2.75 1.33 4.21 1.44 2.93.26 5.82-.94 7.41-3.01.79-1.01 1.24-2.31.95-3.48-.28-1.15-1.21-2.13-2.3-2.19-1.1-.08-2.03.71-2.46 1.58-.46.89-.39 1.9-.03 2.69.75 1.62 2.23 2.44 3.41 2.77 1.21.35 2.2.37 2.86.4l.75.01.23.02zm-3.92 18.99s-.16.13-.49.34l-1.45.92c-.64.39-1.44.86-2.45 1.21s-2.26.48-3.6.32c-1.31-.16-2.87-.48-4.06-1.62-.57-.57-1.03-1.33-1.12-2.21-.12-.87.26-1.84 1.01-2.4.37-.28.83-.48 1.32-.5a1.99 1.99 0 0 1 1.36.48c.75.65 1.07 1.73.86 2.72-.22.99-.87 1.84-1.64 2.48a9.08 9.08 0 0 1-2.65 1.53c-1.94.73-4.05.84-5.94.37-1.87-.48-3.67-1.42-4.62-3.02-.45-.78-.65-1.78-.25-2.6.39-.79 1.15-1.36 1.99-1.45.42-.04.86.08 1.17.34.32.25.53.62.62.99.2.75-.03 1.53-.42 2.09-.82 1.12-1.98 1.69-2.97 2.06-1.02.35-1.95.44-2.7.41-.75-.02-1.33-.15-1.71-.26s-.57-.2-.57-.2c.01-.05.79.32 2.28.34a7.68 7.68 0 0 0 2.64-.46c.96-.37 2.09-.95 2.84-2.02.36-.53.55-1.23.37-1.9-.15-.67-.79-1.24-1.54-1.14-.73.08-1.43.61-1.77 1.32s-.18 1.61.25 2.34c.89 1.48 2.63 2.41 4.45 2.86 1.84.45 3.88.34 5.76-.36a8.74 8.74 0 0 0 2.55-1.48c.74-.62 1.35-1.41 1.54-2.31.2-.88-.1-1.87-.75-2.43-.66-.59-1.66-.51-2.31.02-.68.51-1.02 1.35-.92 2.14.08.8.5 1.52 1.03 2.05 1.11 1.08 2.61 1.42 3.9 1.58 1.31.17 2.53.06 3.52-.27 1-.32 1.8-.78 2.45-1.14l1.48-.87.54-.27zm15.06-53.34s.46.18 1.11.77a5.3 5.3 0 0 1 1.65 3.26c.1.78 0 1.67-.31 2.55-.33.87-.92 1.71-1.74 2.38-.82.65-1.84 1.15-2.98 1.31-.57.08-1.16.09-1.74-.02s-1.2-.34-1.6-.89c-.2-.27-.26-.64-.17-.97s.32-.59.56-.77c.5-.38 1.12-.49 1.7-.5 1.17.01 2.24.55 2.96 1.32.74.78 1.08 1.78 1.15 2.71a5.3 5.3 0 0 1-.44 2.53c-.66 1.45-1.73 2.27-2.46 2.72-.37.23-.68.37-.89.46l-.33.11c-.01-.03.44-.2 1.16-.67.7-.47 1.71-1.3 2.32-2.7a5.13 5.13 0 0 0 .39-2.42c-.08-.88-.41-1.82-1.1-2.53-.68-.71-1.68-1.21-2.75-1.21-.53 0-1.08.12-1.51.44-.44.3-.63.88-.32 1.32.3.43.86.66 1.39.76.55.11 1.11.1 1.64.02 1.08-.15 2.06-.62 2.84-1.23 1.6-1.25 2.18-3.18 2.01-4.68-.15-1.53-.92-2.6-1.51-3.2-.62-.62-1.05-.84-1.03-.87zm14.61-3.56s.24.16.49.61c.11.23.21.55.17.92s-.19.76-.41 1.16c-.42.78-1 1.7-1.83 2.55-.8.86-1.75 1.73-2.46 2.86-1.45 2.26-1.77 4.78-1.64 6.51.13 1.76.58 2.78.52 2.8-.02.01-.13-.24-.3-.71-.16-.47-.34-1.18-.43-2.07-.19-1.76.1-4.37 1.6-6.7.73-1.17 1.71-2.05 2.51-2.89.83-.83 1.4-1.69 1.84-2.46.22-.38.37-.74.43-1.07s-.02-.62-.1-.84c-.22-.45-.42-.65-.39-.67zm11.03 11.81s-.49.29-1.49.31a4.34 4.34 0 0 1-3.59-1.91c-1-1.51-1.15-3.87-.2-6.03.47-1.07 1.17-2.14 2.21-2.93 1.02-.79 2.47-1.18 3.82-.79.67.2 1.29.6 1.68 1.17.39.56.59 1.24.55 1.91-.03.66-.33 1.32-.83 1.73-.49.43-1.13.61-1.73.63-1.21.04-2.33-.46-3.09-1.19-.78-.72-1.24-1.63-1.5-2.48-.5-1.73-.16-3.23.25-4.12.43-.9.85-1.26.85-1.26.03.02-.36.42-.74 1.31-.37.88-.66 2.34-.15 4 .26.81.71 1.68 1.46 2.35.72.69 1.78 1.14 2.9 1.1.55-.03 1.12-.19 1.55-.57.44-.36.7-.93.72-1.52a2.74 2.74 0 0 0-2.02-2.76c-1.24-.37-2.58-.01-3.55.73-.98.74-1.67 1.76-2.13 2.8-.93 2.08-.81 4.35.12 5.8.96 1.46 2.48 1.89 3.41 1.91.98.02 1.49-.23 1.5-.19zm7.91-20.21c.01-.02.23.06.61.25a7.56 7.56 0 0 1 1.5.99c.59.49 1.21 1.18 1.72 2.06s.9 1.93 1.13 3.08c.47 2.31-.04 4.48-.67 5.85-.31.7-.64 1.22-.9 1.56-.25.34-.42.51-.43.5-.05-.04.56-.76 1.12-2.15.57-1.37 1.02-3.47.57-5.7a10.34 10.34 0 0 0-1.08-3c-.48-.86-1.06-1.54-1.61-2.03-1.11-.99-2-1.35-1.96-1.41zm16.38 6.04s-.43.21-1.27.3c-.42.03-.95.03-1.54-.14-.59-.16-1.21-.53-1.73-1.1-1.04-1.1-1.81-2.95-1.53-4.98.15-1 .66-2.06 1.62-2.69.47-.31 1.03-.53 1.62-.54.59-.03 1.2.19 1.67.57s.81.93.89 1.53c.08.61-.15 1.2-.51 1.64-.73.92-1.94 1.17-2.93 1.07-2.05-.2-3.62-1.47-4.41-2.76-.41-.64-.64-1.34-.59-1.96.04-.62.25-1.1.42-1.49l.42-.87c.1-.2.16-.3.17-.29.01 0-.03.11-.11.32l-.36.89c-.15.39-.33.87-.35 1.45-.03.58.19 1.22.6 1.83.78 1.23 2.3 2.41 4.25 2.59.94.09 2.03-.16 2.67-.98.32-.39.51-.91.44-1.41-.06-.51-.36-.99-.78-1.33-.84-.72-2.08-.61-2.92-.02-.87.57-1.35 1.54-1.5 2.48-.28 1.92.43 3.72 1.41 4.79.98 1.15 2.3 1.3 3.1 1.27.8-.04 1.25-.2 1.25-.17zm-64.86 49.49s-.28.36-.93.83-1.69 1.06-3.11 1.4c-1.4.36-3.15.47-5.05.29-1.91-.17-3.94-.69-6.07-1.21-2.12-.52-4.16-.96-6.04-1.04s-3.57.21-4.91.69c-1.34.47-2.29 1.16-2.89 1.69l-.87.88s.22-.39.79-.97c.58-.56 1.53-1.29 2.89-1.8 1.35-.52 3.08-.84 5-.77 1.92.06 3.98.5 6.1 1.02l6.02 1.22c1.87.19 3.59.1 4.97-.22 2.82-.63 4.06-2.11 4.1-2.01zm-42.35-30.58c-.02.04.58-.55 1.86-.37.63.1 1.34.44 2.05.95.73.52 1.45 1.19 2.33 1.87l2.7 2.39c1.02.77 2.27 1.39 3.69 1.65 2.85.55 6.1-.09 9.19-1.33 3.12-1.24 5.99-2.75 8.84-3.52 1.42-.39 2.81-.62 4.13-.59a11.64 11.64 0 0 1 3.58.64c2.12.74 3.53 2.02 4.18 3.07a3.81 3.81 0 0 1 .4.72c.11.21.19.4.23.56l.14.48c-.05.02-.18-.67-.87-1.69-.67-1.02-2.07-2.24-4.15-2.93-1.04-.35-2.23-.57-3.51-.59s-2.65.22-4.05.61c-2.81.77-5.66 2.28-8.8 3.53-3.13 1.25-6.44 1.9-9.36 1.32-1.46-.27-2.76-.92-3.8-1.72-1.03-.82-1.85-1.72-2.68-2.43l-2.29-1.89c-.7-.52-1.38-.86-1.97-.97-1.22-.22-1.83.32-1.84.24zm45.44-11.7s.08.27.15.81c.07.53.08 1.34-.15 2.35a8.01 8.01 0 0 1-1.66 3.32c-.93 1.11-2.38 2.14-4.22 2.45-1.81.31-3.96-.04-5.76-1.27-.88-.63-1.73-1.42-2.22-2.52-.23-.54-.23-1.27.19-1.78.39-.51 1.02-.78 1.65-.84s1.32.11 1.8.6c.47.46.73 1.12.77 1.77.12 1.32-.56 2.66-1.63 3.48-1.06.84-2.36 1.31-3.67 1.68s-2.7.61-4.12.52c-1.41-.09-2.8-.57-3.89-1.45-1.09-.86-1.81-2.2-1.81-3.56-.04-1.34.61-2.75 1.82-3.36 1.18-.59 2.67-.46 3.63.4.99.88 1.04 2.35.57 3.41-.45 1.11-1.41 1.88-2.39 2.34-1.99.91-4.09.99-5.9.76-3.68-.54-6.2-2.46-7.54-3.96-.68-.76-1.12-1.43-1.39-1.9l-.37-.73c.05-.04.47 1.05 1.85 2.54 1.36 1.46 3.87 3.32 7.48 3.82 1.77.21 3.84.11 5.76-.78.94-.45 1.83-1.18 2.24-2.21.43-.99.36-2.32-.51-3.09-.85-.76-2.24-.89-3.31-.35-1.08.54-1.68 1.83-1.65 3.09 0 1.28.66 2.51 1.7 3.33 1.03.83 2.35 1.29 3.71 1.38s2.72-.15 4.01-.51 2.55-.82 3.56-1.62c1.01-.77 1.62-2 1.53-3.22-.04-.6-.27-1.18-.68-1.59-.4-.41-1-.57-1.56-.52s-1.12.29-1.45.72c-.34.42-.35 1.01-.15 1.51.43 1.01 1.26 1.81 2.11 2.41 1.74 1.2 3.82 1.56 5.58 1.27 1.79-.28 3.2-1.27 4.13-2.35.93-1.1 1.42-2.26 1.67-3.24.47-1.97.05-3.11.12-3.11zm-51.03 17.48c0-.01.13-.07.4-.16l1.17-.37c1.01-.27 2.66-.55 4.48.18a6.67 6.67 0 0 1 2.58 1.79c.75.85 1.33 2.02 1.36 3.33.02 1.29-.48 2.67-1.51 3.66a5.02 5.02 0 0 1-4.02 1.33c-.75-.09-1.47-.39-2.02-.9-.56-.5-.84-1.32-.65-2.04.18-.72.68-1.28 1.21-1.69.54-.41 1.18-.67 1.8-.82 2.53-.62 4.96.27 6.34 1.6 1.42 1.34 1.94 2.92 2.1 3.96.16 1.07.02 1.66.02 1.66-.04 0 .05-.59-.14-1.64-.19-1.02-.74-2.54-2.13-3.82-1.35-1.26-3.71-2.1-6.12-1.48-.6.15-1.18.39-1.69.78-.5.38-.95.9-1.09 1.52-.16.62.07 1.3.57 1.75.48.46 1.15.74 1.84.82a4.72 4.72 0 0 0 5.2-4.67c-.03-1.22-.55-2.34-1.27-3.16-.71-.83-1.6-1.41-2.46-1.76-1.76-.73-3.35-.5-4.37-.27l-1.18.31-.42.09zm4.29 21.69c-.03-.01.18-.29.1-.86-.08-.56-.37-1.36-.96-2.19-.53-.9-1.76-1.34-3.1-1.24-1.34.05-2.79.65-4.43.52-1.62-.13-3.09-.93-3.96-2.04-.88-1.13-1.13-2.43-1.14-3.48-.01-1.06.3-1.9.63-2.38.34-.49.63-.65.63-.65.02.03-.24.22-.53.71-.29.48-.55 1.3-.51 2.32.04 1 .31 2.26 1.14 3.3s2.23 1.79 3.76 1.91c1.54.12 2.99-.45 4.4-.5.7-.03 1.38.05 1.97.29.6.22 1.05.68 1.33 1.11.59.88.85 1.71.9 2.3.03.62-.23.9-.23.88zm-11.04 22.34c-.01-.05.54.04 1.37-.36.4-.21.86-.57 1.12-1.16.26-.58.31-1.35.21-2.15-.1-.81-.36-1.68-.65-2.61-.3-.92-.64-1.92-1.34-2.74-.65-.81-1.82-1.36-2.92-1.08-.54.14-1 .55-1.21 1.08-.22.53-.21 1.16-.02 1.73.37 1.18 1.64 1.77 2.77 1.78 1.17.03 2.24-.47 3.07-1.14 1.67-1.38 2.75-3.1 3.5-4.55.73-1.48 1.03-2.8 1.12-3.72l.07-1.44s.1.51.05 1.45c-.06.93-.33 2.29-1.05 3.8-.74 1.49-1.8 3.23-3.52 4.68-.86.7-2 1.25-3.26 1.22-.62-.01-1.26-.15-1.82-.48-.56-.32-1.03-.86-1.24-1.5-.22-.63-.22-1.33.03-1.95a2.11 2.11 0 0 1 1.41-1.26c1.27-.31 2.51.31 3.22 1.19.73.88 1.07 1.91 1.36 2.84.28.94.54 1.82.62 2.66s.03 1.63-.28 2.25-.8.99-1.23 1.19-.8.25-1.05.26c-.2.04-.33.01-.33.01zm13.14 7.7c0-.04.3.01.78-.19.47-.19 1.07-.7 1.41-1.56.37-.84.29-1.98-.14-3.12-.41-1.15-1.15-2.32-1.6-3.71-.22-.69-.34-1.42-.27-2.12s.35-1.35.73-1.87c.76-1.05 1.86-1.59 2.78-1.81a6.48 6.48 0 0 1 2.24-.13c.53.06.81.14.8.16 0 .08-1.18-.26-2.99.18-.88.24-1.9.78-2.6 1.77-.35.49-.6 1.08-.65 1.73-.06.65.05 1.33.26 2 .43 1.34 1.17 2.51 1.58 3.71.43 1.18.51 2.42.08 3.31-.38.9-1.06 1.42-1.57 1.58-.54.17-.84.07-.84.07z" class="R"/><g class="P"><path d="M235.73 240.8c-.03-.02.31-.47.94-1.26l2.77-3.26 4.13-4.81 2.33-2.92c.81-1.02 1.55-2.11 2.17-3.33 1.2-2.43 1.99-4.98 1.97-7.32 0-2.34-.84-4.41-2.07-5.67-1.22-1.29-2.62-1.85-3.59-2.01-.98-.18-1.54-.06-1.55-.12 0-.02.13-.05.4-.09a5.17 5.17 0 0 1 1.18.01c1.01.11 2.5.64 3.82 1.96 1.34 1.29 2.26 3.48 2.29 5.92.05 2.46-.75 5.07-1.98 7.57-.62 1.25-1.42 2.39-2.23 3.4l-2.37 2.92-4.23 4.74-2.89 3.15-1.09 1.12zm-11.16 13.75c.04.14-1.51.72-3.46 1.31s-3.57.95-3.61.81 1.51-.72 3.46-1.31 3.57-.95 3.61-.81z"/><path d="M224.12 254.42c.08.13-1.11.87-2.25 2.12-1.15 1.24-1.79 2.48-1.93 2.42-.13-.04.33-1.45 1.55-2.77 1.21-1.33 2.58-1.89 2.63-1.77zm50.38-23.72c-.06.03-.52-.75-1.16-2.06s-1.44-3.17-2.18-5.28-1.28-4.06-1.6-5.48c-.33-1.43-.45-2.32-.39-2.34.07-.02.33.85.74 2.24l1.74 5.4 2.03 5.3.82 2.22zm-10.57 9.58c.04.02-.34.88-1.32 2.04-.97 1.15-2.61 2.53-4.73 3.45-2.13.92-4.26 1.17-5.76 1.09-1.51-.08-2.4-.39-2.39-.44.02-.09.92.09 2.39.07 1.46-.01 3.49-.31 5.55-1.2 2.05-.89 3.66-2.16 4.67-3.22l1.59-1.79z"/></g><g class="S"><path d="M256.96 289.7s-6.91 1.5-7.82.74 1.32-1.58 1.32-1.58-1.98.24-2.05-.48c-.06-.72.72-1.23.72-1.23l7.83 2.55z"/><path d="M247.63 276.29s9.71 4.37 9.83 4.71.42 7.26-.51 8.69-13.65-5.54-13.65-5.54l4.33-7.86z"/></g><path d="M254.81 288.08c0 .01-.18 0-.49-.03l-1.32-.17c-1.11-.17-2.65-.41-4.3-.92-1.66-.49-3.05-1.24-3.96-1.91l-1.1-.75-.39-.3c.01-.01.16.07.43.23l1.13.69c.92.64 2.3 1.35 3.94 1.84 1.63.5 3.16.77 4.27.98l1.31.24.48.1zm-.04.17c.02.05-.97.37-2.23.56s-2.29.18-2.3.12c0-.06 1.02-.14 2.26-.33l2.27-.35z" class="V"/><defs ><path id="B" d="M142.55 403.79c-2.16 3.09-6.36 2.06-8.31.18s-2.77-4.61-3.52-7.22c-1.71-5.95-3.44-12.19-2.16-18.25.38-1.81 1.06-3.62 2.33-4.96s3.23-2.14 5.02-1.67c2.12.56 3.43 2.63 4.38 4.61 2.8 5.8 4.28 12.23 4.3 18.67.01 3-.35 6.16-2.04 8.64"/><path id="C" d="M351.55 325.8c-.14 0-.26-33.24-.26-74.23l.26-74.23c.14 0 .26 33.23.26 74.23l-.26 74.23z"/><path id="D" d="M166.07 178.53c0 3.2-2.6 5.8-5.8 5.8s-5.8-2.6-5.8-5.8 2.6-5.8 5.8-5.8a5.8 5.8 0 0 1 5.8 5.8z"/><path id="E" d="M208.71 326.8c-2.33-4.87-6.92-8.77-13.46-9.42-.17-.02-.35-.03-.53-.05l-.34-.03c-.33-.02-.67-.03-1-.03h-.05-.04 0 0l.09 13.84.02 3.25 16.68 3.64h.02 0a16.51 16.51 0 0 0 .37-3.59 17.88 17.88 0 0 0-1.76-7.61z"/><path id="F" d="M192.41,336.04l-16.68,3.75c1.71,7.64,8.53,13.34,16.68,13.34c8.19,0,15.03-5.76,16.7-13.46l-16.68-3.64"/><path id="G" d="M504.07 319.86c0 .14-28.97.26-64.71.26s-64.71-.12-64.71-.26 28.97-.26 64.71-.26l64.71.26z"/><path id="H" d="M545.66 267.76c2.3.3 4.64-.33 6.52-1.69s3.34-3.21 4.64-5.13c4.72-6.98 7.54-15.22 8.08-23.62.12-1.89.33-9.75-.08-12.92-1.18 9.05-3.95 18.89-6.28 24.41-2.99 7.1-5.85 12.23-10.88 18.06"/><path id="I" d="M543.93 300.64c-.06 0-.1-.23-.09-.5.01-.28.06-.5.12-.5s.1.23.09.5c-.01.28-.07.5-.12.5z"/><path id="J" d="M543.86 302.64c-.06 0-.1-.23-.09-.5.01-.28.06-.5.12-.5s.1.23.09.5c-.01.28-.06.5-.12.5z"/><path id="K" d="M543.32 320.64c-.06 0-.1-.23-.09-.5.01-.28.06-.5.12-.5s.1.23.09.5c-.01.28-.06.51-.12.5z"/><path id="L" d="M543.27 322.65c-.06 0-.1-.23-.09-.5.01-.28.06-.5.12-.5s.1.23.09.5-.06.5-.12.5z"/><path id="M" d="M542.79 342.68c-.06 0-.1-.23-.09-.5.01-.28.06-.5.11-.5.06 0 .1.23.09.5 0 .28-.05.5-.11.5z"/><path id="N" d="M542.71 346.69c-.06 0-.1-.23-.09-.5.01-.28.06-.5.11-.5s.1.23.09.5c0 .28-.05.5-.11.5z"/><path id="O" d="M542.67 348.7c-.06 0-.1-.23-.09-.5.01-.28.06-.5.11-.5.06 0 .1.23.09.5-.01.28-.06.5-.11.5z"/><path id="P" d="M542.62 350.7c-.06 0-.1-.23-.09-.5.01-.28.06-.5.11-.5.06 0 .1.23.09.5 0 .28-.05.51-.11.5z"/><path id="Q" d="M542.54 354.72c-.06 0-.1-.23-.09-.5.01-.28.06-.5.11-.5.06 0 .1.23.09.5 0 .27-.05.5-.11.5z"/><path id="R" d="M256.24 270.21c-.06 0-.11-.22-.12-.5s.03-.5.09-.5.11.22.12.5c0 .27-.04.5-.09.5z"/><path id="S" d="M256.29 272.21c-.06 0-.11-.22-.12-.5s.03-.5.09-.5.11.22.12.5c.01.27-.03.5-.09.5z"/><path id="T" d="M256.7 286.2c-.06 0-.11-.22-.12-.5s.03-.5.09-.5.11.22.12.5-.03.5-.09.5z"/><path id="U" d="M256.83 292.21c-.06 0-.11-.22-.11-.5s.04-.5.1-.5.11.22.11.5c0 .27-.04.5-.1.5z"/><path id="V" d="M256.97 298.22c-.06 0-.11-.22-.12-.5s.03-.5.09-.5.11.22.12.5c.01.27-.03.49-.09.5z"/><path id="W" d="M260.06 326.01c-.06.01-.14-.2-.19-.47s-.04-.5.02-.51.14.2.19.47.04.5-.02.51z"/></defs></svg>